<svg width="141" height="90" viewBox="0 0 141 90" fill="none" xmlns="http://www.w3.org/2000/svg">
<g clip-path="url(#clip0_249_177)">
<path d="M131.825 27.6215C133.665 29.8889 133.001 33.4177 132.969 36.3876C132.841 47.9799 131.817 59.668 130.625 71.2044C129.961 77.6552 127.937 77.4716 122.042 78.3897C119.938 78.7171 117.69 78.765 116.762 81.4235C116.026 83.5392 117.21 85.9263 116.57 87.8823C115.306 85.9742 113.546 84.4573 111.874 82.9165C106.227 77.6951 97.5551 77.1522 90.2835 76.5854C80.6841 75.827 71.1806 74.4138 61.5412 73.9508C57.3094 73.7432 57.3734 69.7913 57.0454 66.4302C55.8055 53.6802 55.7895 40.7307 56.3175 27.9409C56.4934 23.7255 60.1252 21.9611 63.925 21.7216C75.3964 21.011 86.8437 21.8014 98.2751 22.5279C104.203 22.9032 110.194 23.3662 116.122 23.7654C120.41 24.0528 128.881 24.0129 131.817 27.6295L131.825 27.6215Z" fill="#4D5359"/>
<path d="M132.441 27.1433C132.425 27.1194 132.401 27.0954 132.385 27.0635C132.369 27.0395 132.345 27.0156 132.321 26.9916C130.953 25.4029 128.849 24.6045 126.865 24.1095C124.537 23.5267 122.121 23.3112 119.729 23.1674C113.442 22.7762 107.154 22.3212 100.858 21.898C93.5949 21.411 86.3153 20.916 79.0357 20.7244C75.3879 20.6286 71.7401 20.6127 68.1003 20.7244C65.2605 20.8202 62.2526 20.7324 59.6128 21.938C57.4609 22.912 55.933 24.7961 55.613 27.1513C55.381 28.8279 55.437 30.5843 55.381 32.2768C55.325 34.0731 55.277 35.8695 55.253 37.6658C55.133 44.8671 55.237 52.0684 55.693 59.2537C55.893 62.3593 56.125 65.465 56.461 68.5626C56.6769 70.5585 57.0929 72.778 58.9008 73.9676C60.0048 74.6941 61.3087 74.7101 62.5806 74.7819C64.3805 74.8857 66.1884 75.0134 67.9883 75.1651C71.5401 75.4685 75.0839 75.8437 78.6277 76.227C82.2115 76.6102 85.8033 76.9934 89.3951 77.2968C92.1869 77.5283 94.9868 77.7039 97.7626 78.0951C100.474 78.4784 103.186 79.0452 105.738 80.0511C107.002 80.5461 108.218 81.1689 109.346 81.9193C110.562 82.7257 111.618 83.7236 112.682 84.7136C113.858 85.8074 115.002 86.949 115.906 88.2823C116.282 88.8332 117.146 88.7693 117.346 88.0987C118.033 85.7675 116.554 83.1249 117.865 80.9533C118.849 79.3246 121.113 79.3326 122.785 79.0771C125.417 78.6779 128.737 78.5342 130.225 75.9475C131.089 74.4546 131.281 72.6423 131.457 70.9577C131.769 67.9639 132.065 64.962 132.337 61.9601C132.881 55.9883 133.321 50.0086 133.569 44.0128C133.705 40.8433 133.689 37.6738 133.849 34.5043C133.977 31.9575 134.065 29.2829 132.457 27.1513L132.441 27.1433ZM132.249 34.6001C132.113 37.3465 132.121 40.1008 132.025 42.8472C131.801 48.7072 131.393 54.5672 130.881 60.4113C130.625 63.3333 130.345 66.2474 130.049 69.1614C129.865 71.0136 129.833 73.0974 129.025 74.8138C127.881 77.2409 124.521 77.2249 122.177 77.5842C120.121 77.8955 117.921 78.0712 116.634 79.9314C115.882 81.0172 115.666 82.3504 115.746 83.6438C115.786 84.3623 115.914 85.0968 115.97 85.8313C115.386 85.1607 114.762 84.53 114.114 83.9152C113.09 82.9412 112.058 81.9672 110.922 81.121C108.786 79.5242 106.282 78.4544 103.73 77.7199C98.2906 76.1551 92.5549 76.0354 86.9472 75.5164C79.9796 74.8697 73.036 73.9756 66.0524 73.4486C65.2365 73.3848 64.4205 73.3289 63.6046 73.281C62.7566 73.2251 61.8767 73.2491 61.0367 73.1213C60.1088 72.9776 59.3328 72.5225 58.8608 71.7082C57.8449 69.9757 57.9489 67.5966 57.7649 65.6646C57.1089 58.6709 56.8209 51.6452 56.7809 44.6276C56.7649 41.1148 56.8049 37.6019 56.9009 34.0891C56.9489 32.3407 57.0049 30.5843 57.0769 28.8359C57.1249 27.5665 57.2209 26.3769 57.9409 25.2831C59.1408 23.4549 61.5167 22.7124 63.5966 22.5367C67.0764 22.2334 70.6122 22.2174 74.1 22.2334C81.1316 22.2573 88.1552 22.6725 95.1708 23.1195C102.202 23.5666 109.226 24.1095 116.258 24.5646C118.369 24.7003 120.489 24.7642 122.593 24.9877C124.785 25.2272 127.105 25.5785 129.105 26.5605C129.937 26.9677 130.673 27.4786 131.265 28.1892C132.633 29.9456 132.353 32.5323 132.249 34.6081V34.6001Z" fill="#e8e9eb"/>
<path d="M76.7721 7.08118C77.5321 7.04127 78.348 7.00933 79.004 7.40053C79.8359 7.89552 80.1719 8.91743 80.4279 9.85152C84.5957 25.0365 85.4436 56.3245 82.5958 59.494C79.4439 62.9909 45.8859 65.7932 44.9019 66.3201C44.9019 66.3201 34.4065 76.1719 31.4787 77.8565C31.9826 73.9924 33.4386 67.2302 33.6785 63.3581C27.3029 61.5698 21.5432 60.7155 13.8397 58.4721C13.4477 58.3603 13.0237 58.2166 12.7757 57.8893C12.4797 57.4901 12.6557 56.9393 12.6077 56.4443C11.7518 48.0454 10.9758 20.8211 11.4398 19.5756C11.9198 18.2903 66.2447 7.95939 76.7721 7.08118Z" fill="#4D5359"/>
<path d="M84.8915 38.257C84.6675 32.916 84.2355 27.5749 83.5476 22.2657C83.2196 19.7509 82.8356 17.236 82.3556 14.7451C82.1396 13.6513 81.9157 12.5576 81.6517 11.4718C81.3797 10.3301 81.1477 9.11661 80.6117 8.07075C79.8278 6.53788 78.3719 6.21854 76.7719 6.29837C73.9641 6.53788 71.1643 6.98497 68.3804 7.42407C64.1247 8.08672 59.8849 8.81323 55.6451 9.5637C50.7494 10.4259 45.8617 11.3281 40.982 12.2542C36.3103 13.1404 31.6385 14.0585 26.9828 15.0086C23.391 15.7431 19.7992 16.4935 16.2314 17.3318C15.1115 17.5953 13.9915 17.8667 12.8796 18.1781C12.3116 18.3378 11.6477 18.4894 11.1357 18.8008C10.4557 19.2239 10.5677 20.2299 10.5437 20.9245C10.4957 22.5212 10.5117 24.1259 10.5277 25.7227C10.5837 30.7364 10.7357 35.7502 10.9277 40.7639C11.1037 45.4663 11.2957 50.1687 11.6797 54.8551C11.7117 55.2543 11.7436 55.6614 11.7836 56.0606C11.8476 56.6993 11.7037 57.4258 11.9676 58.0246C12.3276 58.8549 13.2076 59.1024 14.0075 59.326C15.0475 59.6213 16.0954 59.9088 17.1433 60.1802C20.8231 61.1382 24.5509 61.9206 28.2627 62.7829C29.7986 63.1422 31.3345 63.5174 32.8545 63.9325C32.4785 68.611 31.3105 73.2016 30.6946 77.8401C30.6146 78.4548 31.4145 78.7902 31.8785 78.5187C33.3024 77.6884 34.5744 76.5547 35.8303 75.4929C37.5182 74.0718 39.1661 72.6108 40.806 71.1338C42.1179 69.9522 43.4139 68.7627 44.7098 67.5651C44.8778 67.4134 45.1897 67.2058 45.3657 66.9983C45.4297 66.9823 45.4937 66.9663 45.5577 66.9504C46.5337 66.7747 47.1096 66.7268 48.1896 66.5911C49.7175 66.4075 51.2374 66.2318 52.7653 66.0482C56.8531 65.5692 60.9408 65.0662 65.0206 64.4994C68.9644 63.9485 72.9082 63.3497 76.796 62.4635C78.1879 62.1442 79.5958 61.8009 80.9317 61.2899C81.8037 60.9546 82.7876 60.5714 83.3556 59.781C83.9315 58.9827 84.1395 57.9128 84.3155 56.9708C84.6115 55.374 84.7635 53.7454 84.8675 52.1247C85.1715 47.5021 85.0995 42.8556 84.8995 38.2331L84.8915 38.257ZM12.0076 20.1181C11.9196 20.174 11.9276 20.2139 12.0076 20.1181V20.1181ZM83.3956 50.033C83.3236 51.8053 83.2196 53.5857 82.9876 55.3421C82.9156 55.9089 82.7956 56.5955 82.6596 57.2023C82.5716 57.6015 82.3876 58.2322 82.2836 58.4957C82.2836 58.4957 82.2036 58.6633 82.1876 58.6952C82.1556 58.7591 82.1156 58.823 82.0757 58.8868C82.0676 58.9028 82.0596 58.9188 82.0516 58.9268C82.0516 58.9268 82.0436 58.9347 82.0357 58.9427C81.9797 58.9986 81.9237 59.0545 81.8677 59.1024C81.8517 59.1184 81.8437 59.1264 81.8437 59.1264C81.8277 59.1264 81.8117 59.1503 81.7797 59.1663C81.7077 59.2142 81.6357 59.2541 81.5637 59.302C81.3637 59.4218 81.1557 59.5176 80.9397 59.6213C80.8997 59.6453 80.8517 59.6613 80.8037 59.6772C80.7797 59.6852 80.7397 59.7012 80.7237 59.7092C80.6037 59.7571 80.4757 59.805 80.3557 59.8529C80.0598 59.9646 79.7558 60.0605 79.4518 60.1563C78.7878 60.3638 78.1079 60.5475 77.4279 60.7151C73.7481 61.6332 69.9803 62.216 66.2365 62.7669C59.4449 63.7649 52.5973 64.3716 45.8057 65.3456C45.2857 65.4175 44.7098 65.4414 44.3018 65.8007C43.4458 66.5352 42.6379 67.3416 41.8059 68.108C38.8141 70.8544 35.8143 73.6407 32.5985 76.1156C32.5665 76.1396 32.5345 76.1635 32.5025 76.1875C33.1744 71.9162 34.1744 67.6769 34.4624 63.3577C34.4864 63.0144 34.1984 62.6871 33.8864 62.5993C30.4306 61.6332 26.9188 60.8828 23.415 60.0924C21.5351 59.6693 19.6552 59.2222 17.7913 58.7431C16.7914 58.4877 15.7914 58.2162 14.7995 57.9288C14.4315 57.825 13.8955 57.7691 13.5755 57.5376C13.2476 57.3061 13.4156 56.7951 13.3996 56.4359C13.1356 52.2444 12.8156 48.053 12.6316 43.8536C12.4156 38.736 12.2476 33.6185 12.1516 28.493C12.1116 26.5609 12.0876 24.6289 12.0956 22.6968C12.0956 22.0582 12.1036 21.4195 12.1276 20.7728C12.1276 20.5572 12.1436 20.3417 12.1596 20.1341C12.1596 20.1022 12.1596 20.0782 12.1596 20.0463C12.1836 20.0383 12.1996 20.0303 12.2236 20.0223C12.3676 19.9744 12.5036 19.9265 12.6476 19.8786C13.5675 19.5832 14.5115 19.3517 15.4474 19.1281C18.6953 18.3298 21.9671 17.6432 25.2389 16.9646C29.6546 16.0464 34.0784 15.1682 38.5101 14.314C43.3259 13.3879 48.1416 12.4857 52.9653 11.6235C57.3411 10.8331 61.7248 10.0747 66.1086 9.35612C69.2124 8.85315 72.3402 8.35018 75.324 8.00688C75.804 7.951 76.284 7.90309 76.7639 7.86317C77.4679 7.82326 78.3159 7.74342 78.8598 8.28631C79.3478 8.7813 79.5158 9.53975 79.6918 10.1864C79.9718 11.2083 80.2118 12.2382 80.4437 13.2681C80.9397 15.5515 81.3397 17.8508 81.6757 20.158C82.4356 25.3394 82.9076 30.5608 83.1956 35.7821C83.4596 40.5244 83.5716 45.2827 83.3876 50.025L83.3956 50.033Z" fill="#e8e9eb"/>
<path d="M75.3326 1.50087C78.6044 0.750404 82.2762 1.35716 84.652 3.87202C85.7 4.97377 86.4439 6.40285 86.6119 7.92773C86.8119 9.79591 86.3319 11.6641 86.6439 13.5323C86.7159 13.9873 86.8439 14.4584 87.1959 14.7777C87.5719 15.113 88.0838 15.145 88.5638 15.0811C89.6598 14.9294 90.7477 14.7139 91.8436 14.5302C92.6036 14.4025 92.2836 13.2449 91.5236 13.3726C90.5397 13.5403 89.5478 13.7079 88.5638 13.8756C88.2198 13.9315 87.9798 13.9873 87.8839 13.6121C87.7639 13.157 87.7399 12.678 87.7319 12.207C87.6999 10.3947 88.0758 8.59037 87.6279 6.80203C86.8439 3.63251 84.1401 1.23741 81.0442 0.399122C79.0764 -0.135784 76.9965 -0.103849 75.0206 0.35122C74.2686 0.526861 74.5886 1.67651 75.3406 1.50885L75.3326 1.50087Z" fill="#e8e9eb"/>
<path d="M12.5834 12.0469C10.3436 12.3343 8.29568 13.42 6.74377 15.0567C5.07186 16.8131 4.05592 19.1044 3.67194 21.4836C3.44796 22.8967 3.41596 24.3337 3.55995 25.7548C3.59195 26.0742 3.81593 26.3536 4.15991 26.3536C4.5039 26.3536 4.79188 26.0822 4.75988 25.7548C4.31991 21.4596 5.59183 16.7413 9.47161 14.3621C10.4156 13.7873 11.4795 13.3721 12.5754 13.2364C12.8954 13.1965 13.1754 12.9889 13.1754 12.6376C13.1754 12.2864 12.8954 11.999 12.5754 12.0389L12.5834 12.0469Z" fill="#e8e9eb"/>
<path d="M49.0383 72.4112C49.7423 72.1158 50.5023 71.7884 51.2782 71.8044C51.9822 71.8204 52.5261 72.2435 52.9021 72.8183C53.7421 74.1117 53.8861 75.7004 54.254 77.1694C54.574 78.4628 55.11 79.836 56.1499 80.7222C57.3819 81.776 59.0298 81.9117 60.5897 82.0474C62.5896 82.2231 64.5975 82.263 66.6053 82.1592C67.3733 82.1193 67.3813 80.9217 66.6053 80.9617C64.8054 81.0495 63.0055 81.0335 61.2136 80.9058C59.7737 80.794 57.9418 80.794 56.8299 79.7242C55.83 78.7582 55.502 77.3131 55.222 76.0038C54.902 74.5029 54.582 72.9141 53.5581 71.7086C53.0141 71.0699 52.2542 70.6787 51.4142 70.6228C50.4783 70.5589 49.5663 70.9102 48.7184 71.2615C48.4224 71.3892 48.2064 71.6607 48.3024 71.996C48.3824 72.2754 48.7424 72.5389 49.0383 72.4112Z" fill="#e8e9eb"/>
<path d="M138.328 61.3543C138.328 67.0865 138.328 73.3058 135.264 78.3834C134.505 79.6449 133.529 80.9701 132.017 81.3134C131.265 81.4811 131.585 82.6387 132.337 82.4711C133.809 82.1358 134.897 81.05 135.744 79.8604C136.632 78.607 137.304 77.2098 137.832 75.7728C138.896 72.8667 139.288 69.7451 139.44 66.6714C139.528 64.899 139.536 63.1266 139.536 61.3543C139.536 60.5798 138.336 60.5798 138.336 61.3543H138.328Z" fill="#e8e9eb"/>
<path d="M127.496 82.3844C127.08 82.5361 126.664 82.6958 126.248 82.8475C125.944 82.9592 125.736 83.2546 125.832 83.582C125.912 83.8694 126.264 84.1169 126.568 83.9971C126.984 83.8454 127.4 83.6857 127.816 83.5341C128.12 83.4223 128.328 83.1269 128.232 82.7996C128.152 82.5121 127.8 82.2646 127.496 82.3844Z" fill="#e8e9eb"/>
<path d="M130.921 21.8275C133.176 22.2187 135.44 23.033 137.088 24.6777C138.816 26.4101 139.552 28.8771 139.736 31.2642C139.864 32.845 139.784 34.4337 139.688 36.0145C139.64 36.7809 140.84 36.7809 140.888 36.0145C141.064 33.1963 141.152 30.2742 140.2 27.5678C139.336 25.1088 137.656 23.1448 135.32 21.9792C134.032 21.3405 132.648 20.9254 131.241 20.6779C130.489 20.5501 130.161 21.6998 130.921 21.8355V21.8275Z" fill="#e8e9eb"/>
<path d="M3.72074 30.0017C3.72074 30.7761 3.72874 31.5505 3.73674 32.3249C3.73674 33.0913 4.94467 33.0993 4.93667 32.3249C4.93667 31.5505 4.92867 30.7761 4.92067 30.0017C4.92067 29.2352 3.71274 29.2272 3.72074 30.0017Z" fill="#e8e9eb"/>
<path d="M94.1555 13.8204C94.7714 13.6607 95.3954 13.4931 96.0114 13.3334C96.7553 13.1338 96.4433 11.9841 95.6914 12.1757C95.0754 12.3354 94.4514 12.5031 93.8355 12.6628C93.0915 12.8623 93.4035 14.012 94.1555 13.8204Z" fill="#e8e9eb"/>
<path d="M6.82334 43.6397C5.33542 44.3103 4.79145 44.8532 4.12749 46.3302C3.45553 44.8453 2.91156 44.3024 1.43164 43.6397C2.91956 42.9691 3.46353 42.4262 4.12749 40.9492C4.79945 42.4342 5.34342 42.9771 6.82334 43.6397Z" fill="#e8e9eb"/>
<path d="M131.489 14.8487C130.001 15.5193 129.457 16.0622 128.793 17.5392C128.122 16.0542 127.578 15.5113 126.098 14.8487C127.586 14.1781 128.13 13.6352 128.793 12.1582C129.465 13.6432 130.009 14.1861 131.489 14.8487Z" fill="#e8e9eb"/>
<path d="M83.4679 85.6339C81.98 86.3045 81.436 86.8474 80.772 88.3244C80.1001 86.8394 79.5561 86.2965 78.0762 85.6339C79.5641 84.9632 80.1081 84.4203 80.772 82.9434C81.444 84.4283 81.988 84.9712 83.4679 85.6339Z" fill="#e8e9eb"/>
<path d="M1.75171 38.6886C1.27174 38.9041 1.09575 39.0798 0.879763 39.5588C0.663775 39.0798 0.487785 38.9041 0.0078125 38.6886C0.487785 38.473 0.663775 38.2974 0.879763 37.8184C1.09575 38.2974 1.27174 38.473 1.75171 38.6886Z" fill="#e8e9eb"/>
<path d="M132.785 8.64546C131.953 9.0207 131.649 9.32407 131.281 10.1464C130.905 9.31609 130.601 9.01271 129.777 8.64546C130.609 8.27023 130.913 7.96685 131.281 7.14453C131.657 7.97483 131.961 8.27821 132.785 8.64546Z" fill="#e8e9eb"/>
<path d="M125.04 10.7774C124.593 10.977 124.425 11.1446 124.217 11.5997C124.017 11.1526 123.849 10.985 123.393 10.7774C123.841 10.5778 124.009 10.4101 124.217 9.95508C124.417 10.4022 124.585 10.5698 125.04 10.7774Z" fill="#e8e9eb"/>
<path d="M84.644 81.0508C84.196 81.2504 84.028 81.4181 83.8201 81.8732C83.6201 81.4261 83.4521 81.2584 82.9961 81.0508C83.4441 80.8512 83.6121 80.6836 83.8201 80.2285C84.02 80.6756 84.188 80.8433 84.644 81.0508Z" fill="#e8e9eb"/>
</g>
<defs>
<clipPath id="clip0_249_177">
<rect width="141" height="90" fill="white"/>
</clipPath>
</defs>
</svg>
