<svg width="382" height="238" viewBox="0 0 382 238" fill="none" xmlns="http://www.w3.org/2000/svg">
<g clip-path="url(#clip0_561_3372)">
<path d="M97.1383 86.5062C96.8543 73.3891 99.543 60.2076 105.202 48.3604C110.514 37.243 118.44 27.4716 128.063 19.8198C137.54 12.2853 148.655 6.83551 160.457 4.15124C172.554 1.39993 185.269 1.50823 197.346 4.30853C209.203 7.05855 220.409 12.3936 229.918 20.0248C238.888 27.2241 246.309 36.3354 251.721 46.4897C257.164 56.7008 260.589 68.0038 261.517 79.5557C262.473 91.4557 260.778 103.525 256.826 114.774C252.864 126.051 246.617 136.538 238.475 145.282C230.089 154.29 219.461 161.838 207.375 164.741C204.397 165.456 201.356 165.849 198.295 165.914C198.169 165.916 197.77 165.933 197.746 166.121C197.44 168.481 197.134 170.84 196.828 173.2C196.623 174.789 196.416 176.38 196.21 177.97C196.097 178.839 196.039 179.752 195.808 180.599C195.485 181.782 194.805 182.847 193.881 183.65C192.755 184.628 191.466 184.96 190.02 185.105C186.6 185.444 183.181 185.784 179.761 186.123C178.1 186.288 176.248 186.7 174.586 186.416C173.139 186.17 172.144 185.109 171.582 183.804C170.626 181.58 170.632 178.918 170.365 176.539C169.192 166.11 167.882 155.696 166.562 145.285C166.27 142.985 165.665 140.572 166.729 138.381C167.233 137.345 168.028 136.429 168.994 135.802C170.166 135.041 171.382 134.858 172.75 134.833C178.219 134.734 183.685 134.162 189.04 133.025C199.537 130.797 209.741 126.211 217.366 118.487C225.587 110.161 230.27 98.4604 229.982 86.7344C229.721 76.0682 225.3 65.6212 218.12 57.7915C210.693 49.6923 200.487 44.8962 189.601 43.8776C178.62 42.8501 167.351 45.6788 158.461 52.2992C149.979 58.6153 143.839 68.0116 141.343 78.3C140.727 80.8373 140.347 83.4236 140.191 86.0292L140.415 85.8667C140.436 85.8629 140.576 85.8667 140.393 85.8706C140.245 85.8732 140.081 85.9299 139.936 85.9557C139.386 86.055 138.833 86.1439 138.28 86.2264C136.214 86.5384 134.135 86.7731 132.054 86.9587C124.266 87.6562 116.414 87.673 108.612 87.2359C104.537 87.0077 100.48 86.6029 96.4198 86.2148C96.2913 86.2019 95.6693 86.1916 95.677 86.4211C95.686 86.6622 96.254 86.6932 96.3929 86.706C110.383 88.043 124.532 88.7831 138.503 86.7628C139.481 86.6209 140.46 86.4714 141.428 86.269C141.492 86.2561 141.645 86.1981 141.651 86.1065C142.293 75.3578 146.967 65.0321 154.416 57.3054C162.335 49.0915 173.205 44.3908 184.593 44.1755C196.042 43.9602 207.276 48.3463 215.395 56.4726C223.005 64.0896 227.846 74.5069 228.468 85.2969C229.151 97.1479 224.695 109.102 216.543 117.682C208.898 125.729 198.482 130.445 187.752 132.676C184.995 133.25 182.205 133.659 179.403 133.936C176.638 134.209 173.86 134.142 171.099 134.377C168.911 134.564 166.849 135.682 165.665 137.567C164.364 139.636 164.666 141.776 164.958 144.072C166.278 154.46 167.585 164.85 168.769 175.255C169.036 177.6 169.122 180.049 169.677 182.347C170.261 184.763 171.685 186.5 174.226 186.876C175.552 187.073 176.889 186.939 178.214 186.808C179.953 186.635 181.692 186.462 183.43 186.29C185.168 186.117 186.907 185.944 188.645 185.771C190.051 185.632 191.551 185.626 192.904 185.185C195.047 184.487 196.742 182.761 197.296 180.555C197.511 179.701 197.57 178.79 197.682 177.918C198.095 174.731 198.508 171.544 198.922 168.357C199.016 167.636 199.108 166.916 199.202 166.195C199.02 166.265 198.836 166.333 198.653 166.403C211.236 166.14 222.974 160.404 232.522 152.454C241.939 144.615 249.488 134.556 254.727 123.483C259.919 112.51 262.892 100.469 263.205 88.3163C263.509 76.4305 261.169 64.5731 256.557 53.6284C251.984 42.774 245.212 32.8427 236.718 24.6971C227.975 16.313 217.447 9.97747 205.971 6.14446C194.233 2.22249 181.675 0.832648 169.368 2.10129C157.06 3.36994 145.272 7.40021 134.796 13.8788C124.398 20.3097 115.376 29.0226 108.726 39.3136C101.527 50.4542 97.2193 63.3882 96.006 76.5917C95.7052 79.8574 95.5999 83.1386 95.6705 86.4172C95.6783 86.7911 97.137 86.8272 97.1293 86.4972L97.1383 86.5062Z" fill="#4D5359"/>
<path d="M165.089 136.131C162.974 138.955 162.808 142.55 163.167 145.941C163.588 149.938 164.453 153.907 165.141 157.865C166.655 166.567 168.167 175.269 169.681 183.971C169.936 185.433 170.061 187.105 171.197 188.192C172.415 189.357 173.892 189.196 175.419 188.902C179.28 188.158 183.219 187.856 187.127 187.472C190.279 187.163 193.493 187.11 195.673 184.463C196.925 182.942 197.267 181.159 197.375 179.258C197.587 175.562 197.797 171.864 198.01 168.168L197.808 168.323C209.518 168.805 220.639 163.613 229.787 156.642C239.416 149.304 247.563 139.705 253.279 129.016C259.355 117.654 262.088 104.723 261.935 91.8751C261.783 79.0751 258.845 66.3629 253.618 54.6988C248.682 43.6807 241.753 33.5702 233.157 25.1023C224.214 16.2914 213.463 9.39246 201.674 5.09918C189.567 0.689865 176.434 -1.02229 163.632 0.603483C151.688 2.12096 140.161 6.52899 130.159 13.2384C119.982 20.0651 111.478 29.2305 105.563 39.9908C99.4661 51.0824 96.0627 63.6748 95.7813 76.3393C95.7119 79.4477 95.8378 82.5575 96.1437 85.6505C96.1874 86.0901 96.7709 86.473 97.1835 86.4949C101.953 86.7476 106.724 86.999 111.493 87.2517C119.03 87.6501 126.567 88.0485 134.102 88.4469C135.853 88.5397 137.602 88.6325 139.352 88.7241C139.423 88.7279 139.481 88.7047 139.527 88.6532C142.306 82.0211 145.243 75.4381 148.542 69.0485C151.905 62.5338 155.685 55.6039 161.69 51.174C173.035 42.8027 189.182 42.4636 201.94 47.4879C208.342 50.0085 214.201 53.9536 218.785 59.1133C223.713 64.6598 227.205 71.4156 229.089 78.5891C231.009 85.9044 231.425 93.9263 229.292 101.243C227.205 108.407 222.32 113.96 216.22 118.051C209.893 122.294 202.679 125.266 195.58 127.93C187.878 130.819 179.961 133.132 171.918 134.843C169.8 135.294 167.673 135.701 165.538 136.069C164.944 136.171 165.967 137.139 166.375 137.069C178.571 134.969 190.523 131.534 201.959 126.787C211.616 122.778 222.218 117.823 227.762 108.432C233.415 98.8526 232.805 86.3621 229.423 76.1098C226.117 66.0844 219.62 57.2426 210.825 51.3983C202.558 45.9047 192.611 42.9587 182.687 43.2372C177.545 43.3816 172.384 44.3924 167.616 46.3469C162.353 48.5052 157.878 51.8869 154.45 56.4445C151.159 60.8216 148.557 65.7376 146.126 70.633C143.708 75.5 141.47 80.4598 139.336 85.4571C139.104 85.9973 138.875 86.5375 138.647 87.079C138.608 87.1718 138.436 87.761 138.491 87.7275C138.43 87.7661 138.228 87.7056 138.157 87.7094C137.603 87.7455 137.008 87.6488 136.454 87.6192C134.26 87.5031 132.068 87.3871 129.874 87.2711C123.498 86.9346 117.123 86.5968 110.747 86.2603C106.19 86.0192 101.633 85.7781 97.0768 85.537L96.3481 85.4983C96.6951 85.7794 97.0408 86.0617 97.3878 86.3428C96.154 73.882 98.0009 61.1736 102.643 49.5534C107.172 38.2142 114.34 28.0508 123.552 20.056C132.512 12.2804 143.259 6.57282 154.711 3.5224C166.949 0.263115 179.893 0.243776 192.213 3.09049C204.587 5.9501 216.234 11.6577 226.11 19.6602C235.447 27.2257 243.174 36.7315 248.95 47.2688C254.952 58.2199 258.87 70.3403 260.195 82.7754C261.542 95.4128 260.254 108.445 255.675 120.341C251.384 131.485 244.178 141.547 235.603 149.78C227.197 157.851 216.77 164.719 205.14 166.777C202.445 167.254 199.707 167.438 196.972 167.326C196.878 167.322 196.776 167.378 196.771 167.481C196.596 170.535 196.421 173.588 196.246 176.642C196.181 177.778 196.179 178.941 196.032 180.07C195.652 182.96 193.447 185.353 190.614 185.984C188.783 186.393 186.807 186.425 184.941 186.606C183.111 186.784 181.28 186.962 179.453 187.178C177.848 187.369 176.244 187.588 174.654 187.887C173.695 188.068 172.328 188.522 171.648 187.589C171.202 186.977 171.148 185.908 171.022 185.188C169.615 177.099 168.209 169.01 166.801 160.921C166.035 156.517 165.132 152.11 164.537 147.679C164.048 144.035 163.972 140.067 166.277 136.989C166.54 136.637 165.363 135.768 165.092 136.132L165.089 136.131Z" fill="#4D5359"/>
<path d="M181.598 199.541C178.476 200.989 175.569 202.971 173.239 205.523C171.002 207.974 169.293 210.937 168.64 214.216C168.03 217.276 168.324 220.543 169.562 223.415C170.17 224.824 171.013 226.134 172.07 227.245C173.254 228.488 174.706 229.43 176.277 230.107C177.986 230.845 179.801 231.289 181.63 231.608C182.544 231.768 183.464 231.897 184.384 232.017C185.339 232.142 186.295 232.271 187.256 232.348C189.304 232.513 191.458 232.394 193.34 231.485C194.817 230.772 195.962 229.598 196.72 228.147C197.453 226.747 197.841 225.182 198.05 223.622C198.279 221.915 198.297 220.169 198.185 218.453C197.95 214.865 197.02 211.259 195.087 208.202C194.179 206.769 193.065 205.476 191.741 204.413C190.453 203.38 188.998 202.573 187.446 202.018C184.141 200.834 180.454 200.999 177.297 202.557C174.465 203.954 172.383 206.457 170.981 209.247C169.493 212.204 168.643 215.519 168.275 218.802C168.069 220.637 168.05 222.522 168.464 224.331C168.878 226.14 169.703 227.673 170.947 228.965C173.613 231.73 177.479 232.773 181.164 233.274C182.216 233.417 183.273 233.526 184.329 233.632C185.253 233.725 186.179 233.814 187.106 233.86C189.088 233.96 191.088 233.855 192.998 233.279C194.787 232.74 196.372 231.737 197.553 230.28C198.62 228.965 199.319 227.376 199.743 225.746C200.573 222.56 200.427 219.151 199.5 216.004C198.573 212.852 196.856 209.926 194.527 207.611C192.116 205.214 189.051 203.58 185.748 202.818C182.199 202.001 178.461 202.18 174.978 203.217C173.324 203.709 171.723 204.416 170.258 205.331C170.213 205.36 170.064 205.442 170.085 205.527C170.105 205.612 170.275 205.621 170.328 205.624C170.649 205.637 171.055 205.557 171.333 205.383C171.696 205.156 172.068 204.941 172.447 204.741C172.529 204.697 172.612 204.654 172.695 204.612C172.745 204.586 172.795 204.561 172.845 204.537C173.01 204.454 172.744 204.585 172.91 204.506C173.095 204.418 173.28 204.332 173.467 204.249C173.655 204.167 173.844 204.088 174.034 204.012C174.129 203.975 174.224 203.939 174.321 203.901C174.425 203.86 174.169 203.957 174.339 203.895C174.408 203.869 174.479 203.845 174.548 203.819C174.741 203.751 174.935 203.686 175.131 203.624C175.219 203.596 175.308 203.569 175.397 203.542C175.451 203.526 175.503 203.509 175.557 203.494C175.587 203.485 175.773 203.428 175.584 203.485C175.993 203.361 176.415 203.268 176.832 203.182C176.868 203.174 176.905 203.166 176.941 203.16C176.747 203.195 176.936 203.161 176.97 203.155C177.07 203.136 177.172 203.117 177.272 203.101C177.483 203.065 177.695 203.031 177.907 203.001C178.017 202.986 178.128 202.972 178.24 202.958C178.277 202.954 178.314 202.949 178.35 202.945C178.187 202.964 178.373 202.942 178.398 202.94C178.62 202.916 178.842 202.897 179.066 202.882C179.261 202.867 179.457 202.857 179.652 202.849C179.755 202.845 179.856 202.842 179.959 202.839C179.948 202.839 180.131 202.835 180.052 202.836C180.013 202.836 180.025 202.836 180.088 202.836C180.125 202.836 180.162 202.836 180.2 202.836C183.508 202.822 186.83 203.658 189.708 205.356C192.472 206.987 194.741 209.385 196.318 212.179C197.878 214.943 198.78 218.091 198.86 221.27C198.941 224.485 198.219 227.954 196.156 230.497C195.901 230.81 195.625 231.104 195.327 231.376C195.054 231.625 194.714 231.895 194.441 232.075C194.263 232.192 194.079 232.303 193.891 232.405C193.805 232.451 193.719 232.497 193.632 232.541C193.731 232.492 193.558 232.576 193.557 232.576C193.495 232.604 193.434 232.633 193.371 232.66C193.273 232.702 193.174 232.744 193.075 232.782C193.056 232.79 192.875 232.856 193.022 232.803C192.986 232.816 192.949 232.829 192.913 232.842C192.804 232.88 192.693 232.916 192.582 232.95C192.544 232.962 192.507 232.972 192.47 232.984C192.389 233.007 192.395 233.005 192.489 232.978C192.452 232.989 192.415 232.999 192.376 233.009C192.282 233.034 192.187 233.057 192.093 233.08C192.037 233.093 191.979 233.106 191.922 233.119C191.891 233.125 191.697 233.168 191.884 233.128C191.673 233.173 191.46 233.204 191.246 233.235C191.188 233.243 191.129 233.25 191.07 233.258C191.052 233.261 190.857 233.283 191.01 233.266C190.912 233.276 190.813 233.286 190.714 233.296C190.476 233.316 190.239 233.332 190 233.342C189.899 233.346 189.8 233.35 189.7 233.352C189.64 233.354 189.581 233.355 189.52 233.356C189.626 233.355 189.429 233.356 189.431 233.356C189.21 233.356 188.989 233.356 188.767 233.35C188.303 233.339 187.839 233.315 187.375 233.283C185.447 233.149 183.509 232.954 181.599 232.66C179.702 232.367 177.805 231.931 176.053 231.126C174.538 230.428 173.119 229.47 172.007 228.216C170.848 226.908 170.128 225.289 169.799 223.58C169.455 221.794 169.509 219.95 169.731 218.153C169.933 216.521 170.265 214.901 170.72 213.322C171.565 210.388 172.874 207.451 174.963 205.188C175.469 204.641 176.019 204.135 176.611 203.685C176.922 203.449 177.134 203.303 177.452 203.108C177.607 203.013 177.765 202.922 177.926 202.833C177.999 202.793 178.072 202.753 178.147 202.715C178.192 202.692 178.237 202.67 178.281 202.647C178.341 202.617 178.341 202.617 178.281 202.647C178.312 202.633 178.341 202.617 178.372 202.603C178.533 202.527 178.695 202.455 178.859 202.388C178.946 202.352 179.034 202.317 179.121 202.283C179.288 202.218 178.985 202.33 179.155 202.27C179.205 202.254 179.254 202.236 179.304 202.218C179.395 202.187 179.486 202.156 179.579 202.127C179.62 202.114 179.662 202.102 179.705 202.089C179.745 202.077 179.91 202.014 179.719 202.083C179.912 202.014 180.126 201.978 180.327 201.935C180.36 201.927 180.395 201.922 180.428 201.915C180.23 201.966 180.401 201.921 180.442 201.913C180.527 201.898 180.613 201.884 180.698 201.869C180.801 201.854 180.904 201.839 181.007 201.826C181.012 201.826 181.182 201.805 181.074 201.817C180.973 201.828 181.175 201.806 181.193 201.805C181.382 201.787 181.572 201.774 181.762 201.766C181.849 201.762 181.936 201.76 182.022 201.759C181.891 201.761 182.063 201.759 182.079 201.759C182.148 201.759 182.217 201.759 182.287 201.76C183.794 201.784 185.299 202.109 186.731 202.689C188.214 203.29 189.596 204.141 190.808 205.187C193.403 207.426 195.072 210.572 195.962 213.856C196.424 215.562 196.685 217.319 196.782 219.083C196.874 220.755 196.845 222.451 196.608 224.112C196.392 225.627 195.987 227.143 195.254 228.493C194.909 229.126 194.49 229.727 193.977 230.235C193.722 230.489 193.445 230.714 193.154 230.926C193.024 231.02 193.226 230.881 193.092 230.968C193.064 230.986 193.037 231.004 193.008 231.023C192.923 231.077 192.839 231.128 192.751 231.177C192.672 231.222 192.592 231.265 192.511 231.307C192.336 231.399 192.606 231.268 192.427 231.349C192.363 231.378 192.299 231.408 192.233 231.435C192.187 231.454 192.139 231.474 192.093 231.493C191.909 231.57 192.219 231.452 192.032 231.518C191.936 231.551 191.841 231.583 191.745 231.613C191.717 231.622 191.525 231.685 191.7 231.627C191.643 231.645 191.583 231.658 191.525 231.672C191.487 231.681 191.447 231.692 191.408 231.701C191.375 231.708 191.118 231.769 191.303 231.725C191.205 231.748 191.104 231.761 191.005 231.777C190.944 231.786 190.885 231.795 190.825 231.803C190.809 231.805 190.609 231.828 190.758 231.812C190.525 231.837 190.29 231.854 190.056 231.864C190.005 231.867 189.953 231.868 189.902 231.87C189.908 231.87 189.707 231.875 189.807 231.872C189.704 231.873 189.6 231.872 189.497 231.872C189.248 231.87 189 231.861 188.752 231.848C188.294 231.823 187.838 231.782 187.383 231.733C185.594 231.54 183.8 231.304 182.034 230.958C180.268 230.613 178.552 230.141 176.949 229.355C175.484 228.637 174.156 227.665 173.078 226.434C171.088 224.161 170.019 221.158 169.798 218.166C169.686 216.645 169.785 215.099 170.116 213.608C170.446 212.118 171.055 210.567 171.821 209.178C173.406 206.31 175.73 203.913 178.393 202.032C179.007 201.599 179.661 201.184 180.337 200.793C180.687 200.591 181.041 200.397 181.4 200.211C181.579 200.119 181.759 200.027 181.94 199.938C181.851 199.982 181.936 199.941 181.951 199.933C182 199.91 182.05 199.885 182.099 199.862C182.198 199.814 182.297 199.768 182.397 199.723C182.508 199.671 182.89 199.46 182.585 199.38C182.28 199.3 181.861 199.416 181.595 199.538L181.598 199.541Z" fill="#4D5359"/>
<path d="M103.252 74.7688C104.863 68.5481 107.17 62.5168 110.085 56.795C112.993 51.0836 116.504 45.6892 120.517 40.6972C124.531 35.7051 129.041 31.1075 133.968 27.0193C138.881 22.9439 144.198 19.3584 149.83 16.3595C155.461 13.3607 161.425 10.9614 167.572 9.25951C168.298 9.05838 169.028 8.86886 169.76 8.68836C170.031 8.62132 170.406 8.42148 170.278 8.07725C170.159 7.76266 169.676 7.64276 169.383 7.71625C163.071 9.28014 156.943 11.5415 151.121 14.445C145.332 17.3317 139.848 20.8127 134.768 24.8223C129.687 28.832 125.004 33.347 120.818 38.2901C116.641 43.2241 112.957 48.5837 109.862 54.2642C106.761 59.9576 104.26 65.9837 102.466 72.2173C102.249 72.9703 102.043 73.7271 101.846 74.4865C101.759 74.8255 102.04 75.0473 102.349 75.1105C102.611 75.1646 103.165 75.1079 103.252 74.7714V74.7688Z" fill="#4D5359"/>
<path d="M107.006 84.0165H116.269C119.344 84.0165 122.42 84.0165 125.495 84.0165C127.231 84.0165 128.966 84.0165 130.701 84.0165C130.949 84.0165 131.363 83.8399 131.265 83.5253C131.161 83.1927 130.688 83.123 130.403 83.123H121.14C118.064 83.123 114.989 83.123 111.913 83.123H106.708C106.46 83.123 106.046 83.2997 106.144 83.6143C106.248 83.9469 106.721 84.0165 107.006 84.0165Z" fill="#4D5359"/>
<path d="M177.842 182.42C180.226 182.251 182.611 182.083 184.995 181.914C185.671 181.867 186.347 181.819 187.023 181.771C187.348 181.748 187.74 181.448 187.802 181.119C187.87 180.755 187.528 180.655 187.243 180.674C184.858 180.843 182.474 181.011 180.09 181.18C179.414 181.227 178.738 181.275 178.062 181.323C177.737 181.346 177.345 181.646 177.283 181.975C177.215 182.339 177.557 182.439 177.842 182.42Z" fill="#4D5359"/>
<path d="M185.156 206.18C182.817 205.985 180.393 206.708 178.525 208.132C176.588 209.607 175.298 211.774 174.87 214.173C174.624 215.546 174.68 216.952 175.01 218.304C175.093 218.646 175.528 218.937 175.872 218.825C176.259 218.7 176.368 218.329 176.28 217.964C176.264 217.899 176.249 217.833 176.233 217.769C176.228 217.746 176.201 217.627 176.222 217.721C176.241 217.809 176.222 217.715 176.218 217.701C176.192 217.56 176.168 217.42 176.147 217.278C176.109 217.004 176.083 216.73 176.07 216.454C176.064 216.321 176.06 216.188 176.06 216.054C176.06 215.987 176.06 215.921 176.061 215.854C176.061 215.826 176.063 215.798 176.063 215.769C176.066 215.585 176.056 215.856 176.063 215.75C176.078 215.474 176.101 215.199 176.14 214.926C176.177 214.653 176.227 214.381 176.289 214.111C176.318 213.981 176.35 213.852 176.386 213.723C176.404 213.659 176.422 213.596 176.442 213.531C176.439 213.54 176.408 213.636 176.433 213.562C176.448 213.517 176.461 213.472 176.476 213.427C176.65 212.903 176.868 212.394 177.132 211.909C177.195 211.792 177.262 211.677 177.33 211.562C177.345 211.537 177.44 211.383 177.404 211.441C177.363 211.506 177.415 211.427 177.42 211.418C177.447 211.378 177.472 211.339 177.499 211.299C177.654 211.071 177.819 210.851 177.996 210.638C178.172 210.425 178.354 210.227 178.547 210.035C178.633 209.948 178.722 209.864 178.812 209.782C178.867 209.732 178.924 209.681 178.979 209.632C178.871 209.728 179.03 209.591 179.061 209.565C179.483 209.221 179.934 208.916 180.409 208.651C180.639 208.524 180.875 208.408 181.112 208.298C181.229 208.245 181.129 208.29 181.106 208.301C181.132 208.29 181.157 208.279 181.183 208.268C181.243 208.243 181.304 208.218 181.365 208.195C181.497 208.143 181.628 208.094 181.761 208.049C182.338 207.851 182.932 207.716 183.536 207.63C183.563 207.626 183.662 207.616 183.532 207.63C183.57 207.626 183.607 207.622 183.644 207.619C183.719 207.611 183.793 207.604 183.868 207.599C184.026 207.588 184.185 207.58 184.345 207.576C184.654 207.57 184.963 207.58 185.271 207.606C185.638 207.637 185.927 207.254 185.887 206.908C185.841 206.516 185.552 206.216 185.158 206.184L185.156 206.18Z" fill="#4D5359"/>
<path d="M0.968007 141.66C0.782932 133.087 2.53986 124.471 6.23879 116.727C9.71152 109.46 14.891 103.074 21.1823 98.0714C27.4736 93.069 34.6427 89.5841 42.3567 87.8294C50.2635 86.0308 58.5752 86.1018 66.4691 87.9325C74.2192 89.7298 81.5438 93.2173 87.7592 98.2055C93.6225 102.911 98.473 108.866 102.011 115.504C105.569 122.178 107.808 129.566 108.414 137.117C109.039 144.895 107.931 152.784 105.348 160.137C102.758 167.509 98.6748 174.363 93.3526 180.08C87.871 185.968 80.9243 190.902 73.0239 192.8C71.078 193.268 69.0898 193.524 67.0886 193.567C67.0064 193.568 66.7455 193.58 66.73 193.702C66.5295 195.244 66.3303 196.786 66.1298 198.328C65.9949 199.367 65.8599 200.408 65.725 201.447C65.6517 202.014 65.6132 202.611 65.4615 203.165C65.2507 203.939 64.806 204.635 64.202 205.16C63.4668 205.799 62.6237 206.016 61.6778 206.11C59.4427 206.332 57.2077 206.553 54.9726 206.777C53.8866 206.885 52.6759 207.153 51.5899 206.969C50.6439 206.807 49.9936 206.114 49.626 205.26C49.0014 203.807 49.0053 202.067 48.8305 200.512C48.0632 193.696 47.2072 186.888 46.3448 180.083C46.1546 178.58 45.7587 177.003 46.454 175.571C46.7831 174.893 47.3036 174.295 47.9347 173.885C48.7007 173.387 49.4962 173.267 50.3908 173.252C53.9663 173.187 57.5393 172.812 61.0377 172.069C67.8996 170.612 74.5687 167.616 79.5542 162.566C84.9278 157.124 87.988 149.476 87.8003 141.811C87.6294 134.84 84.7402 128.011 80.0464 122.892C75.1921 117.599 68.5217 114.463 61.4053 113.798C54.2272 113.126 46.8615 114.975 41.0496 119.303C35.5051 123.431 31.4912 129.574 29.8603 136.298C29.458 137.956 29.2087 139.648 29.1071 141.351L29.2524 141.245C29.2652 141.243 29.3577 141.245 29.2382 141.248C29.1418 141.25 29.0339 141.287 28.9388 141.303C28.5789 141.368 28.2177 141.426 27.8566 141.481C26.5058 141.685 25.1473 141.838 23.7875 141.961C18.6967 142.417 13.5647 142.428 8.46354 142.143C5.80052 141.993 3.14906 141.729 0.493752 141.475C0.410211 141.467 0.0027891 141.459 0.00793008 141.609C0.013071 141.766 0.384506 141.787 0.475759 141.796C9.62026 142.67 18.8689 143.153 28.0005 141.833C28.6393 141.74 29.2806 141.642 29.913 141.511C29.9541 141.502 30.0556 141.464 30.0582 141.405C30.4772 134.379 33.5322 127.631 38.402 122.579C43.5777 117.211 50.6838 114.137 58.1266 113.996C65.6106 113.856 72.9532 116.722 78.2612 122.034C83.2351 127.013 86.4007 133.822 86.8068 140.874C87.2528 148.62 84.3404 156.434 79.0118 162.043C74.0148 167.302 67.2069 170.385 60.1933 171.844C58.3914 172.219 56.5676 172.486 54.7362 172.668C52.9291 172.845 51.1131 172.802 49.3086 172.956C47.8781 173.079 46.5312 173.81 45.7562 175.041C44.9066 176.394 45.1033 177.792 45.2935 179.293C46.1572 186.082 47.0106 192.874 47.7843 199.675C47.9591 201.208 48.0156 202.809 48.3781 204.311C48.7598 205.891 49.6903 207.025 51.3508 207.272C52.2184 207.401 53.091 207.313 53.9586 207.228C55.0947 207.116 56.2322 207.002 57.3683 206.889C58.5045 206.775 59.6419 206.663 60.7781 206.55C61.697 206.458 62.6777 206.454 63.5632 206.167C64.9641 205.71 66.0707 204.582 66.4344 203.139C66.5745 202.581 66.6131 201.986 66.6863 201.417C66.9562 199.334 67.2262 197.251 67.4973 195.168C67.559 194.697 67.6194 194.225 67.6811 193.755C67.5616 193.8 67.4421 193.845 67.3225 193.89C75.5468 193.719 83.2197 189.968 89.4609 184.773C95.6159 179.649 100.551 173.074 103.975 165.836C107.369 158.662 109.313 150.792 109.516 142.849C109.715 135.08 108.184 127.329 105.17 120.176C102.181 113.081 97.7545 106.59 92.2023 101.265C86.4868 95.7842 79.6056 91.6431 72.1049 89.138C64.432 86.5749 56.2232 85.666 48.1788 86.495C40.1769 87.3201 32.4282 89.9593 25.5817 94.1932C18.7853 98.3976 12.8886 104.092 8.54194 110.818C3.83667 118.1 1.0207 126.554 0.227707 135.186C0.0310645 137.321 -0.0383387 139.465 0.00793008 141.609C0.013071 141.854 0.966722 141.877 0.961581 141.66H0.968007Z" fill="#4D5359"/>
<path d="M45.3839 174.097C44.001 175.943 43.893 178.294 44.1269 180.51C44.4032 183.122 44.9675 185.717 45.4173 188.304C46.4069 193.992 47.3966 199.68 48.3849 205.367C48.5507 206.323 48.633 207.416 49.3746 208.126C50.1714 208.888 51.1366 208.783 52.134 208.59C54.6582 208.104 57.2325 207.907 59.7876 207.656C61.8479 207.453 63.9492 207.42 65.3733 205.688C66.192 204.694 66.4143 203.527 66.485 202.286C66.6238 199.87 66.7613 197.454 66.9001 195.036L66.7678 195.138C74.4227 195.454 81.692 192.059 87.671 187.503C93.9648 182.707 99.2896 176.432 103.027 169.446C106.998 162.019 108.785 153.566 108.686 145.167C108.587 136.8 106.666 128.492 103.249 120.867C100.022 113.665 95.4942 107.056 89.8752 101.521C84.0299 95.7622 77.0022 91.2523 69.2958 88.4456C61.3826 85.5628 52.7985 84.4437 44.4302 85.5073C36.6224 86.4988 29.0883 89.3803 22.5515 93.7664C15.9004 98.2286 10.3404 104.22 6.47443 111.253C2.48889 118.502 0.264134 126.733 0.0803442 135.012C0.0353607 137.043 0.117616 139.075 0.316829 141.098C0.345104 141.386 0.726822 141.636 0.996723 141.65C4.11472 141.815 7.23272 141.98 10.3507 142.145C15.2771 142.406 20.2034 142.666 25.1297 142.926C26.2736 142.987 27.4175 143.048 28.5613 143.108C28.6076 143.111 28.6449 143.095 28.6757 143.062C30.4918 138.727 32.4119 134.424 34.5686 130.248C36.7252 126.072 39.2379 121.46 43.163 118.564C50.5788 113.093 61.1333 112.871 69.4732 116.155C73.658 117.802 77.488 120.381 80.4839 123.754C83.7047 127.379 85.9873 131.795 87.2186 136.484C88.4742 141.266 88.7454 146.509 87.3509 151.291C85.9873 155.974 82.7935 159.604 78.8054 162.277C74.6694 165.05 69.9539 166.993 65.3142 168.734C60.2799 170.623 55.1042 172.134 49.8462 173.253C48.462 173.547 47.0714 173.814 45.6756 174.053C45.2875 174.12 45.9558 174.753 46.2232 174.707C54.1955 173.334 62.0085 171.089 69.4835 167.986C75.7966 165.365 82.7253 162.126 86.3497 155.988C90.0461 149.726 89.6464 141.562 87.4358 134.861C85.274 128.307 81.0275 122.529 75.2786 118.707C69.8755 115.117 63.3734 113.192 56.8868 113.374C53.5246 113.468 50.1521 114.128 47.0354 115.407C43.5948 116.817 40.6696 119.027 38.4294 122.007C36.2779 124.868 34.5776 128.082 32.9877 131.28C31.3979 134.479 29.9455 137.704 28.5498 140.971C28.3994 141.324 28.249 141.677 28.0999 142.03C28.0742 142.091 27.9624 142.476 27.9984 142.455C27.9573 142.479 27.8262 142.44 27.7799 142.443C27.4175 142.467 27.0293 142.403 26.6669 142.384C25.2326 142.308 23.7995 142.232 22.3652 142.157C18.1971 141.936 14.0304 141.716 9.86233 141.495C6.88442 141.338 3.90523 141.181 0.92732 141.023C0.767949 141.014 0.609864 141.007 0.450494 140.998C0.676697 141.182 0.9029 141.366 1.13039 141.549C0.323255 133.405 1.53138 125.097 4.56456 117.502C7.52447 110.09 12.2105 103.446 18.2318 98.2209C24.0887 93.1385 31.1138 89.4074 38.5991 87.4142C46.5984 85.2843 55.0592 85.2714 63.1125 87.1318C71.2006 89.0013 78.8144 92.7324 85.2688 97.963C91.3725 102.909 96.4222 109.122 100.198 116.009C104.122 123.167 106.682 131.09 107.549 139.218C108.429 147.479 107.587 155.997 104.594 163.773C101.789 171.057 97.0789 177.634 91.474 183.015C85.9796 188.291 79.1639 192.78 71.5617 194.125C69.7997 194.437 68.0106 194.558 66.2228 194.483C66.1611 194.481 66.0943 194.517 66.0904 194.585C65.9761 196.581 65.8617 198.578 65.7473 200.574C65.7049 201.316 65.7036 202.076 65.6072 202.815C65.3591 204.703 63.9171 206.267 62.0663 206.68C60.8685 206.947 59.5781 206.967 58.3584 207.086C57.1619 207.202 55.9653 207.318 54.7713 207.46C53.7213 207.585 52.6738 207.728 51.634 207.923C51.0068 208.04 50.1136 208.338 49.6689 207.728C49.3771 207.327 49.3424 206.629 49.2602 206.158C48.3399 200.87 47.421 195.583 46.5008 190.296C45.9995 187.417 45.4096 184.536 45.0214 181.639C44.7027 179.258 44.6526 176.664 46.1589 174.653C46.3311 174.423 45.5625 173.855 45.3839 174.092V174.097Z" fill="#4D5359"/>
<path d="M56.1744 215.546C54.1334 216.492 52.2339 217.788 50.7108 219.456C49.2495 221.058 48.1314 222.994 47.7047 225.138C47.3062 227.139 47.4977 229.274 48.3074 231.151C48.7046 232.072 49.2559 232.928 49.9474 233.655C50.7211 234.467 51.6709 235.084 52.6978 235.526C53.816 236.008 55.0023 236.298 56.1975 236.507C56.7952 236.611 57.3967 236.695 57.9982 236.774C58.6228 236.855 59.2474 236.94 59.8759 236.99C61.2151 237.099 62.6225 237.02 63.8525 236.427C64.8177 235.96 65.5657 235.193 66.0618 234.245C66.5412 233.33 66.7944 232.306 66.9319 231.288C67.081 230.173 67.0938 229.032 67.0193 227.909C66.8651 225.564 66.2571 223.207 64.9938 221.208C64.4013 220.271 63.6725 219.425 62.8076 218.732C61.9657 218.057 61.0146 217.529 60.0006 217.165C57.8414 216.392 55.4303 216.5 53.3674 217.517C51.5154 218.431 50.1543 220.066 49.238 221.89C48.2663 223.824 47.7098 225.99 47.4695 228.136C47.3345 229.336 47.3217 230.567 47.5928 231.751C47.855 232.893 48.4025 233.936 49.2161 234.779C50.9589 236.587 53.4857 237.269 55.8942 237.596C56.5818 237.689 57.2733 237.761 57.9635 237.831C58.5675 237.892 59.1729 237.95 59.7795 237.981C61.075 238.045 62.3821 237.977 63.6301 237.6C64.7997 237.248 65.8356 236.592 66.6067 235.64C67.3033 234.781 67.7609 233.743 68.0385 232.676C68.5809 230.594 68.4845 228.366 67.8804 226.309C67.2738 224.248 66.1518 222.336 64.63 220.823C63.0543 219.256 61.0506 218.188 58.8914 217.691C56.5728 217.157 54.1283 217.273 51.8509 217.952C50.77 218.274 49.7238 218.736 48.7663 219.334C48.7367 219.352 48.6403 219.407 48.6532 219.461C48.666 219.516 48.7778 219.523 48.8125 219.525C49.022 219.532 49.2881 219.481 49.4693 219.367C49.7071 219.219 49.95 219.078 50.198 218.947C50.252 218.919 50.306 218.89 50.36 218.863C50.3921 218.846 50.4255 218.831 50.4577 218.814C50.5656 218.76 50.3908 218.845 50.5001 218.794C50.6209 218.737 50.7417 218.68 50.8651 218.626C50.9885 218.572 51.1106 218.52 51.2352 218.471C51.2969 218.447 51.3599 218.424 51.4216 218.399C51.4897 218.372 51.3226 218.435 51.4331 218.394C51.4794 218.377 51.5244 218.36 51.5707 218.345C51.6966 218.3 51.8239 218.257 51.9511 218.217C52.0089 218.199 52.0668 218.181 52.1259 218.163C52.1606 218.153 52.1953 218.142 52.2313 218.132C52.2506 218.127 52.3727 218.09 52.2493 218.127C52.5166 218.046 52.7917 217.986 53.0654 217.93C53.0885 217.925 53.113 217.919 53.1374 217.916C53.0101 217.939 53.1335 217.916 53.1567 217.913C53.2222 217.9 53.2878 217.888 53.3546 217.877C53.4921 217.854 53.6309 217.832 53.7697 217.812C53.8417 217.802 53.915 217.793 53.9869 217.784C54.0113 217.781 54.0358 217.779 54.0589 217.775C53.9522 217.788 54.0743 217.774 54.0897 217.772C54.235 217.757 54.3802 217.744 54.5267 217.735C54.654 217.726 54.7825 217.72 54.9097 217.714C54.9766 217.712 55.0434 217.709 55.1102 217.708C55.1025 217.708 55.2233 217.705 55.1706 217.707C55.1449 217.707 55.1539 217.707 55.1938 217.707C55.2182 217.707 55.2426 217.707 55.267 217.707C57.4301 217.698 59.6009 218.244 61.4825 219.353C63.2895 220.419 64.7727 221.986 65.8035 223.813C66.8342 225.64 67.4126 227.677 67.4653 229.755C67.518 231.855 67.0463 234.123 65.6981 235.786C65.5323 235.991 65.351 236.183 65.1557 236.361C64.9783 236.524 64.7547 236.7 64.5773 236.819C64.4604 236.896 64.3408 236.967 64.2175 237.035C64.1609 237.066 64.1044 237.096 64.0478 237.124C64.1121 237.092 64.0003 237.146 63.999 237.148C63.9591 237.167 63.918 237.185 63.8769 237.203C63.8126 237.231 63.7484 237.257 63.6841 237.283C63.6712 237.288 63.553 237.332 63.6494 237.297C63.625 237.306 63.6018 237.314 63.5774 237.323C63.5054 237.347 63.4335 237.372 63.3602 237.394C63.3358 237.402 63.3114 237.408 63.2869 237.416C63.2343 237.431 63.2381 237.43 63.2998 237.413C63.2754 237.42 63.251 237.426 63.2265 237.433C63.1649 237.449 63.1032 237.464 63.0415 237.479C63.0042 237.488 62.9669 237.496 62.9297 237.505C62.9104 237.509 62.7831 237.537 62.9039 237.511C62.7664 237.541 62.6263 237.562 62.4875 237.581C62.449 237.586 62.4117 237.591 62.3731 237.596C62.3616 237.598 62.233 237.612 62.3333 237.601C62.269 237.608 62.2048 237.614 62.1405 237.621C61.985 237.635 61.8295 237.644 61.674 237.652C61.6084 237.654 61.5429 237.657 61.4786 237.658C61.4388 237.658 61.4002 237.661 61.3604 237.661C61.4298 237.661 61.3 237.661 61.3025 237.661C61.1573 237.661 61.0134 237.661 60.8681 237.657C60.5648 237.649 60.2615 237.634 59.9582 237.613C58.6986 237.525 57.4314 237.398 56.1821 237.206C54.9419 237.015 53.7016 236.73 52.5577 236.203C51.5668 235.746 50.6402 235.121 49.9127 234.301C49.1557 233.446 48.684 232.388 48.4694 231.271C48.2445 230.104 48.2792 228.899 48.4244 227.724C48.5568 226.658 48.7727 225.598 49.0709 224.567C49.6235 222.65 50.4782 220.729 51.8444 219.25C52.1747 218.893 52.5346 218.561 52.9215 218.268C53.1245 218.113 53.2633 218.019 53.4703 217.891C53.5718 217.829 53.6759 217.769 53.78 217.711C53.8276 217.685 53.8764 217.659 53.924 217.633C53.9535 217.618 53.9831 217.604 54.0113 217.588C54.0512 217.569 54.0512 217.569 54.0113 217.588C54.0306 217.579 54.0512 217.569 54.0705 217.56C54.1759 217.511 54.2813 217.463 54.3879 217.419C54.4445 217.396 54.5023 217.373 54.5589 217.351C54.6681 217.308 54.4702 217.382 54.5807 217.343C54.6128 217.332 54.645 217.32 54.6784 217.308C54.7375 217.288 54.7979 217.268 54.8583 217.249C54.8853 217.24 54.9123 217.232 54.9406 217.224C54.9663 217.217 55.0755 217.175 54.9496 217.221C55.0755 217.175 55.2156 217.151 55.3467 217.124C55.3686 217.119 55.3917 217.116 55.4135 217.11C55.2837 217.143 55.3956 217.114 55.4225 217.11C55.4778 217.099 55.5344 217.09 55.5896 217.081C55.6565 217.071 55.7233 217.061 55.7914 217.053C55.7953 217.053 55.9058 217.04 55.8351 217.048C55.7696 217.056 55.9007 217.041 55.9135 217.04C56.0369 217.029 56.1616 217.019 56.2862 217.014C56.3428 217.012 56.3993 217.01 56.4559 217.009C56.3711 217.01 56.4829 217.009 56.4932 217.009C56.5381 217.009 56.5831 217.009 56.6294 217.009C57.6139 217.026 58.5984 217.237 59.534 217.616C60.4697 217.995 61.4066 218.565 62.1996 219.249C63.8962 220.713 64.9873 222.77 65.5683 224.915C65.8703 226.03 66.0412 227.179 66.1042 228.332C66.1646 229.425 66.1453 230.534 65.9911 231.619C65.8497 232.609 65.5862 233.601 65.1056 234.483C64.8806 234.897 64.6069 235.289 64.2714 235.621C64.1044 235.786 63.9231 235.934 63.7329 236.072C63.6481 236.134 63.7805 236.043 63.6918 236.101C63.6738 236.112 63.6558 236.124 63.6378 236.136C63.5826 236.17 63.5273 236.204 63.4694 236.236C63.418 236.266 63.3653 236.294 63.3127 236.321C63.1983 236.381 63.3756 236.295 63.2587 236.348C63.2163 236.368 63.1738 236.387 63.1314 236.405C63.1006 236.418 63.0697 236.43 63.0402 236.442C62.9207 236.493 63.1224 236.415 63.0003 236.458C62.9386 236.48 62.8757 236.5 62.8127 236.52C62.7947 236.525 62.6687 236.567 62.7831 236.529C62.7459 236.54 62.7073 236.549 62.6687 236.558C62.643 236.565 62.6173 236.571 62.5916 236.576C62.5698 236.582 62.4027 236.62 62.5235 236.592C62.4593 236.607 62.3937 236.615 62.3282 236.625C62.2883 236.632 62.2498 236.637 62.2099 236.642C62.1996 236.644 62.0685 236.659 62.1662 236.649C62.0133 236.665 61.8603 236.677 61.7074 236.684C61.674 236.685 61.6406 236.686 61.6071 236.687C61.611 236.687 61.4786 236.69 61.5454 236.69C61.4786 236.69 61.4105 236.69 61.3437 236.69C61.1804 236.689 61.0185 236.682 60.8566 236.673C60.5571 236.656 60.2589 236.629 59.962 236.598C58.7925 236.472 57.6203 236.317 56.4662 236.092C55.3249 235.869 54.19 235.558 53.1425 235.044C52.185 234.574 51.3162 233.939 50.6119 233.134C49.3112 231.649 48.612 229.685 48.4681 227.729C48.3948 226.734 48.4591 225.725 48.6763 224.75C48.9012 223.737 49.2907 222.762 49.7919 221.854C50.8278 219.98 52.347 218.412 54.0872 217.183C54.4882 216.9 54.9162 216.629 55.3583 216.374C55.5871 216.242 55.8184 216.114 56.0536 215.993C56.1706 215.933 56.2875 215.873 56.4058 215.815C56.3479 215.844 56.4032 215.817 56.4135 215.811C56.4456 215.796 56.4777 215.781 56.5099 215.765C56.5741 215.734 56.6397 215.703 56.7039 215.673C56.7759 215.64 57.0265 215.502 56.826 215.449C56.6255 215.396 56.3531 215.472 56.1796 215.554L56.1744 215.546Z" fill="#4D5359"/>
<path d="M4.96387 133.988C6.01649 129.922 7.52408 125.979 9.43009 122.239C11.331 118.505 13.6264 114.979 16.2496 111.716C18.8728 108.453 21.8211 105.448 25.0419 102.776C28.2628 100.105 31.7291 97.7687 35.41 95.809C39.0909 93.8493 42.9891 92.2803 47.0068 91.1677C47.481 91.0361 47.9591 90.9124 48.4372 90.7938C48.6146 90.7499 48.8601 90.6197 48.7752 90.3941C48.6981 90.1878 48.382 90.1104 48.1905 90.1582C44.0648 91.1805 40.0587 92.6581 36.2531 94.5559C32.4694 96.4421 28.8848 98.7176 25.5638 101.339C22.2427 103.96 19.1812 106.911 16.4462 110.142C13.7151 113.366 11.3078 116.871 9.28486 120.584C7.25803 124.306 5.6232 128.243 4.44978 132.319C4.3084 132.811 4.17345 133.305 4.04492 133.801C3.98709 134.023 4.17216 134.168 4.37395 134.209C4.54488 134.244 4.90732 134.206 4.96387 133.987V133.988Z" fill="#4D5359"/>
<path d="M7.41733 140.033H13.4721C15.4822 140.033 17.4924 140.033 19.5025 140.033C20.6361 140.033 21.7709 140.033 22.9045 140.033C23.0665 140.033 23.3376 139.919 23.2734 139.712C23.2053 139.494 22.8968 139.449 22.7104 139.449H7.22326C7.06132 139.449 6.79013 139.564 6.85439 139.77C6.92251 139.988 7.23097 140.033 7.41733 140.033Z" fill="#4D5359"/>
<path d="M53.7192 204.354C55.2769 204.244 56.8359 204.133 58.3936 204.024C58.8358 203.993 59.2779 203.962 59.72 203.93C59.9321 203.914 60.1891 203.718 60.229 203.503C60.2727 203.266 60.0503 203.199 59.864 203.213C58.3062 203.322 56.7472 203.433 55.1895 203.543C54.7474 203.574 54.3053 203.605 53.8632 203.637C53.6511 203.652 53.394 203.848 53.3542 204.064C53.3105 204.301 53.5328 204.368 53.7192 204.354Z" fill="#4D5359"/>
<path d="M58.5005 219.885C56.971 219.757 55.3876 220.23 54.1666 221.16C52.9006 222.124 52.0562 223.54 51.7773 225.109C51.6167 226.006 51.6527 226.924 51.8686 227.809C51.9226 228.032 52.2066 228.223 52.4328 228.149C52.686 228.067 52.7567 227.825 52.6989 227.587C52.6886 227.544 52.6783 227.502 52.6693 227.459C52.6654 227.444 52.6487 227.366 52.6616 227.428C52.6744 227.486 52.6616 227.424 52.659 227.415C52.6423 227.324 52.6256 227.232 52.6128 227.14C52.587 226.962 52.5703 226.781 52.5613 226.601C52.5575 226.514 52.5549 226.427 52.5549 226.34C52.5549 226.296 52.5549 226.253 52.5549 226.21C52.5549 226.192 52.5549 226.173 52.5549 226.155C52.5575 226.035 52.5511 226.211 52.5549 226.142C52.5652 225.961 52.5806 225.782 52.605 225.603C52.6295 225.423 52.6629 225.246 52.7027 225.07C52.722 224.985 52.7438 224.901 52.767 224.816C52.7785 224.774 52.7914 224.732 52.803 224.691C52.8017 224.696 52.7811 224.76 52.7965 224.712C52.8068 224.682 52.8158 224.653 52.8248 224.623C52.9379 224.28 53.0806 223.947 53.2528 223.631C53.2939 223.555 53.3376 223.479 53.3826 223.404C53.3929 223.388 53.4559 223.287 53.4315 223.326C53.4045 223.368 53.4379 223.316 53.4417 223.31C53.4584 223.285 53.4764 223.259 53.4931 223.233C53.5947 223.083 53.7026 222.939 53.817 222.801C53.9314 222.663 54.0509 222.532 54.1769 222.407C54.2334 222.35 54.2913 222.296 54.3491 222.242C54.3851 222.208 54.4224 222.176 54.4584 222.144C54.3877 222.205 54.4918 222.117 54.5123 222.1C54.7874 221.875 55.083 221.676 55.394 221.503C55.5444 221.419 55.6973 221.343 55.8541 221.272C55.93 221.237 55.8657 221.267 55.8503 221.273C55.867 221.266 55.8837 221.259 55.9017 221.251C55.9415 221.235 55.9814 221.219 56.0212 221.202C56.1073 221.169 56.1934 221.137 56.2796 221.107C56.6574 220.978 57.0443 220.889 57.4401 220.834C57.4568 220.831 57.5224 220.825 57.4376 220.834C57.462 220.831 57.4864 220.829 57.5108 220.826C57.5597 220.821 57.6085 220.817 57.6573 220.813C57.7614 220.805 57.8655 220.8 57.9684 220.798C58.1701 220.794 58.3719 220.8 58.5737 220.817C58.8141 220.836 59.003 220.587 58.976 220.361C58.9451 220.104 58.7562 219.908 58.4992 219.887L58.5005 219.885Z" fill="#4D5359"/>
<path d="M273.429 141.66C273.244 133.087 275.001 124.471 278.7 116.727C282.172 109.46 287.352 103.074 293.643 98.0714C299.838 93.1464 307.104 89.5841 314.818 87.8294C322.532 86.0747 331.036 86.1018 338.93 87.9325C346.68 89.7298 354.005 93.2173 360.22 98.2055C366.083 102.911 370.934 108.866 374.472 115.504C378.03 122.178 380.269 129.566 380.875 137.117C381.5 144.895 380.392 152.784 377.809 160.137C375.219 167.509 371.136 174.363 365.814 180.08C360.332 185.968 353.385 190.902 345.485 192.8C343.539 193.268 341.551 193.524 339.55 193.567C339.467 193.568 339.206 193.58 339.191 193.702C338.991 195.244 338.791 196.786 338.591 198.328C338.456 199.367 338.321 200.408 338.186 201.447C338.113 202.014 338.074 202.611 337.922 203.165C337.712 203.939 337.267 204.635 336.663 205.16C335.928 205.799 335.085 206.016 334.139 206.11C331.904 206.332 329.669 206.553 327.434 206.777C326.348 206.885 325.137 207.153 324.051 206.969C323.105 206.807 322.455 206.114 322.087 205.26C321.462 203.807 321.466 202.067 321.291 200.512C320.524 193.696 319.668 186.888 318.806 180.083C318.616 178.58 318.22 177.003 318.915 175.571C319.244 174.893 319.765 174.295 320.396 173.885C321.162 173.387 321.957 173.267 322.852 173.252C326.427 173.187 330 172.812 333.499 172.069C340.361 170.612 347.03 167.616 352.015 162.566C357.389 157.124 360.449 149.476 360.261 141.811C360.09 134.84 357.201 128.011 352.507 122.892C347.653 117.599 340.983 114.463 333.866 113.798C326.688 113.126 319.322 114.975 313.511 119.303C307.966 123.431 303.952 129.574 302.321 136.298C301.919 137.956 301.67 139.648 301.568 141.351L301.713 141.245C301.726 141.243 301.819 141.245 301.699 141.248C301.603 141.25 301.495 141.287 301.4 141.303C301.04 141.368 300.679 141.426 300.318 141.481C298.967 141.685 297.608 141.838 296.248 141.961C291.158 142.417 286.026 142.428 280.924 142.143C278.261 141.993 275.61 141.729 272.955 141.475C272.871 141.467 272.464 141.459 272.469 141.609C272.474 141.766 272.845 141.787 272.937 141.796C282.081 142.67 291.33 143.153 300.461 141.833C301.1 141.74 301.742 141.642 302.374 141.511C302.415 141.502 302.517 141.464 302.519 141.405C302.938 134.379 305.993 127.631 310.863 122.579C316.039 117.211 323.145 114.137 330.588 113.996C338.072 113.856 345.414 116.722 350.722 122.034C355.696 127.013 358.862 133.822 359.268 140.874C359.714 148.62 356.801 156.434 351.473 162.043C346.476 167.302 339.668 170.385 332.654 171.844C330.852 172.219 329.029 172.486 327.197 172.668C325.39 172.845 323.574 172.802 321.77 172.956C320.339 173.079 318.992 173.81 318.217 175.041C317.368 176.394 317.564 177.792 317.754 179.293C318.618 186.082 319.472 192.874 320.245 199.675C320.42 201.208 320.477 202.809 320.839 204.311C321.221 205.891 322.151 207.025 323.812 207.272C324.679 207.401 325.552 207.313 326.42 207.228C327.556 207.116 328.693 207.002 329.829 206.889C330.965 206.775 332.103 206.663 333.239 206.55C334.158 206.458 335.139 206.454 336.024 206.167C337.425 205.71 338.532 204.582 338.895 203.139C339.035 202.581 339.074 201.986 339.147 201.417C339.417 199.334 339.687 197.251 339.958 195.168C340.02 194.697 340.08 194.225 340.142 193.755C340.023 193.8 339.903 193.845 339.783 193.89C348.008 193.719 355.681 189.968 361.922 184.773C368.077 179.649 373.012 173.074 376.436 165.836C379.83 158.662 381.774 150.792 381.977 142.849C382.176 135.08 380.645 127.329 377.631 120.176C374.642 113.081 370.215 106.59 364.663 101.265C358.948 95.7842 352.067 91.6431 344.566 89.138C336.893 86.5749 328.684 85.666 320.64 86.495C312.638 87.3201 304.889 89.9593 298.043 94.1932C291.246 98.3976 285.35 104.092 281.003 110.818C276.298 118.1 273.482 126.554 272.689 135.186C272.492 137.321 272.423 139.465 272.469 141.609C272.474 141.854 273.428 141.877 273.423 141.66H273.429Z" fill="#4D5359"/>
<path d="M317.845 174.097C316.462 175.943 316.354 178.294 316.588 180.51C316.864 183.122 317.428 185.717 317.878 188.304C318.868 193.992 319.857 199.68 320.846 205.367C321.012 206.323 321.094 207.416 321.836 208.126C322.632 208.888 323.598 208.783 324.595 208.59C327.119 208.104 329.693 207.907 332.249 207.656C334.309 207.453 336.41 207.42 337.834 205.688C338.653 204.694 338.875 203.527 338.946 202.286C339.085 199.87 339.222 197.454 339.361 195.036L339.229 195.138C346.884 195.454 354.153 192.059 360.132 187.503C366.426 182.707 371.751 176.432 375.488 169.446C379.459 162.019 381.246 153.566 381.147 145.167C381.048 136.8 379.127 128.492 375.71 120.867C372.483 113.665 367.955 107.056 362.336 101.521C356.491 95.7622 349.463 91.2523 341.757 88.4456C333.844 85.5628 325.259 84.4437 316.891 85.5073C309.083 86.4988 301.549 89.3803 295.012 93.7664C288.361 98.2286 282.801 104.22 278.935 111.253C274.95 118.502 272.725 126.733 272.541 135.012C272.496 137.043 272.579 139.075 272.778 141.098C272.806 141.386 273.188 141.636 273.458 141.65C276.576 141.815 279.694 141.98 282.812 142.145C287.738 142.406 292.664 142.666 297.591 142.926C298.735 142.987 299.878 143.048 301.022 143.108C301.069 143.111 301.106 143.095 301.137 143.062C302.953 138.727 304.873 134.424 307.029 130.248C309.229 125.989 311.699 121.46 315.624 118.564C323.04 113.093 333.594 112.871 341.934 116.155C346.119 117.802 349.949 120.381 352.945 123.754C356.166 127.379 358.448 131.795 359.679 136.484C360.935 141.266 361.206 146.509 359.812 151.291C358.448 155.974 355.254 159.604 351.266 162.277C347.13 165.05 342.415 166.993 337.775 168.734C332.741 170.623 327.565 172.134 322.307 173.253C320.923 173.547 319.532 173.814 318.137 174.053C317.748 174.12 318.417 174.753 318.684 174.707C326.656 173.334 334.469 171.089 341.944 167.986C348.258 165.365 355.186 162.126 358.811 155.988C362.507 149.726 362.107 141.562 359.897 134.861C357.735 128.307 353.488 122.529 347.74 118.707C342.336 115.117 335.834 113.192 329.348 113.374C325.986 113.468 322.613 114.128 319.496 115.407C316.056 116.817 313.131 119.027 310.89 122.007C308.739 124.868 307.039 128.082 305.449 131.28C303.859 134.479 302.406 137.704 301.011 140.971C300.86 141.324 300.71 141.677 300.561 142.03C300.535 142.091 300.423 142.476 300.459 142.455C300.418 142.479 300.287 142.44 300.241 142.443C299.878 142.467 299.49 142.403 299.128 142.384C297.693 142.308 296.26 142.232 294.826 142.157C290.658 141.936 286.491 141.716 282.323 141.495C279.345 141.338 276.366 141.181 273.388 141.023C273.229 141.014 273.071 141.007 272.911 140.998C273.138 141.182 273.364 141.366 273.591 141.549C272.784 133.405 273.992 125.097 277.025 117.502C279.985 110.09 284.671 103.446 290.693 98.2209C296.55 93.1385 303.575 89.4074 311.06 87.4142C319.059 85.2843 327.52 85.2714 335.573 87.1318C343.661 89.0013 351.275 92.7324 357.73 97.963C363.833 102.909 368.883 109.122 372.659 116.009C376.583 123.167 379.143 131.09 380.009 139.218C380.89 147.479 380.048 155.997 377.055 163.773C374.25 171.057 369.54 177.634 363.935 183.015C358.441 188.291 351.625 192.78 344.023 194.125C342.261 194.437 340.472 194.558 338.684 194.483C338.622 194.481 338.555 194.517 338.551 194.585C338.437 196.581 338.323 198.578 338.208 200.574C338.166 201.316 338.165 202.076 338.068 202.815C337.82 204.703 336.378 206.267 334.527 206.68C333.329 206.947 332.039 206.967 330.819 207.086C329.623 207.202 328.426 207.318 327.232 207.46C326.182 207.585 325.135 207.728 324.095 207.923C323.468 208.04 322.575 208.338 322.13 207.728C321.838 207.327 321.803 206.629 321.721 206.158C320.801 200.87 319.882 195.583 318.962 190.296C318.46 187.417 317.871 184.536 317.482 181.639C317.164 179.258 317.114 176.664 318.62 174.653C318.792 174.423 318.023 173.855 317.845 174.092V174.097Z" fill="#4D5359"/>
<path d="M328.635 215.546C326.594 216.492 324.695 217.788 323.172 219.456C321.71 221.058 320.592 222.994 320.166 225.138C319.767 227.139 319.959 229.274 320.768 231.151C321.166 232.072 321.717 232.928 322.408 233.655C323.182 234.467 324.132 235.084 325.159 235.526C326.277 236.008 327.463 236.298 328.658 236.507C329.256 236.611 329.858 236.695 330.459 236.774C331.084 236.855 331.708 236.94 332.337 236.99C333.676 237.099 335.083 237.02 336.313 236.427C337.279 235.96 338.027 235.193 338.523 234.245C339.002 233.33 339.255 232.306 339.393 231.288C339.542 230.173 339.555 229.032 339.48 227.909C339.326 225.564 338.718 223.207 337.455 221.208C336.862 220.271 336.133 219.425 335.269 218.732C334.404 218.038 333.476 217.529 332.462 217.165C330.302 216.392 327.891 216.5 325.828 217.517C323.976 218.431 322.615 220.066 321.699 221.89C320.727 223.824 320.171 225.99 319.93 228.136C319.795 229.336 319.783 230.567 320.054 231.751C320.316 232.893 320.863 233.936 321.677 234.779C323.42 236.587 325.947 237.269 328.355 237.596C329.043 237.689 329.734 237.761 330.424 237.831C331.028 237.892 331.634 237.95 332.24 237.981C333.536 238.045 334.843 237.977 336.091 237.6C337.261 237.248 338.297 236.592 339.068 235.64C339.764 234.781 340.222 233.743 340.499 232.676C341.042 230.594 340.945 228.366 340.341 226.309C339.735 224.248 338.613 222.336 337.091 220.823C335.515 219.256 333.512 218.188 331.352 217.691C329.034 217.157 326.589 217.273 324.312 217.952C323.231 218.274 322.185 218.736 321.227 219.334C321.198 219.352 321.101 219.407 321.114 219.461C321.127 219.516 321.239 219.523 321.273 219.525C321.483 219.532 321.749 219.481 321.93 219.367C322.168 219.219 322.411 219.078 322.659 218.947C322.713 218.919 322.767 218.89 322.821 218.863C322.853 218.846 322.886 218.831 322.919 218.814C323.027 218.76 322.852 218.845 322.961 218.794C323.082 218.737 323.203 218.68 323.326 218.626C323.449 218.572 323.571 218.52 323.696 218.471C323.758 218.447 323.821 218.424 323.883 218.399C323.951 218.372 323.784 218.435 323.894 218.394C323.94 218.377 323.985 218.36 324.032 218.345C324.158 218.3 324.285 218.257 324.412 218.217C324.47 218.199 324.528 218.181 324.587 218.163C324.622 218.153 324.656 218.142 324.692 218.132C324.712 218.127 324.834 218.09 324.71 218.127C324.978 218.046 325.253 217.986 325.526 217.93C325.549 217.925 325.574 217.919 325.598 217.916C325.471 217.939 325.594 217.916 325.618 217.913C325.683 217.9 325.749 217.888 325.816 217.877C325.953 217.854 326.092 217.832 326.231 217.812C326.303 217.802 326.376 217.793 326.448 217.784C326.472 217.781 326.497 217.779 326.52 217.775C326.413 217.788 326.535 217.774 326.551 217.772C326.696 217.757 326.841 217.744 326.988 217.735C327.115 217.726 327.243 217.72 327.371 217.714C327.437 217.712 327.504 217.709 327.571 217.708C327.563 217.708 327.684 217.705 327.632 217.707C327.606 217.707 327.615 217.707 327.655 217.707C327.679 217.707 327.704 217.707 327.728 217.707C329.891 217.698 332.062 218.244 333.943 219.353C335.75 220.419 337.234 221.986 338.264 223.813C339.285 225.62 339.874 227.677 339.926 229.755C339.979 231.855 339.507 234.123 338.159 235.786C337.993 235.991 337.812 236.183 337.617 236.361C337.439 236.524 337.216 236.7 337.038 236.819C336.921 236.896 336.802 236.967 336.678 237.035C336.622 237.066 336.565 237.096 336.509 237.124C336.573 237.092 336.461 237.146 336.46 237.148C336.42 237.167 336.379 237.185 336.338 237.203C336.274 237.231 336.209 237.257 336.145 237.283C336.132 237.288 336.014 237.332 336.11 237.297C336.086 237.306 336.063 237.314 336.038 237.323C335.966 237.347 335.894 237.372 335.821 237.394C335.797 237.402 335.772 237.408 335.748 237.416C335.695 237.431 335.699 237.43 335.761 237.413C335.736 237.42 335.712 237.426 335.687 237.433C335.626 237.449 335.564 237.464 335.502 237.479C335.465 237.488 335.428 237.496 335.391 237.505C335.371 237.509 335.244 237.537 335.365 237.511C335.227 237.541 335.087 237.562 334.948 237.581C334.91 237.586 334.873 237.591 334.834 237.596C334.823 237.598 334.694 237.612 334.794 237.601C334.73 237.608 334.666 237.614 334.601 237.621C334.446 237.635 334.29 237.644 334.135 237.652C334.069 237.654 334.004 237.657 333.94 237.658C333.9 237.658 333.861 237.661 333.821 237.661C333.891 237.661 333.761 237.661 333.763 237.661C333.618 237.661 333.474 237.661 333.329 237.657C333.026 237.649 332.722 237.634 332.419 237.613C331.16 237.525 329.892 237.398 328.643 237.206C327.403 237.015 326.163 236.73 325.019 236.203C324.028 235.746 323.101 235.121 322.374 234.301C321.617 233.446 321.145 232.388 320.93 231.271C320.705 230.104 320.74 228.899 320.885 227.724C321.018 226.658 321.234 225.598 321.532 224.567C322.084 222.65 322.939 220.729 324.305 219.25C324.636 218.893 324.996 218.561 325.382 218.268C325.585 218.113 325.724 218.019 325.931 217.891C326.033 217.829 326.137 217.769 326.241 217.711C326.289 217.685 326.337 217.659 326.385 217.633C326.414 217.618 326.444 217.604 326.472 217.588C326.512 217.569 326.512 217.569 326.472 217.588C326.492 217.579 326.512 217.569 326.531 217.56C326.637 217.511 326.742 217.463 326.849 217.419C326.905 217.396 326.963 217.373 327.02 217.351C327.129 217.308 326.931 217.382 327.042 217.343C327.074 217.332 327.106 217.32 327.139 217.308C327.198 217.288 327.259 217.268 327.319 217.249C327.346 217.24 327.373 217.232 327.402 217.224C327.427 217.217 327.536 217.175 327.411 217.221C327.536 217.175 327.677 217.151 327.808 217.124C327.83 217.119 327.853 217.116 327.874 217.11C327.745 217.143 327.856 217.114 327.883 217.11C327.939 217.099 327.995 217.09 328.051 217.081C328.117 217.071 328.184 217.061 328.252 217.053C328.256 217.053 328.367 217.04 328.296 217.048C328.231 217.056 328.362 217.041 328.374 217.04C328.498 217.029 328.623 217.019 328.747 217.014C328.804 217.012 328.86 217.01 328.917 217.009C328.832 217.01 328.944 217.009 328.954 217.009C328.999 217.009 329.044 217.009 329.09 217.009C330.075 217.026 331.059 217.237 331.995 217.616C332.931 217.995 333.868 218.565 334.661 219.249C336.357 220.713 337.448 222.77 338.029 224.915C338.331 226.03 338.502 227.179 338.565 228.332C338.626 229.425 338.606 230.534 338.452 231.619C338.311 232.609 338.047 233.601 337.567 234.483C337.342 234.897 337.068 235.289 336.732 235.621C336.565 235.786 336.384 235.934 336.194 236.072C336.109 236.134 336.241 236.043 336.153 236.101C336.135 236.112 336.117 236.124 336.099 236.136C336.044 236.17 335.988 236.204 335.93 236.236C335.879 236.266 335.826 236.294 335.774 236.321C335.659 236.381 335.837 236.295 335.72 236.348C335.677 236.368 335.635 236.387 335.592 236.405C335.562 236.418 335.531 236.43 335.501 236.442C335.382 236.493 335.583 236.415 335.461 236.458C335.4 236.48 335.337 236.5 335.274 236.52C335.256 236.525 335.13 236.567 335.244 236.529C335.207 236.54 335.168 236.549 335.13 236.558C335.104 236.565 335.078 236.571 335.053 236.576C335.031 236.582 334.864 236.62 334.984 236.592C334.92 236.607 334.855 236.615 334.789 236.625C334.749 236.632 334.711 236.637 334.671 236.642C334.661 236.644 334.529 236.659 334.627 236.649C334.474 236.665 334.321 236.677 334.168 236.684C334.135 236.685 334.101 236.686 334.068 236.687C334.072 236.687 333.94 236.69 334.006 236.69C333.94 236.69 333.871 236.69 333.805 236.69C333.641 236.689 333.479 236.682 333.317 236.673C333.018 236.656 332.72 236.629 332.423 236.598C331.253 236.472 330.081 236.317 328.927 236.092C327.786 235.869 326.651 235.558 325.603 235.044C324.646 234.574 323.777 233.939 323.073 233.134C321.772 231.649 321.073 229.685 320.929 227.729C320.856 226.734 320.92 225.725 321.137 224.75C321.362 223.737 321.752 222.762 322.253 221.854C323.289 219.98 324.808 218.412 326.548 217.183C326.949 216.9 327.377 216.629 327.819 216.374C328.048 216.242 328.279 216.114 328.515 215.993C328.632 215.933 328.748 215.873 328.867 215.815C328.809 215.844 328.864 215.817 328.874 215.811C328.907 215.796 328.939 215.781 328.971 215.765C329.035 215.734 329.101 215.703 329.165 215.673C329.237 215.64 329.487 215.502 329.287 215.449C329.086 215.396 328.814 215.472 328.64 215.554L328.635 215.546Z" fill="#4D5359"/>
<path d="M277.425 133.988C278.477 129.922 279.985 125.979 281.891 122.239C283.792 118.505 286.087 114.979 288.711 111.716C291.334 108.453 294.282 105.448 297.503 102.776C300.713 100.113 304.19 97.7687 307.871 95.809C311.552 93.8493 315.45 92.2803 319.468 91.1677C319.942 91.0361 320.42 90.9124 320.898 90.7938C321.076 90.7499 321.321 90.6197 321.236 90.3941C321.159 90.1878 320.843 90.1104 320.651 90.1582C316.526 91.1805 312.52 92.6581 308.714 94.5559C304.93 96.4421 301.346 98.7176 298.025 101.339C294.704 103.96 291.642 106.911 288.907 110.142C286.176 113.366 283.769 116.871 281.746 120.584C279.719 124.306 278.084 128.243 276.911 132.319C276.769 132.811 276.634 133.305 276.506 133.801C276.448 134.023 276.633 134.168 276.835 134.209C277.006 134.244 277.368 134.206 277.425 133.987V133.988Z" fill="#4D5359"/>
<path d="M279.879 140.033H285.933C287.943 140.033 289.954 140.033 291.964 140.033C293.097 140.033 294.232 140.033 295.366 140.033C295.528 140.033 295.799 139.919 295.735 139.712C295.667 139.494 295.358 139.449 295.172 139.449H279.683C279.521 139.449 279.25 139.564 279.314 139.77C279.382 139.988 279.691 140.033 279.877 140.033H279.879Z" fill="#4D5359"/>
<path d="M326.18 204.354C327.738 204.244 329.297 204.133 330.855 204.024C331.297 203.993 331.739 203.962 332.181 203.93C332.393 203.914 332.65 203.718 332.69 203.503C332.734 203.266 332.511 203.199 332.325 203.213C330.767 203.322 329.208 203.433 327.65 203.543C327.208 203.574 326.766 203.605 326.324 203.637C326.112 203.652 325.855 203.848 325.815 204.064C325.771 204.301 325.994 204.368 326.18 204.354Z" fill="#4D5359"/>
<path d="M330.961 219.885C329.432 219.757 327.849 220.23 326.628 221.16C325.362 222.124 324.517 223.54 324.238 225.109C324.078 226.006 324.114 226.924 324.33 227.809C324.384 228.032 324.668 228.223 324.894 228.149C325.147 228.067 325.218 227.825 325.16 227.587C325.15 227.544 325.139 227.502 325.13 227.459C325.126 227.444 325.11 227.366 325.123 227.428C325.135 227.486 325.123 227.424 325.12 227.415C325.103 227.324 325.087 227.232 325.074 227.14C325.048 226.962 325.031 226.781 325.022 226.601C325.018 226.514 325.016 226.427 325.016 226.34C325.016 226.296 325.016 226.253 325.016 226.21C325.016 226.192 325.016 226.173 325.016 226.155C325.018 226.035 325.012 226.211 325.016 226.142C325.026 225.961 325.042 225.782 325.066 225.603C325.09 225.423 325.124 225.246 325.164 225.07C325.183 224.985 325.205 224.901 325.228 224.816C325.239 224.774 325.252 224.732 325.264 224.691C325.263 224.696 325.242 224.76 325.257 224.712C325.268 224.682 325.277 224.653 325.286 224.623C325.399 224.28 325.542 223.947 325.714 223.631C325.755 223.555 325.799 223.479 325.844 223.404C325.854 223.388 325.917 223.287 325.892 223.326C325.865 223.368 325.899 223.316 325.903 223.31C325.919 223.285 325.937 223.259 325.954 223.233C326.056 223.083 326.164 222.939 326.278 222.801C326.391 222.664 326.512 222.532 326.638 222.407C326.694 222.35 326.752 222.296 326.81 222.242C326.846 222.208 326.883 222.176 326.919 222.144C326.849 222.205 326.953 222.117 326.973 222.1C327.248 221.875 327.544 221.676 327.855 221.503C328.005 221.419 328.158 221.343 328.315 221.272C328.391 221.237 328.327 221.267 328.311 221.273C328.328 221.266 328.345 221.259 328.363 221.251C328.402 221.235 328.442 221.219 328.482 221.202C328.568 221.169 328.654 221.137 328.74 221.107C329.118 220.978 329.505 220.889 329.901 220.834C329.918 220.831 329.983 220.825 329.899 220.834C329.923 220.831 329.947 220.829 329.972 220.826C330.021 220.821 330.069 220.817 330.118 220.813C330.222 220.805 330.326 220.8 330.429 220.798C330.631 220.794 330.833 220.8 331.035 220.817C331.275 220.836 331.464 220.587 331.437 220.361C331.406 220.104 331.217 219.908 330.96 219.887L330.961 219.885Z" fill="#4D5359"/>
</g>
<defs>
<clipPath id="clip0_561_3372">
<rect width="382" height="238" fill="white"/>
</clipPath>
</defs>
</svg>
