<svg width="175" height="508" viewBox="0 0 175 508" fill="none" xmlns="http://www.w3.org/2000/svg">
<g clip-path="url(#clip0_693_18032)">
<g style="mix-blend-mode:multiply">
<path d="M61.8088 156.204C61.8088 156.204 94.216 162.665 92.8295 155.332C91.4429 147.999 91.3744 133.427 93.731 129.364C96.0876 125.301 110.739 87.4349 99.3721 74.8234C88.0056 62.2066 57.3698 52.855 51.8657 56.4953C46.3617 60.1355 34.8634 63.8709 32.8126 75.1985C30.7618 86.5262 27.9676 99.7241 32.5595 106.186C37.1515 112.653 34.7 119.854 43.6835 130.172C52.6671 140.491 61.8088 156.204 61.8088 156.204Z" fill="#E8E9EB"/>
<path d="M84.0993 159.168C75.0894 159.168 62.4945 156.685 61.7459 156.537L61.593 156.505L61.5139 156.373C61.4243 156.215 52.2826 140.571 43.4255 130.395C38.027 124.192 36.7195 119.12 35.5702 114.64C34.7847 111.586 34.1046 108.944 32.2857 106.382C27.8941 100.2 30.1295 88.006 32.0959 77.249L32.4808 75.1303C34.152 65.9055 42.0495 61.5889 47.8119 58.44C49.2406 57.6581 50.5902 56.9237 51.6816 56.1998C54.4546 54.3665 63.2379 55.5817 73.5394 59.2325C84.8163 63.2268 94.5696 68.9646 99.6307 74.5861C110.807 86.9969 96.9894 124.435 94.0266 129.528C91.6858 133.56 91.8334 148.2 93.1672 155.259C93.3254 156.093 93.1092 156.807 92.524 157.388C91.206 158.698 87.9848 159.158 84.0993 159.158V159.168ZM62.0253 155.893C64.1552 156.305 88.085 160.838 92.039 156.907C92.4608 156.49 92.6084 155.993 92.4924 155.391C91.1111 148.068 90.9793 133.417 93.4361 129.19C96.3621 124.155 110.064 87.1976 99.1193 75.0511C88.0323 62.746 57.6126 53.0985 52.0506 56.781C50.9382 57.5154 49.578 58.2604 48.1335 59.0476C42.4871 62.1331 34.7583 66.3546 33.1451 75.2571L32.7602 77.3758C30.8148 88.0007 28.6111 100.036 32.834 105.985C34.7267 108.654 35.4542 111.48 36.2239 114.471C37.3574 118.877 38.6385 123.864 43.9369 129.946C52.3986 139.667 61.108 154.339 62.02 155.893H62.0253Z" fill="#E8E9EB"/>
</g>
<path d="M34.4309 330.969C34.4309 330.969 94.4952 352.832 114.223 348.209L124.593 399.59C124.593 399.59 123.481 404.942 105.978 403.299C88.4798 401.656 51.7443 398.021 45.518 396.985C39.2917 395.955 11.002 378.578 11.002 378.578L34.4309 330.974V330.969Z" fill="#E8E9EB"/>
<path d="M112.115 403.955C110.322 403.955 108.277 403.859 105.947 403.643C88.5119 402.005 51.6551 398.354 45.4657 397.329C39.2447 396.299 11.983 379.582 10.8232 378.874L10.5596 378.71L34.2626 330.547L34.5526 330.653C35.0956 330.848 83.9094 348.51 107.586 348.51C110.085 348.51 112.299 348.315 114.15 347.882L114.493 347.802L124.947 399.601L124.931 399.67C124.889 399.871 123.882 403.96 112.12 403.96L112.115 403.955ZM11.4453 378.446C14.3396 380.216 39.8036 395.691 45.5764 396.648C51.75 397.673 88.5857 401.323 106.01 402.956C121.884 404.446 124.035 400.124 124.241 399.575L113.955 348.621C105.62 350.413 89.7719 348.067 66.8386 341.658C50.859 337.188 36.7721 332.179 34.6053 331.397L11.4453 378.452V378.446Z" fill="#E8E9EB"/>
<g style="mix-blend-mode:multiply">
<path d="M73.4761 31.2834L81.8744 32.2661L83.8989 0.34375H73.1123L73.4761 31.2834Z" fill="#E8E9EB"/>
<path d="M82.191 32.6462L73.139 31.5895L72.7646 0H84.263L82.191 32.6462ZM73.8138 30.9766L81.5584 31.8801L83.5354 0.68156H73.4553L73.8138 30.9766Z" fill="#E8E9EB"/>
</g>
<g style="mix-blend-mode:multiply">
<path d="M109.347 41.6342L113.222 46.5847L134.647 18.2445L122.833 12.7656L109.347 41.6342Z" fill="#E8E9EB"/>
<path d="M113.227 47.1441L108.946 41.6757L109.036 41.4855L122.669 12.3105L135.175 18.1064L113.227 47.1441ZM109.742 41.5859L113.217 46.024L134.115 18.3759L122.996 13.2246L109.742 41.5912V41.5859Z" fill="#E8E9EB"/>
</g>
<g style="mix-blend-mode:multiply">
<path d="M132.787 60.7543L134.627 65.1976L164.63 54.7682L162.189 45.1523L132.787 60.7543Z" fill="#E8E9EB"/>
<path d="M134.432 65.6302L132.354 60.5952L162.41 44.6445L165.036 54.9895L134.432 65.6302ZM133.219 60.9122L134.817 64.7743L164.219 54.5509L161.962 45.6589L133.219 60.9069V60.9122Z" fill="#E8E9EB"/>
</g>
<g style="mix-blend-mode:multiply">
<path d="M23.888 187.186C23.888 187.186 46.8319 181.469 50.8861 183.397C54.935 185.326 59.8222 233.532 59.8222 233.532C59.8222 233.532 52.1514 256.615 54.2022 259.204C56.253 261.793 52.1461 276.755 52.9475 277.564C53.7541 278.372 66.8182 285.774 78.1425 284.95C89.4669 284.126 100.032 278.641 100.032 278.641L98.9776 269.063C98.9776 269.063 114.873 259.114 117.736 253.804C120.598 248.489 136.783 205.17 138.001 193.135C139.219 181.094 174.647 198.032 174.647 198.032C174.647 198.032 172.528 242.973 166.586 259.489C160.645 276.005 130.562 348.657 125.501 349.27C120.44 349.883 75.3483 353.555 60.0489 344.452C44.7494 335.348 34.2317 327.492 34.5111 321.173C34.7906 314.854 28.0582 264.302 28.0582 264.302L19.8232 231.614L23.888 187.196V187.186Z" fill="#E8E9EB"/>
<path d="M99.5309 350.855C84.8113 350.855 68.0252 349.593 59.8693 344.737C41.6017 333.869 33.9151 326.816 34.1629 321.147C34.437 314.928 27.7837 264.841 27.7152 264.339L19.4697 231.63L23.5608 186.911L23.7981 186.853C24.7418 186.62 46.9107 181.126 51.0229 183.086C55.1298 185.041 59.6479 228.539 60.154 233.495V233.569L60.1382 233.638C57.0804 242.847 53.0421 257.196 54.4602 258.993C55.8257 260.715 54.7502 266.976 53.8803 272.006C53.4796 274.325 53.0315 276.956 53.2055 277.358C54.1228 278.267 67.1342 285.404 78.1106 284.607C88.3753 283.856 98.1232 279.202 99.6627 278.441L98.6083 268.883L98.7928 268.767C98.951 268.667 114.646 258.808 117.429 253.635C120.371 248.172 136.446 205.054 137.653 193.093C137.822 191.449 138.597 190.224 139.973 189.452C147.923 184.972 173.698 197.193 174.789 197.716L174.995 197.816L174.984 198.043C174.963 198.492 172.791 243.227 166.902 259.6C161.588 274.373 131.037 348.937 125.538 349.603C122.021 350.026 111.451 350.855 99.5309 350.855ZM20.1656 231.577L28.39 264.213C28.6747 266.315 35.1277 314.902 34.8483 321.184C34.553 327.946 47.5064 336.59 60.2226 344.156C74.8156 352.837 117.635 349.873 125.459 348.927C129.977 348.383 159.342 278.615 166.264 259.373C171.905 243.697 174.12 201.736 174.294 198.244C171.805 197.076 147.596 185.949 140.31 190.055C139.129 190.72 138.481 191.74 138.338 193.167C137.126 205.186 120.988 248.484 118.036 253.968C115.294 259.051 101.202 268.064 99.3411 269.242L100.401 278.842L100.195 278.948C100.09 279.001 89.4349 284.469 78.1739 285.293C72.1479 285.737 65.7688 283.851 61.4826 282.192C56.7588 280.364 53.1949 278.293 52.7099 277.812C52.3145 277.416 52.5096 276.042 53.2213 271.9C53.9752 267.525 55.1087 260.911 53.9383 259.426C51.8558 256.789 58.5882 236.189 59.4792 233.5C57.518 214.2 53.5851 185.067 50.7434 183.715C47.0636 181.966 26.645 186.874 24.2146 187.471L20.1762 231.588L20.1656 231.577Z" fill="#E8E9EB"/>
</g>
<path d="M50.3792 256.769C53.0152 258.1 55.5405 259.627 58.1132 261.08C60.6333 262.501 63.2693 264.007 66.0582 264.81C68.8577 265.619 71.81 265.629 74.7043 265.571C77.546 265.513 80.3823 265.598 83.1923 265.085C88.7121 264.071 93.8313 261.35 98.4232 258.211C100.59 256.732 102.852 255.216 104.549 253.187C106.221 251.19 107.549 248.949 109.263 246.984C110.143 245.975 111.034 244.955 111.74 243.814C112.473 242.625 112.99 241.283 113.454 239.973C114.419 237.273 115.051 234.468 116.042 231.778C116.559 230.378 117.255 229.073 117.867 227.715C118.483 226.347 119.037 224.947 119.538 223.531C120.524 220.736 121.314 217.878 122.179 215.041C122.617 213.603 123.075 212.172 123.581 210.756C123.935 209.768 124.362 208.801 124.625 207.781C125.052 206.133 125.221 204.416 125.39 202.725C125.68 199.835 125.722 196.179 127.641 193.812C128.643 192.575 130.092 192.079 131.632 191.941C134.468 191.688 137.315 191.593 140.162 191.651C143.035 191.714 145.908 191.931 148.745 192.396C151.386 192.829 153.906 193.569 156.479 194.287C158.445 194.837 160.686 195.275 162.268 196.66C164.155 198.308 164.593 201.076 164.703 203.459C164.83 206.196 164.672 208.975 164.593 211.712C164.508 214.539 164.118 217.344 163.528 220.107C162.357 225.592 160.459 230.875 158.73 236.195C157.855 238.895 157.017 241.611 156.337 244.363C155.625 247.248 155.04 250.149 154.217 253.007C153.389 255.887 152.462 258.74 151.623 261.619C150.764 264.557 150.147 267.531 149.404 270.495C149.024 272.022 148.602 273.538 148.191 275.055C147.801 276.508 147.485 277.992 146.973 279.408C146.024 282.024 144.612 284.438 143.668 287.059C142.671 289.838 141.944 292.701 141.074 295.523C140.199 298.36 139.05 301.033 137.763 303.707C135.122 309.196 132.054 314.464 129.386 319.937C126.977 324.883 125.11 330.071 122.664 335C121.473 337.404 120.107 339.676 118.589 341.885C117.213 343.877 115.874 345.921 114.181 347.665C112.489 349.403 110.57 350.454 108.203 350.967C105.772 351.49 103.242 351.537 100.769 351.405C98.0278 351.257 95.4709 350.201 92.74 350.016C89.7665 349.815 86.8564 349.593 83.9093 349.123C80.8884 348.642 77.8518 348.626 74.7992 348.547C71.694 348.468 68.7522 348.035 65.7261 347.369C60.2168 346.159 54.7339 344.785 49.4302 342.846C44.4587 341.029 39.445 338.762 35.143 335.634C31.1784 332.75 28.3737 328.766 26.9555 324.074C25.4741 319.182 24.9679 314.025 24.1613 308.99C23.6605 305.852 23.2282 302.703 22.6535 299.575C22.0841 296.463 21.8416 293.362 21.6097 290.213C21.383 287.127 20.9559 284.105 20.2389 281.099C19.5483 278.204 18.6942 275.351 18.0036 272.461C16.5538 266.406 16.2269 260.119 15.4783 253.948C14.7191 247.713 13.6752 241.521 12.9213 235.292C12.1727 229.11 11.8511 222.955 11.8617 216.731C11.8722 210.724 11.8564 204.722 11.8248 198.715C11.8142 196.57 11.8406 194.393 12.4363 192.311C13.0795 190.045 14.4344 188.153 16.1584 186.579C18.0616 184.841 20.3707 183.536 22.8486 182.838C25.4582 182.104 28.2735 181.845 30.957 181.517C32.3593 181.343 33.767 181.195 35.1746 181.084C36.0709 181.015 37.0093 180.883 37.895 181.1C39.1234 181.396 39.9827 182.231 40.6048 183.345C42.1759 186.156 42.276 189.765 42.3604 192.903C42.4869 197.394 42.5607 201.874 42.8823 206.36C43.3146 212.314 44 218.263 45.0439 224.144C46.0983 230.098 47.0683 236.111 48.4338 242.007C49.736 247.634 52.2613 252.88 53.4738 258.523C53.8007 260.029 56.1046 259.39 55.7777 257.884C55.1345 254.899 54.0959 252.035 53.0784 249.161C52.0609 246.281 51.1805 243.397 50.5215 240.411C49.8414 237.321 49.3037 234.198 48.7501 231.076C48.2229 228.085 47.6113 225.105 47.1105 222.11C46.1088 216.108 45.4814 210.042 45.1177 203.967C44.8593 199.729 44.9173 195.481 44.6854 191.244C44.5061 187.942 44.1687 184.117 42.1706 181.354C41.2269 180.049 39.8983 179.055 38.2956 178.738C37.2992 178.543 36.3239 178.601 35.3169 178.675C33.8619 178.786 32.4068 178.939 30.957 179.119C28.1944 179.462 25.3212 179.732 22.6166 180.418C20.0228 181.079 17.6187 182.331 15.5257 183.985C13.5698 185.533 11.8458 187.477 10.8231 189.775C9.89518 191.873 9.54723 194.124 9.45761 196.406C9.35744 198.984 9.45761 201.578 9.45761 204.157C9.45761 207.385 9.46815 210.613 9.46815 213.841C9.46815 220.255 9.56305 226.595 10.259 232.978C10.9549 239.376 12.0304 245.716 12.8528 252.098C13.264 255.295 13.6067 258.502 13.9652 261.709C14.3132 264.837 14.6031 267.986 15.241 271.071C16.501 277.152 18.631 282.98 19.1423 289.209C19.4007 292.379 19.5167 295.565 20.0702 298.709C20.6343 301.895 21.1457 305.086 21.6413 308.282C22.4584 313.534 23.0173 318.928 24.4566 324.058C25.8431 328.988 28.5055 333.357 32.4911 336.601C36.635 339.972 41.6118 342.334 46.5411 344.304C51.9081 346.45 57.4964 347.966 63.1217 349.25C66.1057 349.931 69.0791 350.629 72.1421 350.835C75.2843 351.051 78.4475 350.919 81.5843 351.226C84.6632 351.527 87.6788 352.145 90.7735 352.33C92.2497 352.415 93.6468 352.488 95.086 352.832C96.5148 353.175 97.9224 353.561 99.3933 353.709C101.882 353.963 104.433 353.931 106.916 353.603C109.352 353.281 111.788 352.647 113.797 351.168C115.837 349.662 117.424 347.681 118.895 345.625C120.418 343.501 121.931 341.346 123.218 339.069C125.98 334.187 127.926 328.903 130.219 323.794C132.697 318.268 135.807 313.043 138.507 307.622C139.909 304.806 141.348 301.974 142.429 299.015C143.462 296.194 144.2 293.277 145.081 290.408C145.94 287.619 147.121 285.051 148.313 282.399C149.562 279.614 150.232 276.687 151.022 273.755C151.84 270.717 152.451 267.632 153.268 264.594C154.075 261.593 155.029 258.639 155.925 255.665C157.639 249.964 158.725 244.115 160.517 238.436C162.252 232.951 164.25 227.541 165.557 221.93C166.87 216.298 167.134 210.56 167.113 204.791C167.102 202.096 166.823 199.211 165.452 196.829C164.292 194.81 162.294 193.637 160.159 192.887C157.902 192.095 155.514 191.445 153.194 190.874C150.337 190.172 147.411 189.738 144.48 189.495C141.554 189.247 138.617 189.199 135.681 189.305C133.382 189.39 130.788 189.305 128.627 190.203C125.29 191.587 124.024 195.001 123.502 198.34C122.98 201.652 123.112 205.198 121.921 208.368C119.775 214.095 118.51 220.139 116.116 225.771C115.531 227.155 114.809 228.471 114.234 229.861C113.659 231.239 113.195 232.655 112.763 234.082C111.941 236.819 111.292 239.746 109.879 242.255C109.22 243.423 108.335 244.416 107.46 245.42C106.542 246.472 105.693 247.56 104.892 248.706C104.154 249.768 103.432 250.846 102.578 251.818C101.697 252.822 100.68 253.646 99.6094 254.439C95.0228 257.847 89.988 260.938 84.4102 262.38C81.5896 263.109 78.8271 263.104 75.938 263.167C73.0015 263.231 69.9964 263.378 67.1231 262.644C64.3553 261.936 61.772 260.425 59.2994 259.036C56.7267 257.588 54.2014 256.061 51.5654 254.724C50.1946 254.032 48.9821 256.098 50.3581 256.795L50.3792 256.769Z" fill="#4D5359"/>
<path d="M59.5371 254.539C58.2929 254.539 57.054 254.74 55.8098 254.677C54.7026 254.624 54.186 254.243 53.8697 253.166C53.2686 251.126 53.4215 248.865 53.3266 246.757C53.1368 242.636 52.7889 237.796 54.8872 234.066C55.3564 233.236 55.9574 232.476 56.7271 231.905C57.5759 231.276 58.0926 231.128 59.1153 230.933C60.2119 230.727 61.3243 230.6 62.4262 230.452C63.6756 230.283 64.9251 229.934 66.1851 229.908C68.8791 229.855 71.647 231.757 73.4236 233.643C75.1581 235.482 75.7222 237.854 75.9068 240.316C76.1124 243.085 75.9173 245.869 75.7222 248.632C75.543 251.158 75.4797 253.652 75.4481 256.182C75.4376 257.059 75.3954 257.963 74.9894 258.755C74.4411 259.823 73.3815 260.742 72.364 261.339C69.7701 262.855 66.7387 261.682 64.3874 260.251C59.5635 257.313 56.6269 252.172 56.7324 246.487C56.7745 244.284 57.1805 242.208 58.43 240.374C59.3315 239.048 60.6811 237.743 62.1467 237.162C62.7952 236.908 63.4226 236.797 63.9287 236.961C64.4137 237.115 64.8197 237.484 65.1571 238.118C66.0955 239.878 66.1113 242.435 65.9795 244.379C65.9215 245.24 65.8108 246.329 65.2467 247.031C65.0253 247.306 64.651 247.523 64.3716 247.655C64.2977 247.692 64.1923 247.708 64.1132 247.729C64.1501 247.718 64.3241 247.687 64.0763 247.729C63.9445 247.75 64.0131 247.665 64.0763 247.739C63.9656 247.602 64.0078 247.697 64.0658 247.75C64.0131 247.708 63.9551 247.65 63.9129 247.597C64.0236 247.739 63.8127 247.428 63.7705 247.354C63.6704 247.169 63.5386 246.746 63.4542 246.403C63.2644 245.61 63.1906 244.812 63.1379 243.999C63.0904 243.317 63.0746 242.636 63.0272 241.954C62.5211 242.34 62.0202 242.725 61.5141 243.111C62.6265 243.349 63.4331 244.839 63.9761 245.88C64.7459 247.359 65.3152 248.944 65.795 250.545C67.1552 255.094 66.8547 259.923 68.1516 264.483C68.4837 265.645 70.1023 265.597 70.4555 264.483C71.5626 261.006 71.5046 257.434 70.8245 253.879C70.2182 250.703 69.1902 247.623 68.6103 244.437C67.9934 241.066 67.1815 235.45 63.0114 234.753C61.4719 234.494 59.8165 234.969 58.9255 236.317C58.1611 237.479 58.1453 238.948 58.3351 240.279C58.7252 243.021 60.117 246.022 62.1415 247.94C63.1115 248.86 64.4612 249.626 65.8003 249.066C67.461 248.368 67.8406 246.302 68.0514 244.717C68.1358 244.073 67.4399 243.523 66.8547 243.518C66.1377 243.513 65.7423 244.078 65.6579 244.717C65.6158 245.013 65.5525 245.309 65.484 245.6C65.4418 245.763 65.3943 245.927 65.3416 246.091C65.2625 246.345 65.3152 246.197 65.2573 246.323C65.2045 246.434 64.8619 246.942 65.0569 246.699C64.9989 246.773 64.9198 246.857 64.8408 246.915C65.1202 246.714 64.8513 246.931 64.7933 246.915C65.078 247.005 64.8249 246.741 64.8039 246.889C64.7722 247.1 65.0464 246.72 64.8355 246.873C64.8355 246.873 64.7195 246.873 64.7037 246.868C64.709 246.868 65.02 246.926 64.8197 246.878C64.7248 246.857 64.6352 246.825 64.5455 246.794C64.8513 246.894 64.3926 246.693 64.2661 246.619C64.2134 246.588 63.9234 246.355 64.1501 246.54C64.05 246.461 63.9551 246.376 63.8654 246.287C62.2944 244.818 61.2136 242.546 60.7549 240.337C60.6389 239.777 60.5968 239.561 60.6179 238.879C60.6179 238.758 60.6284 238.641 60.6389 238.52C60.66 238.235 60.6126 238.61 60.6548 238.404C60.6864 238.256 60.8973 237.659 60.776 237.907C60.834 237.786 61.1398 237.352 60.9553 237.574C61.0185 237.5 61.0871 237.421 61.1662 237.363C61.124 237.395 61.0923 237.4 61.2769 237.294C61.3718 237.241 61.5774 237.157 61.3612 237.236C61.4825 237.188 61.609 237.157 61.7355 237.125C61.783 237.109 61.8357 237.104 61.8884 237.093C62.0729 237.062 61.6986 237.109 61.8937 237.093C62.0729 237.078 62.2786 237.062 62.4473 237.083C63.8443 237.236 64.6352 238.805 65.0833 240.02C65.6632 241.59 65.9637 243.243 66.2589 244.886C66.7914 247.84 67.7035 250.703 68.3309 253.636C69.0637 257.065 69.2166 260.467 68.1411 263.843H70.4449C69.0847 259.051 69.4011 253.979 67.8722 249.214C67.3028 247.444 66.6227 245.668 65.6948 244.052C64.904 242.689 63.7758 241.146 62.1415 240.797C61.435 240.644 60.5704 241.13 60.6284 241.954C60.7655 243.809 60.7075 245.742 61.2821 247.533C61.5668 248.421 62.0255 249.34 62.8637 249.811C63.8285 250.349 64.9462 250.106 65.853 249.573C68.2939 248.141 68.489 244.976 68.3678 242.43C68.2623 240.115 68.0145 237.252 66.2009 235.588C62.6581 232.344 57.7288 236.755 55.9363 239.83C54.5339 242.229 54.1912 245.166 54.36 247.903C54.5603 251.126 55.5936 254.307 57.4336 256.97C61.0396 262.184 69.0268 267.262 74.8524 262.47C75.9331 261.582 76.8768 260.525 77.3829 259.204C77.8258 258.042 77.8416 256.753 77.8311 255.527C77.81 252.532 78.063 249.568 78.2423 246.577C78.4268 243.465 78.5375 240.263 77.8521 237.199C77.1562 234.071 75.2741 231.715 72.6855 229.892C71.3781 228.973 69.9019 228.201 68.3519 227.784C66.5225 227.293 64.8091 227.662 62.9903 227.969C60.6811 228.355 58.0504 228.27 55.989 229.517C51.3338 232.333 50.7802 238.536 50.8224 243.444C50.8435 245.837 50.9384 248.247 51.086 250.635C51.1756 252.093 51.3338 253.646 52.0086 254.967C52.6782 256.267 53.8327 256.864 55.2457 257.028C56.6744 257.191 58.0978 256.938 59.5213 256.933C61.0607 256.933 61.0607 254.534 59.5213 254.539H59.5371Z" fill="#4D5359"/>
<path d="M70.9032 236.999C73.9504 239.704 77.6883 242.404 79.3226 246.277C80.1661 248.268 79.9921 250.181 79.3226 252.194C78.5476 254.519 77.5037 256.854 77.936 259.358C78.1627 260.674 80.435 260.383 80.2821 259.041C79.8867 255.565 81.1678 252.3 82.0219 248.987C82.9339 245.468 83.1343 241.997 81.5421 238.642C80.9411 237.379 79.0537 238.293 79.3595 239.567C80.1345 242.848 80.725 246.203 80.6775 249.584C80.6353 252.738 79.9974 256.415 77.256 258.376C76.0118 259.263 77.2085 261.34 78.4633 260.447C81.7688 258.085 82.897 254.144 83.0499 250.239C83.2028 246.44 82.5333 242.615 81.6634 238.933L79.4808 239.857C80.9464 242.943 80.3296 246.203 79.4491 249.357C78.5687 252.516 77.5143 255.723 77.8939 259.047L80.2399 258.73C80.0396 257.583 80.4403 256.357 80.7882 255.279C81.1836 254.059 81.6739 252.865 81.9955 251.623C82.5596 249.431 82.3277 247.217 81.4209 245.156C79.6231 241.057 75.8483 238.204 72.5955 235.313C71.4462 234.294 69.7486 235.984 70.9032 237.009V236.999Z" fill="#4D5359"/>
<path d="M63.132 259.728C63.3271 258.486 63.1584 257.297 62.7946 256.103C62.473 255.068 62.0671 254.053 61.9142 252.97C61.8246 252.347 61.0021 251.951 60.4433 252.136C59.7632 252.357 59.5154 252.944 59.6103 253.61C59.7579 254.624 60.1217 255.58 60.4327 256.547C60.5856 257.033 60.7069 257.519 60.8123 258.016C60.8703 258.296 60.8018 257.831 60.8229 258.095C60.8334 258.227 60.844 258.359 60.8492 258.497C60.8492 258.634 60.8492 258.766 60.8492 258.904C60.8492 258.972 60.8387 259.041 60.8334 259.11C60.8545 258.962 60.8545 258.956 60.8334 259.099C60.7332 259.717 60.9916 260.42 61.6664 260.573C62.241 260.705 63.0319 260.399 63.1373 259.738L63.132 259.728Z" fill="#4D5359"/>
<path d="M53.1105 233.771C51.6027 234.125 50.4429 235.06 50 236.576C49.6099 237.897 49.7892 239.323 49.7259 240.676C49.6679 241.896 51.3655 242.261 51.956 241.278C52.9049 239.704 53.701 238.071 53.2054 236.201C53.0156 235.482 52.0983 235.065 51.4499 235.482C47.5327 238.034 45.2394 242.478 44.0585 246.895C42.8722 251.322 42.577 256.299 43.9741 260.716C44.301 261.741 45.5715 261.847 46.1567 261.001C48.1443 258.132 48.255 254.413 48.6715 251.063C48.8771 249.42 49.2672 247.846 49.7523 246.266C50.3216 244.401 50.9965 242.578 52.1036 240.967C51.3602 240.766 50.6169 240.565 49.8735 240.364C50.1318 243.582 48.9456 246.683 48.2866 249.79C47.6171 252.934 47.1321 256.109 46.7156 259.295C46.3887 261.804 46.0249 264.325 45.814 266.85C45.619 269.148 45.4872 271.7 46.3518 273.888C46.7314 274.844 47.9387 275.087 48.5344 274.173C50.9068 270.538 52.0878 266.316 53.6588 262.306C54.302 260.668 54.8661 259.004 55.4777 257.356C56.0418 255.829 56.685 254.196 57.8396 253.013C57.1595 252.733 56.4794 252.447 55.7993 252.167C55.3195 257.102 52.2776 261.387 50.9965 266.11C50.3322 268.567 49.6574 271.283 49.6943 273.835C49.7101 275.039 49.942 276.45 51.0017 277.19C52.0667 277.929 53.6008 277.697 54.5973 276.931C55.736 276.054 56.4372 274.638 57.0329 273.364C57.7921 271.753 58.4195 270.089 59.0627 268.43C59.6953 266.813 60.5336 265.286 61.0924 263.627C61.8727 261.313 62.305 258.782 63.8022 256.79L61.6196 255.866C60.1487 260.314 58.3615 264.694 57.6076 269.344C56.859 273.956 57.7078 278.907 55.8784 283.303L58.2244 283.62C58.5407 277.417 58.1981 271.204 58.3615 265.001C58.4669 261.028 58.6093 256.759 57.3809 252.928C56.7693 251.026 55.7307 249.246 53.7748 248.532C53.39 248.39 52.8838 248.554 52.6097 248.839C47.8596 253.863 48.9667 261.366 46.1989 267.289C46.9423 267.489 47.6856 267.69 48.429 267.891C48.3341 264.33 49.0827 260.843 49.5097 257.324C49.9579 253.652 49.6205 249.985 49.7944 246.308C49.8472 245.146 48.0968 244.644 47.5644 245.706C44.9969 250.841 44.2377 256.378 43.6367 262.021C43.2307 265.83 42.8564 269.724 43.4153 273.539C43.6894 275.414 44.2641 277.316 45.8246 278.511C46.2094 278.806 46.9633 278.69 47.2744 278.326C49.5625 275.578 48.3446 271.964 48.5239 268.747C48.603 267.32 48.8033 265.91 48.8402 264.483C48.8771 263.109 48.856 261.493 48.1074 260.288C47.0951 258.661 45.1129 259.696 44.0848 260.79C43.0093 261.942 42.3872 263.474 41.9813 264.974C41.6175 266.316 41.3223 267.817 41.3908 269.217C41.4962 271.314 42.5823 273.069 43.8792 274.648C46.4203 277.739 49.3885 280.576 52.8153 282.658C54.4971 283.683 56.3107 284.518 58.1875 285.12C59.9167 285.675 61.8832 286.177 63.7126 286.14C66.5279 286.082 69.5119 284.872 71.9792 283.604C73.1759 282.986 74.4359 282.235 75.3164 281.194C76.1863 280.169 76.4446 278.912 76.3339 277.586C76.0334 273.961 74.1934 270.548 72.6751 267.315C70.872 263.479 69.7913 259.068 67.5559 255.279C67.1922 254.666 66.1799 254.434 65.6791 255.036C62.8849 258.397 62.8954 263.257 63.0062 267.405C63.0642 269.455 63.217 271.505 63.2012 273.555C63.1907 275.404 62.4526 277.792 64.1449 279.15C65.7898 280.471 67.9461 279.852 69.0374 278.204C69.9863 276.767 70.4081 274.812 70.8141 273.153C71.4941 270.4 71.6681 267.405 72.9914 264.853C73.6609 263.564 74.5677 262.396 75.0528 261.012C75.2426 260.468 75.3322 259.897 75.4218 259.326C75.7065 257.424 75.8541 255.496 76.2495 253.61C76.413 252.817 76.6027 251.988 76.956 251.259C77.1141 250.931 77.2723 250.677 77.441 250.503C77.6202 250.318 77.6941 250.287 77.9524 250.228C77.4621 249.948 76.9718 249.668 76.4815 249.394C76.434 249.14 76.4762 249.256 76.4815 249.515C76.4868 249.737 76.4973 249.959 76.4973 250.181C76.4973 250.767 76.4868 251.354 76.4762 251.94C76.4393 253.525 76.3813 255.116 76.3497 256.701C76.2864 259.971 76.1441 263.405 76.8242 266.628C77.0667 267.785 77.5464 269.201 78.817 269.56C79.5604 269.772 80.3353 269.18 80.3301 268.403C80.251 259.501 80.7624 250.588 80.1192 241.696C79.4391 241.976 78.759 242.261 78.0789 242.541C79.6025 244.512 80.1508 247.233 80.7308 249.594C81.4056 252.331 82.2069 254.973 83.1295 257.636C84.2156 260.764 85.3227 263.886 86.2031 267.077C87.1099 270.358 88.138 273.84 87.5897 277.269C87.8691 276.989 88.1485 276.709 88.4227 276.434C86.298 277.068 84.0838 276.434 81.917 276.624C80.8784 276.714 79.903 276.994 78.9119 277.301C78.0104 277.581 77.093 277.903 76.1546 277.618L76.9876 279.092C77.8364 275.383 78.2582 271.494 78.2213 267.685C78.1896 264.081 77.8469 259.342 74.9051 256.806C74.1407 256.146 72.8701 256.563 72.8649 257.652C72.8438 262.592 74.4148 267.273 75.1846 272.107C75.4007 273.47 75.3533 274.939 75.8752 276.233C76.5237 277.834 77.9946 278.6 79.592 279.018L79.9083 276.667C79.6236 276.635 79.3442 276.603 79.0595 276.577C78.4111 276.508 77.868 277.179 77.8628 277.776C77.8575 278.479 78.4216 278.907 79.0595 278.975C79.3442 279.007 79.6236 279.039 79.9083 279.065C81.2632 279.213 81.5057 277.047 80.2246 276.714C79.0753 276.413 78.2213 276.038 77.9471 274.897C77.6044 273.486 77.5886 271.975 77.325 270.543C76.5448 266.248 75.2267 262.063 75.2478 257.657C74.5677 257.937 73.8876 258.222 73.2076 258.502C75.7487 260.695 75.833 265.033 75.8225 268.113C75.8172 271.573 75.4429 275.076 74.6732 278.452C74.5256 279.097 74.8682 279.731 75.5062 279.926C77.752 280.608 79.7238 279.234 81.9064 279.018C84.3052 278.78 86.6776 279.446 89.05 278.743C89.4191 278.632 89.8197 278.31 89.883 277.908C90.3311 275.092 89.9674 272.361 89.3083 269.603C88.6546 266.876 87.8691 264.192 86.9834 261.535C86.103 258.898 85.154 256.283 84.2841 253.641C83.604 251.576 83.177 249.441 82.6129 247.344C81.996 245.04 81.2316 242.752 79.7554 240.845C79.1228 240.031 77.6466 240.713 77.7151 241.69C78.3583 250.582 77.8469 259.496 77.926 268.398C78.4321 268.012 78.933 267.627 79.4391 267.241C79.3126 267.204 79.65 267.215 79.4918 267.262C79.4549 267.273 79.5656 267.326 79.6131 267.357C79.5973 267.347 79.5234 267.262 79.5234 267.267C79.5445 267.257 79.6869 267.505 79.5393 267.278C79.4813 267.188 79.4338 267.088 79.3864 266.993C79.5076 267.241 79.2809 266.67 79.2493 266.544C79.1755 266.279 79.1175 266.015 79.0701 265.746C78.8328 264.478 78.7643 262.967 78.7274 261.551C78.643 258.344 78.7801 255.142 78.8539 251.935C78.8803 250.884 78.9541 249.795 78.7748 248.76C78.6588 248.094 77.8891 247.803 77.3039 247.925C74.3094 248.548 73.8613 252.981 73.5344 255.396C73.3393 256.827 73.2445 258.291 72.9281 259.707C72.7331 260.573 72.2902 261.324 71.8315 262.084C71.1462 263.22 70.5294 264.346 70.0918 265.603C69.2113 268.134 69.011 270.828 68.2624 273.396C67.9197 274.58 67.6877 276.466 66.6966 277.301C66.4541 277.507 65.8689 277.607 65.5631 277.227C65.1466 276.709 65.4524 275.451 65.5104 274.865C65.6896 273.058 65.5367 271.225 65.4629 269.412C65.3628 267.072 65.2784 264.721 65.4946 262.386C65.6738 260.452 66.0798 258.27 67.3609 256.732C66.7335 256.653 66.1114 256.568 65.484 256.489C67.0762 259.184 68.0568 262.153 69.1534 265.07C69.902 267.072 70.8351 268.974 71.7208 270.913C72.6434 272.947 73.6451 275.14 73.914 277.38C74.0036 278.109 73.9825 278.954 73.6978 279.372C73.3499 279.879 72.6487 280.418 72.0319 280.809C70.2341 281.945 68.2097 282.743 66.1694 283.297C65.368 283.514 64.572 283.715 63.7706 283.741C62.5897 283.778 61.3613 283.493 60.2225 283.207C54.6658 281.823 50.2847 278.241 46.531 274.057C45.5294 272.942 44.4433 271.737 43.9899 270.279C43.6472 269.169 43.7896 267.997 44.0005 266.876C44.3326 265.091 44.9969 262.095 47.1426 261.746C46.7525 261.646 46.3676 261.54 45.9775 261.44C46.5469 262.037 46.4678 263.669 46.4361 264.589C46.394 265.91 46.2253 267.215 46.1356 268.53C46.046 269.83 46.2305 271.13 46.2885 272.424C46.3465 273.734 46.4783 275.547 45.5715 276.63C46.0566 276.566 46.5363 276.503 47.0213 276.445C46.8368 276.302 46.4783 275.763 46.3043 275.335C45.9986 274.601 45.8351 273.782 45.7244 272.995C45.4714 271.193 45.4925 269.338 45.5715 267.526C45.7297 263.886 46.0829 260.151 46.6734 256.563C47.2217 253.235 48.1074 249.954 49.6205 246.926C48.8771 246.725 48.1337 246.525 47.3904 246.324C47.2164 250.006 47.5538 253.673 47.1057 257.34C46.6734 260.859 45.9248 264.34 46.0249 267.907C46.0566 269.011 47.7225 269.645 48.255 268.509C49.6468 265.534 50.1318 262.28 50.7856 259.089C51.3971 256.088 52.1247 252.838 54.2915 250.54C53.9014 250.641 53.5165 250.746 53.1264 250.847C53.4954 250.984 53.9593 251.385 54.2493 251.819C54.6763 252.453 54.9505 253.161 55.1614 253.895C55.6938 255.723 55.8678 257.636 55.9522 259.527C56.1367 263.659 55.8942 267.817 55.9364 271.948C55.9733 275.842 56.0207 279.736 55.8256 283.625C55.794 284.222 56.3054 284.724 56.8642 284.803C57.5022 284.888 57.945 284.507 58.177 283.947C60.0222 279.509 59.1576 274.627 59.9062 269.988C60.6601 265.339 62.4473 260.959 63.9182 256.51C64.3769 255.121 62.4842 254.582 61.7356 255.586C60.5019 257.234 59.922 259.279 59.3368 261.228C58.8571 262.829 58.2297 264.288 57.5601 265.804C56.3792 268.493 55.5779 271.394 54.0331 273.914C53.8012 274.294 53.3425 274.886 53.1685 275.023C53.1158 275.066 53.042 275.108 52.9787 275.14C53.2529 275.002 52.81 275.187 52.7784 275.198C52.7889 275.198 52.3408 275.266 52.5675 275.245C52.2459 275.277 52.499 275.229 52.3408 275.229C52.5833 275.229 52.3566 275.203 52.3197 275.203C52.2459 275.203 52.4357 275.335 52.3092 275.171C52.4146 275.303 52.2196 274.934 52.2248 274.955C52.0772 274.474 52.072 274.125 52.0825 273.539C52.1247 271.325 52.6993 269.021 53.2634 266.887C54.5867 261.857 57.6761 257.43 58.1875 252.167C58.293 251.105 56.8273 250.625 56.1472 251.322C53.6588 253.874 52.9629 257.667 51.6713 260.874C50.0369 264.943 48.8824 269.265 46.4678 272.968C47.1953 273.063 47.9229 273.158 48.6504 273.254C47.8332 271.177 48.023 268.773 48.2181 266.596C48.4448 264.05 48.798 261.503 49.1407 258.967C49.5625 255.839 50.0686 252.717 50.7539 249.631C51.4393 246.578 52.5095 243.534 52.2512 240.359C52.1563 239.16 50.7118 238.748 50.0211 239.757C48.9351 241.336 48.2234 243.143 47.6382 244.961C47.1057 246.615 46.647 248.279 46.4045 250.006C45.9458 253.256 46.0144 256.996 44.0743 259.797C44.8018 259.892 45.5294 259.987 46.2569 260.082C45.0074 256.13 45.2605 251.729 46.2833 247.756C47.2849 243.894 49.1881 239.804 52.6361 237.553C52.0509 237.316 51.4657 237.078 50.8805 236.835C51.1915 238.018 50.4587 239.096 49.8735 240.068C50.6169 240.269 51.3602 240.47 52.1036 240.671C52.151 239.677 52.0298 238.652 52.1827 237.67C52.3303 236.708 52.7995 236.296 53.7326 236.074C55.2299 235.72 54.5973 233.411 53.0947 233.765L53.1105 233.771Z" fill="#4D5359"/>
<path d="M66.8649 285.093C68.747 285.103 70.6239 285.32 72.5113 285.288C74.251 285.257 76.3019 285.103 77.6937 283.931C79.0222 282.81 79.5705 281.025 81.168 280.216C82.7338 279.424 84.0834 278.536 83.9358 276.55C83.8198 275.023 81.4316 275.007 81.5475 276.55C81.595 277.157 81.4632 277.358 80.9518 277.654C80.3824 277.976 79.7603 278.203 79.2173 278.578C78.5161 279.064 78.0047 279.714 77.5092 280.396C77.0716 280.993 76.6656 281.754 76.0541 282.198C74.9364 283.001 73.1176 282.911 71.8154 282.9C70.16 282.884 68.5151 282.715 66.8597 282.705C65.3202 282.694 65.3202 285.093 66.8597 285.098L66.8649 285.093Z" fill="#4D5359"/>
<path d="M73.0388 253.609C73.7821 257.228 73.7452 261.27 75.7486 264.498C76.3232 265.423 78.1157 265.148 77.9787 263.896C77.4725 259.3 75.9278 254.872 73.9034 250.735C71.9264 246.693 69.3905 242.451 65.7528 239.698C64.8724 239.032 63.6704 238.361 63.043 237.447C62.4789 236.623 62.3154 235.492 61.9148 234.578C61.6775 235.165 61.4403 235.751 61.1978 236.338C63.0324 235.593 65.4523 236.755 67.0708 237.775C68.6208 238.747 70.7349 240.459 70.5135 242.424C70.7085 242.081 70.9089 241.732 71.1039 241.389C69.2851 242.615 66.6596 241.008 65.7581 239.307C65.5208 239.894 65.2836 240.48 65.0411 241.066C65.1096 241.04 65.2045 240.987 65.2783 240.987C65.5367 240.987 65.3047 240.977 65.3152 240.971C65.389 240.956 65.4787 240.966 65.5525 240.971C65.4734 240.966 65.3996 240.94 65.6263 240.993C65.6685 241.003 65.9162 241.088 65.7581 241.03C65.5946 240.966 65.8846 241.093 65.9268 241.119C66.0059 241.167 66.0849 241.214 66.164 241.262C66.396 241.405 66.1904 241.267 66.3116 241.373C67.1868 242.128 67.6666 242.879 68.2623 243.893C69.7754 246.471 70.8456 249.314 71.8209 252.135C73.5501 257.139 75.021 262.274 75.9806 267.484C76.8135 271.99 77.4884 277.089 80.4196 280.787C81.0312 281.559 82.1436 281.009 82.4177 280.259C83.1189 278.33 82.9344 276.016 82.7446 274.009C82.6497 273.031 82.3228 272.133 82.0065 271.208C81.7482 270.463 81.3369 269.571 81.6638 268.799C81.279 269.09 80.8941 269.386 80.5092 269.676C81.2421 269.607 81.7903 269.597 82.0961 270.284C82.3966 270.971 82.4441 271.795 82.5917 272.524C82.792 273.517 83.198 274.41 83.6408 275.319C84.1417 276.349 84.2418 277.094 83.8412 278.193C84.4264 277.955 85.0116 277.718 85.5968 277.474C84.6741 276.925 83.6936 276.703 82.6391 276.951C81.7218 277.163 80.9046 277.654 79.9768 277.839C78.469 278.14 79.1069 280.454 80.6147 280.148C81.8852 279.894 83.1505 278.801 84.3947 279.54C85.1012 279.963 85.892 279.54 86.1503 278.822C86.6723 277.39 86.5879 276.043 85.9711 274.664C85.4755 273.554 85.0168 272.571 84.8007 271.367C84.6267 270.389 84.4474 269.375 83.8464 268.556C83.0556 267.478 81.7956 267.145 80.5145 267.272C79.924 267.33 79.5866 267.621 79.3599 268.149C78.5849 269.988 79.9399 271.943 80.3036 273.713C80.4882 274.611 80.4671 275.604 80.4829 276.518C80.504 277.57 80.4776 278.61 80.1138 279.609C80.7781 279.435 81.4477 279.255 82.1119 279.081C80.8994 277.554 80.2667 275.583 79.7553 273.734C79.1596 271.583 78.7536 269.38 78.353 267.182C77.8785 264.599 77.2986 262.068 76.6027 259.537C75.8329 256.742 75 253.963 74.0457 251.232C73.0019 248.241 71.8578 245.203 70.2235 242.488C69.09 240.607 66.997 237.764 64.4137 238.747C63.6756 239.027 63.3119 239.772 63.702 240.506C64.6457 242.292 66.5911 243.677 68.5628 244.067C69.5961 244.274 70.6505 244.247 71.6259 243.824C72.1372 243.603 72.6908 243.307 72.8648 242.736C72.9755 242.371 72.9386 241.933 72.8964 241.563C72.4852 238.092 68.7262 235.619 65.7739 234.446C64.1976 233.818 62.2047 233.358 60.5651 234.024C59.7954 234.335 59.5107 235.017 59.8481 235.783C60.2014 236.576 60.3964 237.432 60.7602 238.224C61.1978 239.17 61.9991 239.83 62.8057 240.459C63.6862 241.146 64.6299 241.764 65.4576 242.519C66.2062 243.201 66.8599 244.004 67.482 244.807C70.2393 248.363 72.3692 252.505 73.8559 256.748C74.6678 259.057 75.3216 261.46 75.5904 263.896C76.3338 263.695 77.0771 263.495 77.8205 263.294C75.9542 260.288 76.0438 256.357 75.3532 252.981C75.0421 251.47 72.7383 252.109 73.0493 253.62L73.0388 253.609Z" fill="#4D5359"/>
<path d="M29.0644 332.543C28.9062 333.267 28.4265 333.521 27.8887 333.975C27.1823 334.572 26.6656 335.381 26.1911 336.173C25.1683 337.874 24.3881 339.702 23.4128 341.43C22.3478 343.316 21.2776 345.181 20.3181 347.126C19.3691 349.038 18.4465 350.967 17.3921 352.826C15.3044 356.514 12.5207 359.711 9.98488 363.087C7.4174 366.51 5.18206 370.182 2.99416 373.854C2.45641 374.763 1.91866 375.672 1.38619 376.586C0.911706 377.4 -0.195422 378.668 0.0260033 379.656C0.326509 381.003 1.6287 382.303 2.64093 383.158C5.01335 385.15 7.87607 386.36 10.5279 387.924C11.9355 388.754 13.1534 389.805 14.4661 390.767C15.7894 391.733 17.1707 392.61 18.6468 393.318C22.3689 395.115 26.4231 396.061 30.3244 397.376C32.2065 398.01 33.8672 399.167 35.7441 399.822C37.6525 400.493 39.7297 400.61 41.7278 400.779C45.9982 401.143 50.0155 402.596 54.212 403.383C56.3366 403.78 58.4876 403.875 60.6228 404.202C62.8318 404.546 65.025 404.984 67.255 405.19C71.8522 405.618 76.4811 405.412 81.0783 405.819C83.3084 406.014 85.491 406.395 87.6367 407.039C89.6454 407.647 91.6224 408.445 93.7101 408.746C95.7662 409.042 97.8381 408.963 99.9048 408.862C101.713 408.772 103.548 408.841 105.356 408.683C108.303 408.418 111.208 407.446 113.438 405.439C115.579 403.515 116.707 400.736 116.717 397.873C116.723 396.024 116.106 394.296 115.926 392.473C115.7 390.201 115.9 387.908 115.716 385.631C115.352 381.093 113.717 376.67 112.737 372.243C112.247 370.024 111.714 367.815 111.176 365.607C110.913 364.529 110.654 363.451 110.417 362.368C110.296 361.829 110.18 361.285 110.069 360.746C110.006 360.419 109.948 360.096 109.879 359.769C109.858 359.658 109.837 359.552 109.821 359.441C109.843 359.605 109.843 359.616 109.821 359.468C109.6 357.111 110.069 354.697 109.452 352.372C109.178 351.347 108.583 350.333 107.486 350.063C105.994 349.699 105.356 352.007 106.848 352.372C106.959 352.398 106.895 352.398 106.864 352.356C106.969 352.494 106.864 352.298 106.98 352.531C107.048 352.663 107.191 353.159 107.249 353.466C107.407 354.337 107.407 355.241 107.412 356.123C107.412 357.006 107.381 357.893 107.402 358.776C107.423 359.88 107.676 360.958 107.902 362.035C109.305 368.692 111.124 375.26 112.653 381.885C113.043 383.565 113.343 385.214 113.396 386.936C113.449 388.616 113.375 390.302 113.496 391.982C113.681 394.555 114.714 397.027 114.15 399.622C113.264 403.695 109.379 405.888 105.472 406.263C104.159 406.39 102.841 406.321 101.523 406.379C99.9944 406.442 98.4655 406.548 96.9313 406.548C95.4499 406.548 93.9895 406.453 92.5608 406.057C91.0161 405.629 89.5136 405.085 87.9741 404.63C81.4104 402.702 74.4935 403.383 67.7611 402.829C64.4556 402.554 61.2238 401.761 57.9182 401.487C54.6707 401.217 51.5022 400.34 48.3548 399.521C46.8417 399.13 45.355 398.766 43.7997 398.575C42.3288 398.396 40.8527 398.327 39.3818 398.153C37.8845 397.973 36.4663 397.614 35.1061 396.959C33.7776 396.319 32.4965 395.59 31.0994 395.104C28.0152 394.026 24.8362 393.25 21.7837 392.072C19.5115 391.195 17.4237 389.985 15.4678 388.537C14.4819 387.808 13.5593 386.999 12.5313 386.334C11.5929 385.731 10.607 385.203 9.62111 384.675C7.66519 383.629 5.58273 382.625 3.94313 381.109C3.19977 380.422 2.6093 379.661 2.2139 378.726V379.936C4.13292 376.596 6.08357 373.273 8.15021 370.024C10.122 366.917 12.2729 363.985 14.5347 361.084C16.8491 358.126 18.9526 355.109 20.6713 351.759C21.5465 350.058 22.3636 348.325 23.2388 346.624C24.0612 345.018 25.0313 343.501 25.8695 341.906C26.75 340.236 27.5144 338.498 28.5425 336.907C29.4282 335.529 30.9992 334.873 31.3683 333.167C31.6951 331.666 29.3913 331.022 29.0644 332.528V332.543Z" fill="#4D5359"/>
<path d="M42.4609 341.431C42.4503 342.809 40.9636 343.755 40.099 344.653C38.8232 345.974 38.0693 347.675 37.2363 349.287C36.3137 351.073 35.2909 352.8 34.421 354.613C33.5406 356.446 32.7234 358.306 31.8904 360.16C31.0838 361.962 30.2614 363.763 29.3493 365.518C28.4742 367.208 27.4198 368.783 26.4971 370.447C24.7047 373.686 23.5343 377.241 22.5378 380.792C21.4149 384.802 20.5239 388.876 19.2323 392.833L21.5783 393.15C21.7207 389.573 21.8736 385.996 22.9438 382.551C23.5237 380.681 24.3883 378.911 25.1106 377.094C25.8434 375.239 26.5182 373.358 27.2247 371.493C28.6745 367.668 30.4617 364.123 32.5758 360.625C34.5792 357.312 36.8356 354.132 38.7494 350.766C39.5138 349.419 40.1992 348.024 41.0322 346.709C41.7439 345.589 42.6507 344.252 43.9687 343.813C45.4238 343.333 44.8017 341.018 43.3308 341.504C40.4944 342.445 38.9339 345.414 37.5948 347.876C35.8023 351.178 33.6724 354.28 31.6954 357.471C29.4284 361.127 27.3196 364.804 25.7116 368.804C24.9314 370.748 24.2249 372.724 23.4815 374.69C22.7382 376.655 21.8525 378.557 21.1144 380.522C19.5908 384.575 19.3588 388.87 19.1848 393.15C19.1268 394.545 21.1249 394.714 21.5309 393.467C23.8295 386.44 24.7837 378.853 28.2369 372.243C29.1279 370.542 30.2192 368.957 31.1207 367.261C32.075 365.47 32.929 363.631 33.7567 361.788C34.5897 359.933 35.4016 358.073 36.2768 356.24C37.1677 354.37 38.2011 352.594 39.1553 350.761C40.0621 349.023 40.8265 347.258 42.2553 345.879C43.5469 344.632 44.828 343.354 44.8438 341.431C44.8544 339.888 42.4661 339.888 42.4556 341.431H42.4609Z" fill="#4D5359"/>
<path d="M58.3399 349.999C58.3399 352.656 58.2239 355.319 57.8812 357.956C57.5227 360.724 56.8584 363.435 56.4947 366.203C56.1309 368.929 55.92 371.677 55.2083 374.345C54.6495 376.426 53.8797 378.503 53.6583 380.658C53.4369 382.777 53.5107 384.949 53.4632 387.078C53.4 390.005 53.3262 392.942 53.0415 395.864C52.9202 397.106 52.7937 398.268 52.4299 399.51C52.3667 399.721 52.2981 399.938 52.2138 400.144C52.3298 399.864 52.1136 400.302 52.0503 400.403C51.9502 400.566 52.2349 400.212 52.0609 400.376C51.8869 400.54 52.2929 400.271 52.0925 400.35C52.2243 400.297 52.2349 400.292 52.4457 400.255C52.3192 400.276 52.7726 400.339 52.5196 400.255C51.0434 399.8 50.416 402.109 51.8816 402.564C54.1012 403.25 54.8023 400.16 55.0659 398.638C55.5773 395.685 55.688 392.657 55.7829 389.661C55.8673 386.999 55.862 384.325 55.978 381.662C55.9938 381.303 56.0255 380.944 56.0518 380.59C56.0676 380.341 56.0096 380.828 56.0413 380.674C56.0993 380.373 56.152 380.067 56.2152 379.766C56.3681 379.058 56.5527 378.36 56.7477 377.668C57.122 376.321 57.5438 374.989 57.8443 373.621C58.1554 372.2 58.3188 370.747 58.4928 369.31C58.6931 367.672 58.8776 366.029 59.1518 364.401C59.4206 362.811 59.7844 361.242 60.0322 359.652C60.5225 356.455 60.7228 353.232 60.7228 349.999C60.7228 348.456 58.3346 348.456 58.3346 349.999H58.3399Z" fill="#4D5359"/>
<path d="M82.8125 353.354C82.533 355.32 83.1815 357 83.6876 358.87C84.2095 360.799 84.1147 362.859 84.0672 364.835C83.9723 369.02 84.3888 373.125 85.0214 377.262C85.6488 381.383 86.4554 385.472 87.1513 389.583C87.4729 391.469 87.5784 393.371 87.842 395.262C88.1056 397.143 88.7962 398.66 89.6819 400.308C90.3409 401.544 90.4042 402.849 90.3304 404.313C90.2566 405.697 88.6644 405.137 87.6311 405.121C86.0917 405.095 86.0917 407.488 87.6311 407.515C89.0071 407.541 90.5044 407.911 91.6326 406.88C92.7292 405.882 92.7766 404.461 92.7081 403.082C92.6343 401.56 92.3707 400.223 91.622 398.876C91.2214 398.152 90.8154 397.46 90.5729 396.662C90.2513 395.622 90.1353 394.549 90.0404 393.471C89.2918 384.849 86.5714 376.448 86.4238 367.746C86.3816 365.379 86.603 363.002 86.3922 360.64C86.292 359.515 86.0706 358.453 85.7384 357.375C85.4116 356.297 84.9529 355.135 85.1163 353.988C85.206 353.344 84.9582 352.71 84.2834 352.514C83.7245 352.356 82.9021 352.71 82.8125 353.349V353.354Z" fill="#4D5359"/>
<path d="M32.3432 400.123C32.5752 400.165 32.2483 399.953 32.3485 400.112C32.338 400.096 32.2852 399.99 32.3907 400.186C32.5172 400.429 32.4223 400.212 32.4803 400.366C32.6701 400.873 32.7756 401.48 32.8388 401.966C33.0392 403.594 33.0128 405.258 32.9706 406.896C32.9284 408.444 32.8388 409.992 32.7597 411.54C32.6648 413.342 32.6807 415.138 32.4487 416.934C32.0902 419.735 31.4892 422.492 31.3732 425.319C31.2625 428.14 31.4523 430.946 30.8671 433.725C29.6967 439.299 30.0077 445.021 30.1712 450.674C30.3715 457.506 30.245 464.358 30.245 471.19C30.245 472.732 32.6332 472.732 32.6332 471.19C32.6332 464.871 32.7439 458.541 32.6016 452.228C32.4698 446.4 31.932 440.419 33.1077 434.66C33.6982 431.754 33.6665 428.907 33.7403 425.958C33.8141 423.063 34.3941 420.252 34.7737 417.389C35.032 415.466 35.0373 413.542 35.1374 411.614C35.2218 409.981 35.3219 408.343 35.3588 406.711C35.4063 404.804 35.401 402.87 35.09 400.978C34.8896 399.769 34.3888 398.067 32.9759 397.814C31.4734 397.539 30.8249 399.848 32.338 400.123H32.3432Z" fill="#4D5359"/>
<path d="M54.6763 403.865C54.6815 407.426 54.8713 410.981 54.8608 414.542C54.8555 416.228 54.8344 417.924 54.6394 419.599C54.4548 421.163 54.0911 422.705 53.722 424.238C53.3372 425.817 52.9312 427.392 52.6413 428.993C52.346 430.641 52.2459 432.274 52.1773 433.948C52.0455 437.224 51.5289 440.463 50.8013 443.654C50.079 446.851 49.167 449.999 48.2918 453.159C47.4378 456.239 47.1478 459.499 46.0776 462.511C45.5662 463.948 44.7859 465.3 44.0531 466.637C43.3256 467.958 42.5611 469.263 41.744 470.525C41.1693 471.413 40.563 472.591 39.5877 473.104C38.8391 473.495 37.9165 473.711 37.1098 474.018C35.4281 474.657 33.1927 475.672 32.0909 473.611C31.1419 471.836 31.4002 469.464 31.416 467.525C31.4319 465.982 29.0383 465.982 29.0278 467.525C29.012 469.585 28.896 471.793 29.5814 473.775C30.33 475.936 32.1489 477.389 34.5002 477.257C35.6179 477.193 36.7144 476.723 37.7478 476.327C38.7125 475.962 39.7406 475.693 40.6632 475.238C41.7809 474.689 42.5137 473.653 43.2043 472.649C44.1269 471.307 44.9652 469.907 45.7665 468.486C46.5626 467.075 47.3639 465.644 47.9913 464.154C48.6714 462.553 49.0615 460.873 49.3884 459.171C50.0527 455.7 51.028 452.34 51.9453 448.932C52.8416 445.604 53.6429 442.249 54.1174 438.836C54.6025 435.322 54.4654 431.761 55.214 428.29C55.6252 426.404 56.1419 424.539 56.5373 422.647C56.9432 420.682 57.1488 418.711 57.2174 416.709C57.3545 412.429 57.0803 408.15 57.0698 403.87C57.0698 402.327 54.6763 402.327 54.6815 403.87L54.6763 403.865Z" fill="#4D5359"/>
<path d="M90.0725 409.962C91.612 409.962 91.612 407.568 90.0725 407.568C88.5331 407.568 88.5331 409.962 90.0725 409.962Z" fill="#4D5359"/>
<path d="M89.2289 407.916C87.5102 409.749 86.1184 411.868 85.4699 414.324C84.8215 416.781 84.9217 419.328 85.2116 421.821C85.5543 424.754 85.9602 427.697 86.6245 430.581C87.3415 433.709 88.2061 436.8 89.0233 439.901C89.8616 443.082 90.6787 446.273 91.3641 449.491C91.9809 452.365 92.9404 455.086 94.0423 457.802C95.1283 460.48 96.2618 463.159 96.9683 465.97C97.7274 469.013 97.8329 472.204 98.2599 475.305C98.592 477.709 98.9295 480.134 99.3512 482.528C99.6886 484.44 100.047 486.887 101.687 488.144C102.203 488.54 103.021 488.218 103.321 487.716C103.69 487.103 103.4 486.469 102.894 486.078C103.026 486.179 102.894 486.052 102.894 486.052C102.804 485.92 102.72 485.777 102.652 485.635C102.483 485.302 102.372 484.937 102.261 484.583C101.977 483.637 101.787 482.66 101.618 481.688C101.302 479.844 101.065 477.984 100.775 476.135C100.305 473.113 100.168 470.038 99.6359 467.032C99.1562 464.321 98.1861 461.732 97.1633 459.191C96.1195 456.597 95.0071 454.019 94.2479 451.324C93.4307 448.402 92.8982 445.391 92.1496 442.448C90.6629 436.61 88.881 430.835 88.0005 424.865C87.5893 422.096 87.1043 419.19 87.4839 416.395C87.8424 413.77 89.1235 411.529 90.916 409.617C91.9704 408.491 90.2833 406.795 89.2236 407.921L89.2289 407.916Z" fill="#4D5359"/>
<path d="M63.1743 407.542C63.1532 406.924 63.3008 406.591 63.77 406.19C63.1057 406.015 62.4362 405.836 61.7719 405.661C62.3624 407.463 61.8773 409.317 61.93 411.166C61.9828 413.032 62.3307 414.918 62.7156 416.74C63.4906 420.46 64.4395 424.153 65.3674 427.836C66.2742 431.439 67.2864 435.016 68.5886 438.498C69.8803 441.948 71.2246 445.329 72.2474 448.874C74.2982 455.98 75.7217 463.298 78.4526 470.193C79.8023 473.595 81.405 476.903 83.2502 480.062C84.9425 482.963 87.2833 485.446 88.7858 488.463C89.6188 490.132 90.0036 491.908 90.0775 493.767C90.1144 494.739 90.0775 495.717 90.1144 496.689C90.146 497.677 90.2989 498.665 90.262 499.658C90.204 501.259 89.1338 502.009 88.1004 503.077C87.0566 504.16 86.3343 505.306 86.5557 506.86C86.6137 507.266 87.0302 507.583 87.3887 507.694C92.2653 509.184 95.7554 504.921 98.46 501.539C99.2034 500.615 100.036 499.732 100.653 498.713C101.223 497.767 101.555 496.726 101.771 495.648C102.013 494.444 102.187 493.26 102.688 492.129C103.294 490.756 103.706 489.541 103.453 488.024C103.194 486.508 100.89 487.153 101.149 488.664C101.333 489.757 100.648 490.819 100.252 491.791C99.8307 492.827 99.6884 493.926 99.4722 495.014C99.2982 495.897 99.061 496.731 98.5971 497.508C98.0857 498.353 97.395 499.082 96.7782 499.854C94.7063 502.443 91.8805 506.569 88.0319 505.391L88.8649 506.226C88.7489 505.412 90.2198 504.355 90.7048 503.875C91.7118 502.871 92.4077 501.846 92.5922 500.403C92.8084 498.697 92.5079 496.916 92.4973 495.204C92.4868 493.503 92.413 491.791 91.9701 490.138C91.1002 486.862 88.9703 484.21 87.046 481.505C84.9847 478.609 83.3345 475.407 81.8689 472.174C78.8058 465.395 77.24 458.115 75.3158 450.966C74.3668 447.448 73.3229 443.939 71.9627 440.558C70.5498 437.045 69.3478 433.489 68.3567 429.827C67.2601 425.759 66.2795 421.649 65.3411 417.544C64.8613 415.462 64.3921 413.322 64.3288 411.182C64.2656 409.101 64.7559 407.077 64.0863 405.038C63.7911 404.14 62.7841 403.918 62.0882 404.509C61.1761 405.291 60.7544 406.364 60.7913 407.558C60.8387 409.095 63.2322 409.101 63.1795 407.558L63.1743 407.542Z" fill="#4D5359"/>
<path d="M92.1969 490.855C90.0512 491.188 89.0495 494.031 88.1691 495.684C86.9038 498.062 84.6052 500.075 85.4118 503.039C85.6596 503.953 86.7456 504.148 87.4099 503.567C88.5012 502.616 89.2287 501.364 90.0037 500.165C90.7787 498.965 91.7699 498.056 92.7979 497.079C93.6625 496.255 94.4533 495.351 94.9331 494.247C95.3338 493.323 95.6501 492.361 96.0455 491.431C96.2458 490.961 96.462 490.491 96.7361 490.052C96.8099 489.931 96.889 489.809 96.9839 489.703C97.0683 489.608 97.2264 489.487 97.1473 489.513C97.3371 489.445 97.8591 489.471 97.6324 489.45C97.5322 489.439 97.5586 489.36 97.5533 489.365C97.5427 489.381 97.5849 489.555 97.5744 489.735C97.4584 491.347 96.3144 493.122 95.5025 494.564C93.5729 498.014 91.4904 501.38 89.5082 504.803C89.0653 505.57 89.6242 506.637 90.5415 506.605C91.9017 506.563 92.5765 505.548 92.4974 504.254C92.4025 502.722 90.0143 502.711 90.1092 504.254C90.1514 504.946 90.0143 504.228 90.5415 504.212C90.8842 504.814 91.2321 505.411 91.5748 506.013C93.5571 502.59 95.6395 499.224 97.5691 495.774C98.5919 493.946 99.9257 491.838 99.9679 489.666C100.015 487.257 97.2264 486.248 95.4972 487.807C93.826 489.318 93.6309 491.822 92.5607 493.698C91.6961 495.214 90.067 496.17 88.981 497.512C87.8369 498.923 87.1147 500.661 85.7281 501.871C86.3924 502.045 87.0619 502.225 87.7262 502.399C87.1779 500.381 89.3764 498.521 90.241 496.894C90.6575 496.112 91.0265 495.304 91.4852 494.543C91.8068 494.009 92.2075 493.264 92.8401 493.164C93.4833 493.064 93.826 492.266 93.6731 491.69C93.4938 491.003 92.8401 490.755 92.2022 490.855H92.1969Z" fill="#4D5359"/>
<path d="M29.3701 469.595C31.9534 472.126 34.8319 474.339 37.431 476.854C38.3009 477.7 39.7033 476.849 39.4291 475.687C39.0232 473.985 38.3009 472.141 36.3503 471.904C36.7351 472.194 37.12 472.49 37.5048 472.781C36.8616 471.18 35.7598 470.07 34.2678 469.225C33.0183 468.517 31.7003 467.978 30.7514 466.884C30.6723 467.513 30.5879 468.137 30.5088 468.765C30.2505 468.882 30.6565 468.723 30.7144 468.713C30.8621 468.676 31.0097 468.644 31.1626 468.623C30.9464 468.654 31.4156 468.612 31.4631 468.612C31.6371 468.607 31.8163 468.612 31.9903 468.612C32.7125 468.639 33.361 468.76 34.1096 468.966C34.8477 469.172 35.4751 469.405 36.1288 469.764C36.287 469.848 36.4399 469.938 36.5928 470.039C36.6297 470.065 36.9882 470.319 36.8616 470.218C36.9829 470.313 37.0989 470.419 37.2096 470.53C37.2465 470.567 37.5206 470.91 37.3678 470.694C37.8159 470.107 38.2693 469.521 38.7174 468.934C34.8214 467.508 30.5774 466.573 27.683 463.371C27.198 464 26.7182 464.623 26.2332 465.252C27.9783 466.372 30.2294 467.27 31.2944 469.162C31.5316 468.575 31.7689 467.989 32.0114 467.402C31.2944 467.703 30.5405 467.814 29.8024 467.497C29.9869 467.735 30.1662 467.973 30.3507 468.216C30.2821 467.878 30.2189 467.54 30.1503 467.207C30.0238 466.573 29.2699 466.208 28.6794 466.372C28.0204 466.552 27.7199 467.207 27.8465 467.846C27.9466 468.353 27.9677 468.998 28.3526 469.384C28.6953 469.727 29.2963 469.885 29.7549 469.975C30.7303 470.171 31.7214 470.102 32.644 469.716C33.3505 469.42 33.7775 468.702 33.3557 467.957C32.0641 465.659 29.5599 464.554 27.4405 463.191C26.2596 462.431 25.1103 464.095 25.9907 465.072C29.175 468.596 33.7933 469.685 38.0795 471.254C39.0232 471.597 40.0354 470.329 39.4291 469.494C38.3325 467.983 36.5031 467.159 34.7476 466.668C32.9972 466.182 31.0097 465.944 29.3068 466.71C28.5529 467.048 28.6109 468.068 29.0643 468.591C30.0185 469.69 31.2944 470.356 32.5597 471.027C33.6615 471.613 34.7212 472.221 35.2009 473.425C35.4224 473.975 35.7756 474.234 36.3555 474.302C36.1657 474.281 36.2817 474.244 36.3239 474.334C36.2606 474.213 36.3766 474.392 36.4135 474.44C36.4662 474.514 36.6297 474.778 36.7087 474.963C36.8827 475.348 37.0145 475.877 37.1252 476.331C37.7895 475.94 38.4591 475.555 39.1233 475.164C36.5242 472.643 33.651 470.435 31.0624 467.904C29.9605 466.826 28.2682 468.517 29.3701 469.6V469.595Z" fill="#4D5359"/>
<path d="M41.2376 269.201C41.2376 271.906 41.2007 274.611 41.2745 277.311C41.9546 277.031 42.6347 276.745 43.3148 276.465C43.0512 276.191 42.7823 275.921 42.5081 275.657C42.2287 276.338 41.944 277.02 41.6646 277.702C42.9457 277.733 44.87 277.21 45.8453 278.32C46.6625 279.25 46.9103 280.581 47.6378 281.58C48.513 282.779 49.8363 283.587 51.2966 283.815C52.815 284.052 54.3386 283.852 55.8675 283.857C57.4069 283.867 57.4069 281.469 55.8675 281.463C54.4862 281.458 53.0206 281.728 51.6551 281.458C50.3108 281.194 49.578 280.338 49.0086 279.155C48.4339 277.955 47.9014 276.692 46.7258 275.963C45.1547 274.991 43.3991 275.351 41.6646 275.308C40.6313 275.282 40.083 276.64 40.8211 277.353C41.0952 277.617 41.3641 277.887 41.6277 278.161C42.3394 278.896 43.6996 278.351 43.668 277.316C43.5942 274.611 43.6258 271.906 43.6311 269.206C43.6311 267.663 41.2429 267.663 41.2429 269.206L41.2376 269.201Z" fill="#4D5359"/>
<path d="M85.7913 267.789C86.3659 267.361 86.8984 266.891 87.4414 266.426C87.5627 266.32 87.6892 266.214 87.8157 266.114C87.8896 266.056 87.9634 265.992 88.0372 265.934C87.9159 266.029 87.9475 266.003 88.0477 265.924C88.1637 265.839 88.2797 265.755 88.4009 265.675C88.4958 265.612 88.7594 265.533 88.8227 265.443C88.7753 265.517 88.6118 265.522 88.8122 265.459C88.8754 265.438 88.944 265.417 89.0072 265.401C89.1338 265.369 89.2656 265.343 89.3921 265.316C89.6557 265.263 89.9246 265.226 90.1882 265.163C90.9526 264.967 91.638 264.54 92.1441 263.927C92.5448 263.446 92.6502 262.696 92.1441 262.231C91.7012 261.824 90.8788 261.718 90.4518 262.231C90.3411 262.368 90.2198 262.49 90.0933 262.611C89.8824 262.812 90.2778 262.511 90.0458 262.643C89.9984 262.669 89.9509 262.701 89.8982 262.727C89.8613 262.748 89.8244 262.764 89.7875 262.785C89.7031 262.822 89.74 262.812 89.8877 262.743C89.8877 262.759 89.7189 262.801 89.7031 262.807C89.5819 262.844 89.4554 262.875 89.3288 262.902C88.7014 263.028 88.1268 263.129 87.5416 263.409C86.9406 263.699 86.4134 264.17 85.9073 264.598C85.6437 264.82 85.3906 265.041 85.127 265.263C85.011 265.364 84.895 265.464 84.7738 265.559C84.7158 265.607 84.6631 265.649 84.6051 265.697C84.4153 265.85 84.7896 265.559 84.5893 265.707C84.0884 266.082 83.7826 266.759 84.1622 267.345C84.4838 267.842 85.2588 268.174 85.7966 267.773L85.7913 267.789Z" fill="#4D5359"/>
<path d="M10.6967 226.358C10.6967 229.76 11.0183 233.131 11.7247 236.46C12.1043 238.261 12.5946 240.037 12.9373 241.844C13.2694 243.598 13.5383 245.362 13.8388 247.116C14.1341 248.849 14.4662 250.582 14.9301 252.278C15.4099 254.017 16.0214 255.713 16.5223 257.445C17.5556 261.043 18.0723 264.568 18.1144 268.308C18.1513 272.033 18.1303 275.779 18.009 279.498C17.9036 282.753 17.4713 286.05 18.125 289.273C18.8473 292.823 20.6397 296.115 21.826 299.517C23.028 302.957 23.0754 306.518 22.9911 310.121C22.9489 311.87 22.97 313.624 22.8751 315.368C22.8013 316.757 22.6589 318.141 22.5957 319.526C22.4744 322.247 22.5008 325.469 24.4778 327.577C25.5322 328.703 27.2245 327.007 26.1701 325.882C24.6465 324.259 24.8943 321.327 24.9997 319.288C25.1315 316.651 25.2791 314.036 25.3477 311.394C25.4373 307.818 25.5586 304.177 24.6834 300.68C23.8188 297.214 22.0948 294.012 20.9877 290.625C19.9386 287.418 20.16 284.211 20.334 280.888C20.5185 277.364 20.4869 273.808 20.5027 270.279C20.5185 266.612 20.3603 263.035 19.5221 259.453C18.7102 255.998 17.3816 252.696 16.6541 249.219C15.8475 245.362 15.3783 241.463 14.4398 237.633C13.5278 233.908 13.0849 230.173 13.0796 226.337C13.0796 224.794 10.6861 224.794 10.6914 226.337L10.6967 226.358Z" fill="#4D5359"/>
<path d="M164.561 196.977C164.509 194.43 164.05 191.931 162.832 189.67C161.72 187.604 160.07 185.871 158.43 184.217C156.036 181.792 153.606 179.399 151.202 176.984C150.005 175.78 148.835 174.559 147.506 173.497C146.278 172.515 144.981 171.627 143.758 170.634C139.382 167.083 135.692 162.54 130.42 160.225C128.274 159.285 126.002 158.873 123.666 158.82C121.821 158.778 119.496 159.079 118.616 160.96C117.498 163.353 119.359 166.095 120.893 167.818C122.548 169.683 124.837 171.49 127.388 171.749C128.379 171.849 129.028 170.333 128.232 169.704C126.249 168.124 124.341 166.465 122.28 164.986C120.108 163.427 117.651 161.895 114.988 161.388C112.347 160.886 109.664 161.536 108.53 164.214C107.46 166.745 108.282 169.508 110.497 171.078C111.556 171.828 112.79 172.266 113.95 172.821C114.899 173.275 116.059 173.841 116.475 174.882C116.965 174.39 117.456 173.899 117.946 173.408C114.519 172.103 111.646 169.646 108.177 168.394C105.662 167.485 101.323 167.11 100.959 170.734C100.796 172.398 101.387 174.126 102.52 175.341C103.585 176.482 105.04 177.169 106.437 177.803C110.275 179.542 113.681 181.998 117.055 184.497C118.869 185.839 120.714 187.097 122.612 188.323C124.51 189.548 126.386 190.816 127.91 192.507C128.474 191.942 129.038 191.376 129.602 190.811L128.769 190.003C127.662 188.93 125.97 190.621 127.077 191.699L127.91 192.507C129.023 193.585 130.63 191.952 129.602 190.811C127.14 188.08 123.824 186.362 120.835 184.307C117.587 182.072 114.561 179.557 111.161 177.55C109.737 176.71 108.261 176.044 106.775 175.336C105.609 174.781 104.276 174.11 103.68 172.89C103.427 172.361 103.295 171.696 103.321 171.109C103.337 170.702 103.411 170.454 103.659 170.333C104.703 169.825 106.268 170.274 107.307 170.628C110.86 171.844 113.797 174.39 117.303 175.722C118.109 176.028 119.101 175.067 118.774 174.248C117.93 172.15 116.127 171.183 114.166 170.306C112.474 169.551 110.454 168.721 110.439 166.56C110.433 165.599 110.802 164.542 111.62 163.982C112.342 163.491 113.423 163.543 114.24 163.681C116.554 164.072 118.668 165.393 120.566 166.713C122.643 168.156 124.547 169.825 126.524 171.4C126.803 170.718 127.088 170.037 127.367 169.355C125.648 169.181 123.93 167.596 122.791 166.375C121.937 165.456 120.171 163.443 120.724 162.032C121.162 160.912 123.64 161.192 124.631 161.266C126.74 161.43 128.69 161.953 130.562 162.962C135.017 165.371 138.264 169.292 142.166 172.42C143.278 173.312 144.443 174.126 145.566 175.003C146.768 175.944 147.833 177 148.903 178.078C151.112 180.302 153.337 182.511 155.551 184.73C157.249 186.431 159.063 188.117 160.344 190.177C161.63 192.248 162.105 194.557 162.152 196.972C162.184 198.509 164.577 198.514 164.54 196.972L164.561 196.977Z" fill="#4D5359"/>
<path d="M14.1444 186.562C16.3692 182.658 18.4833 178.595 21.6729 175.372C24.9363 172.075 28.806 169.508 32.6282 166.913C33.5192 166.311 34.4102 165.719 35.1693 164.943C35.9232 164.171 36.5453 163.289 37.2518 162.475C38.1269 161.471 39.1866 160.642 40.2568 159.855C40.4941 159.68 40.7261 159.511 40.9686 159.348C41.0898 159.268 41.2164 159.194 41.3376 159.115C41.4114 159.067 41.7067 158.983 41.4272 159.046C41.5116 159.025 42.0388 159.11 42.2549 159.252C42.3551 159.321 42.3762 159.369 42.4342 159.464C42.6029 159.765 42.3815 159.263 42.4922 159.596C42.5185 159.67 42.5344 159.749 42.5555 159.828C42.5976 160.019 42.5976 160.758 42.5502 161.096C42.2233 163.405 41.0951 165.624 39.9985 167.653C40.7261 167.959 41.4536 168.266 42.1811 168.578C42.5396 166.686 43.6099 164.858 44.8752 163.432C46.0297 162.127 47.8011 160.626 49.678 161.191C53.3789 162.301 49.1877 168.25 48.1754 170.078C47.5323 171.235 49.1086 172.561 50.0523 171.531C52.1506 169.238 54.9078 165.418 58.419 165.756C58.1396 165.64 57.8549 165.524 57.5755 165.408C59.078 167.151 59.3838 169.09 58.2029 171.087C57.0957 172.958 55.3718 174.4 53.8113 175.874C52.1664 177.422 50.7008 179.15 49.0242 180.661C47.3266 182.188 45.2442 183.752 42.8454 183.567V185.96C43.1143 185.949 43.3832 185.939 43.652 185.934C45.1862 185.881 45.1915 183.482 43.652 183.54C43.3832 183.551 43.1143 183.561 42.8454 183.567C41.2954 183.62 41.3218 185.844 42.8454 185.96C46.0034 186.203 48.787 184.137 50.9907 182.103C53.0152 180.233 54.8815 178.183 56.8743 176.281C58.7722 174.474 60.8547 172.318 61.287 169.613C61.5242 168.129 61.2185 166.66 60.4751 165.36C60.1219 164.737 59.563 163.754 58.883 163.469C58.1818 163.173 57.1748 163.342 56.4525 163.511C53.0574 164.303 50.6059 167.394 48.36 169.84C48.9873 170.326 49.6094 170.807 50.2368 171.293C51.7973 168.477 54.7919 164.309 53.0468 160.975C52.0926 159.147 49.8309 158.455 47.9013 158.772C45.8979 159.104 44.1582 160.547 42.8981 162.068C41.5116 163.738 40.2832 165.777 39.872 167.938C39.6347 169.201 41.3745 170.126 42.0546 168.863C43.1723 166.792 44.2478 164.578 44.7434 162.264C45.0122 161.007 45.1598 159.596 44.5641 158.402C43.9473 157.171 42.5607 156.574 41.2216 156.658C39.9089 156.743 38.6014 158.095 37.6314 158.861C36.1921 159.997 35.1272 161.371 33.9251 162.739C32.3277 164.562 30.0238 165.756 28.0468 167.125C25.9644 168.572 23.9135 170.083 22.0051 171.764C19.891 173.618 18.0458 175.679 16.4483 177.998C14.8351 180.349 13.4749 182.859 12.0673 185.337C11.3028 186.679 13.3695 187.888 14.1339 186.547L14.1444 186.562Z" fill="#4D5359"/>
<path d="M61.9778 173.686C68.3675 173.686 74.7625 173.644 81.1522 173.686C83.8937 173.707 86.6404 174.045 89.3713 173.612C91.9388 173.2 94.3639 172.513 96.9842 172.466C98.5183 172.434 98.5289 170.072 96.9842 170.072H96.1775C94.6381 170.072 94.6381 172.466 96.1775 172.466H96.9842V170.072C94.4061 170.125 91.9546 170.675 89.4399 171.176C86.7089 171.721 83.9095 171.319 81.1522 171.298C74.7625 171.256 68.3675 171.298 61.9778 171.298C60.4384 171.298 60.4384 173.691 61.9778 173.691V173.686Z" fill="#4D5359"/>
<path d="M59.6314 167.072C59.526 168.578 59.4205 170.083 59.3098 171.589C59.1991 173.132 61.5873 173.116 61.6981 171.589C61.9037 168.868 62.3254 166.179 62.7735 163.49C62.9897 162.211 63.2059 160.932 63.4062 159.654C63.5064 159.015 63.6382 158.359 63.6909 157.715C63.7489 157.012 63.6382 156.304 63.6065 155.596C63.5644 154.592 63.7542 153.451 63.2849 152.537C62.7525 151.507 62.0407 150.566 61.3501 149.636C60.6436 148.685 59.9108 147.75 59.294 146.736C58.6614 145.711 58.6139 144.475 58.3503 143.312C56.3733 134.637 51.3596 127.298 45.961 120.403C43.1352 116.795 40.2145 113.271 37.4836 109.588C34.6209 105.731 32.9549 100.67 32.1799 95.9623C31.4102 91.2812 31.7582 86.4416 33.2501 81.9348C34.0093 79.6313 35.0374 77.4387 36.4503 75.4627C37.6048 73.8459 38.9018 72.3349 40.3199 70.9453C51.2489 60.2306 67.608 59.7604 81.6949 63.0202C85.359 63.8708 89.0388 64.917 92.5395 66.2959C96.0348 67.6696 99.1928 69.8675 101.787 72.5779C104.502 75.4098 106.626 78.8282 108.087 82.4685C109.805 86.748 110.507 91.2019 110.971 95.7721C111.492 100.939 111.471 106.191 109.832 111.168C109.078 113.445 107.987 115.622 107.096 117.851C106.711 118.808 106.331 119.769 105.894 120.705C105.377 121.814 104.692 122.85 104.106 123.927C99.5355 132.407 97.0892 141.717 96.2773 151.295C96.077 153.662 95.9768 156.029 95.9347 158.402C95.9083 159.944 98.3018 159.944 98.3229 158.402C98.4863 148.675 99.9098 138.938 103.816 129.966C104.839 127.62 105.999 125.343 107.291 123.135C108.456 121.138 109.215 118.913 110.085 116.774C111.055 114.391 112.151 112.124 112.763 109.604C113.385 107.036 113.654 104.379 113.675 101.742C113.696 99.0637 113.459 96.385 113.132 93.7274C112.832 91.2917 112.547 88.8508 111.925 86.4733C110.876 82.4685 109.215 78.5799 106.901 75.1456C104.67 71.8435 101.866 68.9641 98.5443 66.7609C95.2335 64.5577 91.4745 63.2844 87.6945 62.1432C80.2767 59.9083 72.4636 58.561 64.6978 58.8622C57.2116 59.1528 49.6884 61.0759 43.4357 65.3238C40.1354 67.5692 37.2885 70.3589 34.895 73.5553C31.969 77.4651 30.282 82.2149 29.6546 87.0439C29.022 91.9363 29.5966 96.9397 31.0833 101.631C31.8689 104.104 32.8916 106.508 34.1042 108.801C35.2272 110.925 36.9247 112.822 38.4009 114.708C43.9313 121.772 50.0469 128.619 53.7162 136.909C54.6283 138.964 55.3452 141.104 55.883 143.286C56.1571 144.401 56.2415 145.605 56.5631 146.699C56.89 147.798 57.8073 148.86 58.4716 149.763C59.236 150.799 60.0374 151.813 60.7227 152.902C60.8703 153.139 61.0285 153.377 61.1498 153.625C61.2816 153.9 61.1867 153.678 61.1761 153.615C61.1919 153.726 61.1761 153.858 61.1761 153.969C61.1761 154.513 61.1867 155.052 61.2078 155.596C61.2341 156.193 61.3501 156.811 61.329 157.403C61.3079 158.095 61.1234 158.819 61.0127 159.501C60.7913 160.885 60.554 162.269 60.3221 163.653C59.8845 166.29 59.4943 168.931 59.294 171.594H61.6822C61.7877 170.089 61.8931 168.583 62.0038 167.077C62.1145 165.54 59.721 165.545 59.6156 167.077L59.6314 167.072Z" fill="#4D5359"/>
<path d="M62.8791 156.642C61.2922 156.911 60.9179 159.194 60.7281 160.472C60.359 162.924 60.3221 165.423 60.3485 167.901C60.4012 172.941 60.6068 178.188 61.6507 183.133C61.8247 183.957 62.1146 184.676 62.452 185.452C63.2481 187.291 64.0178 189.151 65.0828 190.857C66.0897 192.469 67.355 193.932 68.9788 194.947C70.94 196.178 73.3019 196.991 75.553 197.504C77.8833 198.037 80.1977 198.096 82.5701 198.191C84.6526 198.275 86.8721 198.64 88.8913 197.942C90.7471 197.298 92.0018 195.892 92.8928 194.191C93.8681 192.321 94.8276 190.398 95.6184 188.437C96.6254 185.933 97.3266 183.323 98.0805 180.734C98.8871 177.945 99.4248 175.129 99.6884 172.239C100.221 166.522 99.8308 160.779 99.8255 155.052C99.8255 153.509 97.4373 153.509 97.4373 155.052V174.563C97.4373 176.106 99.8255 176.106 99.8255 174.563V170.326H97.4373C97.4425 174.473 97.8854 178.6 97.7694 182.747C97.664 186.424 97.3002 191.005 94.6115 193.742C93.1037 195.274 91.0107 195.803 88.8597 195.776C87.3202 195.755 87.3202 198.154 88.8597 198.17C91.1477 198.201 93.4622 197.699 95.3126 196.294C96.9997 195.01 98.0963 193.208 98.8238 191.243C100.421 186.905 100.284 181.981 100.105 177.427C100.01 175.06 99.836 172.693 99.8308 170.321C99.8308 168.778 97.4425 168.778 97.4425 170.321V174.558C97.4425 176.101 99.8308 176.101 99.8308 174.558V155.046H97.4425C97.4478 159.812 97.7114 164.583 97.5005 169.349C97.3951 171.7 97.1737 174.045 96.7203 176.354C96.2722 178.637 95.571 180.872 94.912 183.101C94.2688 185.283 93.5571 187.455 92.5554 189.505C91.8067 191.021 91.1477 192.722 90.1724 194.107C89.0916 195.644 87.4468 195.966 85.6595 195.945C83.5876 195.919 81.4577 195.845 79.3911 195.676C77.2348 195.501 75.1049 195.01 73.0805 194.239C71.2458 193.541 69.5693 192.664 68.2671 191.164C67.0967 189.811 66.2848 188.157 65.5467 186.541C65.1619 185.701 64.8034 184.85 64.4343 184.005C64.3711 183.851 64.2972 183.704 64.234 183.55C64.3921 183.936 64.3025 183.714 64.2762 183.635C64.234 183.503 64.1918 183.376 64.1549 183.244C63.6699 181.516 63.5275 179.862 63.3483 178.135C63.0794 175.572 62.9107 172.999 62.8158 170.421C62.7209 167.695 62.684 164.942 62.9265 162.221C63.0109 161.254 63.0794 160.536 63.3746 159.532C63.4221 159.368 63.4748 159.204 63.5381 159.046C63.401 159.389 63.5961 158.967 63.6382 158.887C63.7595 158.644 63.4485 159.025 63.6962 158.819C63.6172 158.882 63.3061 158.982 63.5328 158.945C65.0459 158.687 64.4027 156.378 62.8949 156.637L62.8791 156.642Z" fill="#4D5359"/>
<path d="M65.7104 159.342C65.779 159.68 65.8475 160.018 65.9213 160.356C66.0057 160.774 66.3747 161.07 66.7543 161.191C71.5097 162.739 76.7975 161.487 81.6742 161.439C84.0466 161.418 86.1923 160.177 88.5436 160.23C90.7263 160.277 93.0354 160.531 94.5854 158.645C95.5554 157.461 93.8737 155.76 92.8931 156.949C91.6225 158.497 89.3924 157.72 87.6579 157.847C86.5297 157.926 85.4595 158.269 84.3787 158.581C83.2927 158.893 82.2805 159.041 81.1522 159.041C76.6394 159.046 71.7944 160.314 67.3922 158.882C67.6716 159.162 67.9511 159.442 68.2252 159.717C68.1567 159.379 68.0881 159.041 68.0143 158.703C67.7033 157.192 65.3994 157.831 65.7104 159.342Z" fill="#4D5359"/>
<path d="M65.6153 157.799C65.6364 156.224 65.4466 154.666 64.8456 153.202C64.2182 151.675 63.2482 150.37 62.315 149.023C60.1588 145.927 59.3574 142.303 59.5156 138.567H57.1274C57.1063 147.428 57.1274 156.288 57.1274 165.148C57.1274 166.691 59.5156 166.691 59.5156 165.148C59.5156 156.288 59.4998 147.428 59.5156 138.567C59.5156 137.019 57.1906 137.03 57.1274 138.567C56.9745 142.281 57.6915 146.033 59.6158 149.245C60.4698 150.677 61.5664 151.945 62.3361 153.424C63.0478 154.798 63.2535 156.261 63.2324 157.799C63.2113 159.342 65.6048 159.342 65.6206 157.799H65.6153Z" fill="#4D5359"/>
<path d="M76.6071 161.472C76.5386 157.066 76.2065 152.681 74.8094 148.475C74.0291 146.124 72.9589 143.884 72.0363 141.585C71.1084 139.277 70.2438 136.936 69.4425 134.58C68.6095 132.123 67.8398 129.64 67.1491 127.135C66.6746 125.413 66.1316 123.712 66.1316 121.91C66.1316 121.339 66.1632 120.764 66.295 120.209C66.353 119.955 66.4268 119.702 66.5007 119.543C66.5586 119.432 66.6219 119.321 66.6904 119.216C66.6535 119.268 66.6694 119.221 66.7432 119.184C66.9699 119.062 66.7801 119.179 66.7484 119.184C66.4743 119.216 66.8328 119.168 66.875 119.189C66.7906 119.152 67.2229 119.369 67.36 119.459C68.0401 119.913 68.6253 120.579 69.0681 121.265C71.3984 124.858 71.488 129.46 73.038 133.38C73.4545 134.437 74.9834 134.59 75.3419 133.38C75.8058 131.832 75.9271 130.205 76.2592 128.625C76.5544 127.23 76.9498 125.587 78.2468 124.79C77.6616 124.552 77.0764 124.314 76.4912 124.071C77.6299 127.928 75.5317 131.991 76.8866 135.858C77.1818 136.704 78.2046 137.042 78.8847 136.387C80.3028 135.013 81.1675 132.947 82.1428 131.267C82.7069 130.295 83.271 129.312 83.9458 128.414C84.1672 128.123 84.4045 127.843 84.6734 127.59C84.9264 127.352 84.6839 127.579 84.937 127.4C84.8104 127.489 84.8104 127.384 84.8895 127.421C85.016 127.484 84.7103 127.426 84.6206 127.41L83.7877 126.575C87.6679 138.061 84.6154 150.44 85.2796 162.265C85.9597 161.985 86.6398 161.699 87.3199 161.419C86.798 160.997 86.5028 160.585 86.3446 159.935C85.9808 158.44 83.6717 159.074 84.0407 160.574C84.2885 161.588 84.821 162.46 85.6329 163.115C86.3657 163.707 87.7364 163.401 87.6732 162.27C86.9983 150.224 90.0561 137.665 86.0968 125.947C85.9703 125.566 85.6803 125.191 85.2638 125.112C83.0759 124.684 81.605 127.537 80.6772 129.069C80.0023 130.184 79.375 131.325 78.716 132.456C78.2362 133.28 77.7512 134.173 77.2029 134.706C77.8672 134.881 78.5367 135.06 79.201 135.235C77.8672 131.431 79.9496 127.331 78.8056 123.448C78.5894 122.724 77.7195 122.317 77.05 122.729C73.6126 124.842 74.066 129.36 73.0485 132.752H75.3524C73.8182 128.868 73.5705 124.546 71.5882 120.827C70.7552 119.268 69.3475 117.451 67.5761 116.923C66.1843 116.51 64.9401 117.255 64.3549 118.529C62.747 122.032 64.4182 126.396 65.4199 129.798C67.0015 135.187 68.9258 140.471 71.1506 145.627C72.2314 148.132 73.1118 150.699 73.6021 153.389C74.0871 156.057 74.1767 158.772 74.2189 161.478C74.24 163.02 76.6335 163.02 76.6071 161.478V161.472Z" fill="#4D5359"/>
<path d="M47.3158 77.0266C42.5657 77.3542 39.9455 83.2558 39.0545 87.2817C38.6433 89.1362 38.5747 91.1122 38.4798 93.0037C38.3797 95.0114 38.3902 97.0877 38.8858 99.0426C39.355 100.887 40.3936 102.646 42.1703 103.465C44.0471 104.331 47.1154 104.421 48.6443 102.826C49.393 102.049 49.5775 100.982 49.6513 99.9461C49.7409 98.7203 49.762 97.5368 50.0625 96.3322C50.8375 93.1939 52.224 90.0819 53.5842 87.1549C54.4067 85.385 55.2871 83.5886 55.6561 81.6602C55.9092 80.3288 56.1095 78.6803 55.3504 77.4652C54.8284 76.6304 53.9269 76.3081 53.0043 76.1284C51.9973 75.933 51.2751 75.7586 50.6108 74.9238C50.2049 74.4113 49.3455 74.5064 48.9185 74.9238C48.4124 75.4205 48.5178 76.1126 48.9185 76.6198C49.5195 77.3753 50.3156 77.8878 51.2329 78.1837C51.855 78.3845 52.5298 78.4056 53.1466 78.6275C53.2152 78.6539 53.3154 78.6751 53.3523 78.7807C53.4472 79.0502 53.4893 79.4412 53.4788 79.8374C53.4419 81.2851 52.9621 82.6904 52.4033 84.0113C51.2434 86.764 49.9782 89.4532 48.8974 92.2429C48.3807 93.5848 47.8957 94.9532 47.611 96.3692C47.3896 97.4681 47.3474 98.5724 47.2841 99.6872C47.2525 100.247 47.2103 100.95 46.8677 101.23C46.235 101.753 44.9592 101.711 44.2 101.6C42.8135 101.399 41.933 100.506 41.4533 99.2381C40.2829 96.142 40.8892 92.4489 41.158 89.2419C41.3267 87.2342 42.0965 85.1472 43.056 83.3614C43.91 81.7764 45.3177 79.5521 47.321 79.4147C48.8499 79.3091 48.8605 76.9157 47.321 77.0213L47.3158 77.0266Z" fill="#4D5359"/>
<path d="M30.2402 91.6942C30.2402 93.797 30.2561 95.8998 30.2508 98.0026C30.2508 99.6933 30.2139 101.321 30.7305 102.943C31.1787 104.359 31.5424 105.774 31.864 107.222C32.1698 108.606 32.5547 109.969 33.2664 111.206C34.1521 112.738 35.4859 113.953 36.4718 115.417C37.4366 116.848 38.2485 118.375 39.0814 119.886C40.9056 123.21 43.046 126.131 45.7295 128.81C47.1108 130.184 48.666 131.457 49.8522 133.01C51.0911 134.632 51.9452 136.513 52.2721 138.532C52.5199 140.048 54.8237 139.403 54.576 137.892C53.9855 134.273 51.8503 131.42 49.2881 128.937C46.6679 126.396 44.1531 123.854 42.2816 120.69C40.4522 117.599 38.9444 114.376 36.5614 111.655C35.5966 110.556 34.9007 109.372 34.5053 107.967C34.1046 106.541 33.8885 105.072 33.472 103.651C33.2664 102.937 32.987 102.245 32.813 101.516C32.5916 100.576 32.639 99.6193 32.6443 98.663C32.6548 96.3383 32.6337 94.0189 32.6337 91.6942C32.6337 90.1514 30.2402 90.1514 30.2455 91.6942H30.2402Z" fill="#4D5359"/>
<path d="M55.4927 63.1571C57.6595 60.5946 61.1233 60.8588 64.1283 60.2089C65.963 59.8127 67.6922 59.6172 69.5743 59.6489C71.4301 59.6806 73.2806 59.8391 75.1363 59.8391C81.4839 59.8497 87.494 61.963 92.2863 66.1845C94.7272 68.3348 96.6252 70.8497 98.3333 73.6077C99.8885 76.1173 101.855 78.3416 103.79 80.5606C105.688 82.7427 107.596 84.9459 108.988 87.4978C109.658 88.7288 110.18 90.0232 110.501 91.3916C110.891 93.0348 110.833 94.6674 110.87 96.3422C110.918 98.6035 111.086 100.865 111.055 103.126C111.028 104.885 110.833 106.64 110.575 108.383C110.322 110.111 110 111.838 109.51 113.519C109.083 115.003 108.535 116.567 107.549 117.782C106.584 118.966 108.266 120.672 109.241 119.478C111.271 116.974 112.083 113.667 112.636 110.555C113.28 106.898 113.522 103.285 113.38 99.5756C113.243 95.9935 113.522 92.3321 112.251 88.9137C111.144 85.9444 109.299 83.3873 107.285 80.978C105.308 78.6005 103.147 76.3656 101.354 73.8401C100.389 72.477 99.5933 71.0135 98.618 69.661C97.6216 68.2873 96.5355 66.977 95.3388 65.7777C90.5307 60.9539 84.1304 57.9371 77.3242 57.5091C75.247 57.377 73.154 57.4035 71.0716 57.3136C68.8362 57.2185 66.564 57.1974 64.3708 57.6993C60.691 58.55 56.4628 58.3333 53.8004 61.4717C52.8093 62.6393 54.4963 64.3459 55.4927 63.1677V63.1571Z" fill="#4D5359"/>
<path d="M125.527 192.078C125.627 193.484 124.974 194.667 124.61 195.988C124.199 197.473 124.336 198.973 124.241 200.489C124.146 201.99 123.635 203.48 123.45 204.98C123.276 206.38 123.213 207.791 123.16 209.202C123.044 212.298 122.612 215.246 121.695 218.21C120.793 221.105 119.575 223.884 118.315 226.637C117.092 229.3 115.874 231.952 114.788 234.678C113.739 237.31 112.711 239.994 111.203 242.403C110.449 243.607 109.564 244.733 108.815 245.943C108.14 247.031 107.655 248.199 107.128 249.361C106.611 250.502 106.063 251.564 105.098 252.383C104.144 253.186 103 253.778 101.893 254.333C99.204 255.68 96.6049 256.863 94.2958 258.834C92.2133 260.615 90.1625 262.76 87.3261 263.151C86.683 263.241 86.3403 264.059 86.4932 264.625C86.6777 265.317 87.3261 265.549 87.9641 265.46C90.6001 265.095 92.73 263.362 94.6754 261.671C95.6349 260.837 96.5733 259.965 97.6277 259.252C98.7454 258.501 99.9632 257.915 101.171 257.334C103.522 256.208 106.226 255.099 107.85 252.959C108.667 251.886 109.168 250.634 109.706 249.409C110.254 248.172 110.929 247.026 111.699 245.916C113.402 243.47 114.767 240.987 115.922 238.229C117.066 235.487 118.131 232.724 119.38 230.024C122.011 224.328 124.715 218.58 125.385 212.261C125.569 210.523 125.554 208.769 125.664 207.03C125.77 205.382 126.028 203.792 126.397 202.18C126.808 200.389 126.434 198.519 126.893 196.749C127.304 195.159 128.058 193.764 127.937 192.073C127.826 190.546 125.432 190.53 125.548 192.073L125.527 192.078Z" fill="#4D5359"/>
<path d="M16.7802 179.863C14.9561 180.043 13.1372 180.471 11.6452 181.596C10.3641 182.568 9.51006 183.905 8.99867 185.427C8.4662 187.006 8.32385 188.723 8.27113 190.382C8.19205 192.871 8.27113 195.37 8.26586 197.858C8.26586 203.369 8.35021 208.885 8.31331 214.39C8.29222 216.984 7.7123 219.425 7.32216 221.972C6.96367 224.312 6.94785 226.732 7.06911 229.099C7.1271 230.24 7.28526 231.387 7.6543 232.47C8.06552 233.675 8.7298 234.763 9.1252 235.978C9.95818 238.52 10.2376 241.203 10.7384 243.819C11.0284 245.33 13.3323 244.691 13.0423 243.179C12.6153 240.929 12.3411 238.641 11.7507 236.422C11.2182 234.43 10.0531 232.671 9.64186 230.658C9.23591 228.682 9.3519 226.41 9.4468 224.408C9.55751 222.093 10.2112 219.843 10.5117 217.55C10.8544 214.95 10.691 212.293 10.6594 209.677C10.6277 207.088 10.6488 204.5 10.6594 201.911C10.6594 199.206 10.6699 196.506 10.6594 193.801C10.6541 191.978 10.5908 190.139 10.8123 188.327C10.981 186.932 11.3395 185.437 12.2357 184.322C13.3376 182.949 15.0984 182.426 16.7855 182.262C18.3038 182.114 18.3196 179.715 16.7855 179.868L16.7802 179.863Z" fill="#4D5359"/>
<path d="M42.4603 183.509V193.906C42.4603 195.624 42.4867 197.341 42.434 199.058C42.3865 200.585 42.3022 202.112 42.3865 203.638C42.4709 205.139 42.7081 206.645 43.2722 208.045C43.868 209.514 44.5059 210.94 44.9909 212.451C45.9399 215.41 46.5409 218.48 46.873 221.57C47.2632 225.189 47.3422 228.835 47.3422 232.475C47.3422 234.018 49.7357 234.018 49.7305 232.475C49.7305 226.135 49.4774 219.705 47.8062 213.555C47.395 212.039 46.8941 210.549 46.3036 209.091C45.7237 207.664 45.0805 206.328 44.8749 204.785C44.6746 203.284 44.7326 201.752 44.78 200.241C44.8327 198.63 44.8486 197.029 44.8486 195.417V183.509C44.8486 181.966 42.4603 181.966 42.4603 183.509Z" fill="#4D5359"/>
<path d="M163.396 210.439C163.396 214.771 163.196 218.977 162.046 223.182C160.913 227.324 159.626 231.44 158.978 235.693C158.646 237.87 158.635 240.031 158.456 242.218C158.293 244.184 157.713 246.144 156.885 247.93C156.057 249.716 155.003 251.39 153.79 252.938C152.551 254.518 151.254 256.056 150.2 257.773C149.109 259.553 148.682 261.439 148.65 263.516C148.618 265.629 148.819 267.721 148.629 269.835C148.255 274.014 146.8 278.061 144.949 281.802C141.343 289.088 135.354 295.94 135.154 304.446C135.127 305.651 135.164 306.856 135.069 308.055C134.969 309.302 134.6 310.491 134.236 311.685C133.577 313.846 132.929 316.107 131.748 318.051C130.588 319.953 128.917 321.327 127.53 323.039C126.834 323.895 126.365 324.809 125.98 325.839C125.638 326.748 125.358 327.646 124.657 328.354C123.571 329.448 125.258 331.143 126.349 330.05C127.673 328.718 127.878 326.959 128.78 325.4C129.27 324.55 129.998 323.863 130.683 323.166C131.432 322.41 132.122 321.628 132.765 320.783C134.02 319.14 134.843 317.354 135.533 315.409C136.245 313.397 137.03 311.288 137.336 309.17C137.658 306.924 137.347 304.642 137.7 302.402C138.016 300.383 138.723 298.392 139.566 296.537C141.29 292.733 143.631 289.262 145.655 285.616C147.722 281.892 149.504 277.924 150.421 273.745C150.88 271.668 151.133 269.539 151.128 267.415C151.123 265.402 150.812 263.294 151.265 261.313C151.718 259.321 153.147 257.609 154.381 256.04C155.62 254.46 156.88 252.912 157.897 251.174C158.904 249.446 159.727 247.586 160.254 245.653C160.813 243.608 160.834 241.579 160.955 239.487C161.245 234.552 162.7 229.787 164.018 225.053C164.688 222.659 165.241 220.276 165.51 217.804C165.774 215.363 165.789 212.906 165.789 210.46C165.789 208.917 163.401 208.917 163.401 210.46L163.396 210.439Z" fill="#4D5359"/>
<path d="M111.318 45.7283C112.61 42.3628 113.907 39.0025 115.167 35.6264C116.322 32.5409 117.745 29.7143 119.411 26.8718C120.977 24.1984 122.369 21.5197 123.513 18.6402C124.135 17.0711 124.752 15.0951 126.017 13.9908C126.37 13.6791 126.897 13.4731 127.43 13.4414C128.4 13.3885 129.354 13.6686 130.261 13.975C131.331 14.3395 132.417 14.7675 133.435 15.2747C133.598 15.3592 133.767 15.4385 133.92 15.5442C133.872 15.5125 134.078 15.6657 134.041 15.634C133.909 15.5125 134.178 15.7397 134.041 15.6181C133.951 15.5389 134.051 15.6287 134.062 15.708C134.088 15.8453 134.057 15.671 134.057 15.6551C134.057 15.7766 134.057 15.8982 134.046 16.025C133.935 16.9971 133.361 18.3444 132.997 19.3746C132.433 20.9755 131.837 22.5605 131.168 24.1191C129.829 27.2205 128.189 30.1052 126.291 32.8949C124.161 36.0227 122.569 39.4569 120.529 42.6269C118.942 45.089 116.374 46.0717 113.543 45.4271C112.046 45.0837 111.408 47.3926 112.905 47.736C115.779 48.3964 118.662 47.9051 120.892 45.8921C122.084 44.8143 122.859 43.4089 123.644 42.0246C124.572 40.3868 125.479 38.7331 126.444 37.1163C128.389 33.867 130.63 30.8661 132.275 27.4371C133.804 24.2459 135.169 20.8751 136.15 17.4726C136.419 16.5322 136.64 15.4702 136.171 14.5562C135.754 13.7425 134.906 13.3146 134.104 12.9606C131.927 12.0043 129.449 10.7944 127.003 11.085C125.01 11.3227 123.681 12.707 122.769 14.4135C121.446 16.8967 120.671 19.623 119.358 22.1167C117.534 25.5774 115.309 28.8055 113.828 32.4405C112.125 36.6144 110.628 40.8834 109.015 45.0943C108.461 46.5367 110.775 47.1601 111.318 45.7336V45.7283Z" fill="#4D5359"/>
<path d="M74.5092 31.8909C75.648 29.7142 75.764 27.4212 75.9748 25.0225C76.1963 22.4548 76.7129 19.924 77.1821 17.388C78.1416 12.1838 78.516 6.92153 79.1802 1.68039L77.6672 2.83745C79.2277 3.17031 80.8409 3.01709 82.4225 3.03822C83.5771 3.05407 85.4434 2.98539 86.2553 4.01037C86.8721 4.79231 86.7931 6.20827 86.7245 7.22797C86.6191 8.82884 86.2764 10.4086 85.9126 11.9672C85.5647 13.4624 85.1587 14.947 84.8108 16.4422C84.4364 18.0484 84.2994 19.6968 84.0147 21.3188C83.6509 23.4269 83.1026 25.4822 82.4014 27.5004C81.869 29.0273 81.3576 30.6229 80.6564 32.0811C80.4139 32.5883 80.1714 33.0374 79.8761 33.291C79.8392 33.3227 79.7022 33.4337 79.8761 33.3016C79.7707 33.3809 79.6494 33.4495 79.5282 33.5077C79.6705 33.4443 79.1433 33.5605 79.196 33.5605C77.7779 33.6133 76.1119 32.8208 74.7306 32.2502C74.1296 32.0019 73.4232 32.5197 73.2597 33.085C73.0647 33.7718 73.5022 34.316 74.0927 34.5591C76.4282 35.5206 79.8603 37.0687 81.8531 34.6594C82.7705 33.5499 83.2397 32.1023 83.7353 30.7708C84.5261 28.6416 85.3063 26.5124 85.8335 24.2987C86.3238 22.2381 86.4925 20.1406 86.8932 18.0695C87.1885 16.5162 87.6313 14.9893 88.0056 13.4518C88.4537 11.5973 88.8597 9.72702 89.0548 7.82499C89.2076 6.30865 89.2287 4.64438 88.5592 3.23899C86.7298 -0.586198 81.5157 1.20488 78.2945 0.523318C77.4615 0.348966 76.8816 0.88259 76.7815 1.68039C76.1435 6.71019 75.7903 11.7558 74.8677 16.754C74.4196 19.1896 73.9504 21.6305 73.671 24.0926C73.4179 26.3328 73.5128 28.6311 72.4373 30.681C71.7256 32.0441 73.7869 33.2593 74.5039 31.8909H74.5092Z" fill="#4D5359"/>
<path d="M136.666 60.4889C138.991 59.5537 141.148 58.3491 143.209 56.9226C145.191 55.5489 147.063 53.9533 149.145 52.7381C150.194 52.1306 151.333 51.6973 152.43 51.1848C153.584 50.6512 154.575 49.9485 155.614 49.23C157.544 47.8933 159.795 46.5513 162.183 46.3399C161.904 46.2237 161.619 46.1075 161.339 45.9912C162.262 47.1589 162.462 48.8707 162.657 50.2919C162.874 51.8928 162.984 53.5307 163.475 55.0787C163.575 54.6877 163.68 54.302 163.78 53.9111C161.745 55.5225 159.009 56.1248 156.6 56.912C153.906 57.7944 151.565 59.1152 149.182 60.6316C147.047 61.9894 144.759 62.9298 142.502 64.0446C141.464 64.5624 140.425 65.0855 139.334 65.487C138.564 65.767 137.657 66.1157 136.84 65.8621C135.955 65.5821 135.475 64.6734 135.132 63.8703C134.658 62.7502 134.378 61.5562 133.941 60.4202C133.392 58.999 131.083 59.6171 131.637 61.0595C132.438 63.1412 132.812 65.7142 134.568 67.257C136.593 69.0322 139.113 68.208 141.3 67.257C142.481 66.7445 143.62 66.1527 144.775 65.5874C145.95 65.0115 147.184 64.5677 148.333 63.939C151.048 62.4596 153.447 60.5312 156.394 59.5062C159.51 58.4178 162.831 57.694 165.473 55.6018C165.789 55.3534 165.895 54.804 165.779 54.4341C165.062 52.157 165.146 49.716 164.55 47.4125C164.276 46.3664 163.844 45.0561 163.032 44.29C162.136 43.4446 160.069 44.2688 159.088 44.644C157.728 45.1565 156.442 45.8327 155.219 46.62C154.011 47.3913 152.92 48.2948 151.623 48.9235C150.358 49.5417 149.024 50.0119 147.811 50.7357C146.567 51.4807 145.407 52.3894 144.242 53.2401C141.654 55.1262 139.023 56.9649 136.034 58.1642C135.433 58.4072 135.021 58.962 135.201 59.6383C135.354 60.2089 136.071 60.7161 136.672 60.4731L136.666 60.4889Z" fill="#4D5359"/>
<path d="M27.2245 473.689C26.9609 471.893 26.3283 470.091 26.2545 468.279C26.2123 467.333 26.2545 466.445 26.0911 465.505C25.9487 464.712 25.8327 463.957 25.8169 463.149C25.7958 462.002 25.8116 460.945 27.1876 460.787C27.873 460.708 28.6164 460.808 29.249 461.083C30.024 461.421 30.7041 461.796 31.5793 461.78C32.5651 461.764 32.9605 460.792 32.6126 459.978C32.0959 458.774 30.9361 457.971 29.8237 457.368C28.4951 456.645 27.1033 456.032 25.7378 455.382C25.0261 455.044 24.3302 454.637 23.5658 454.415C22.7908 454.188 21.9683 454.151 21.1617 454.146C19.9122 454.14 18.5626 453.934 17.3448 454.294C16.0478 454.674 15.004 455.768 14.9091 457.157C14.8194 458.557 15.6419 459.852 16.4063 460.956C18.3095 463.714 20.6134 466.044 23.0649 468.321C23.7714 468.976 24.5042 469.605 25.2739 470.175C25.9434 470.672 26.7132 471.021 27.3774 471.512C28.0892 472.035 28.6269 472.664 29.4652 473.002C30.0925 473.256 30.8675 473.287 31.3367 473.81C31.5107 473.145 31.69 472.474 31.8639 471.808C29.8131 472.431 27.4776 471.697 25.6113 470.799C23.5078 469.785 21.8207 468.384 20.5396 466.419C19.1583 464.295 18.3992 462.028 17.7138 459.619C17.698 459.561 17.7138 459.281 17.7243 459.403C17.7507 459.598 17.5029 459.482 17.7665 459.477C18.1777 459.466 18.589 459.403 19.0107 459.403C20.3973 459.403 21.6836 459.709 23.028 460C23.745 460.153 24.462 460.269 25.1843 460.354C25.5111 460.391 26.0594 460.38 26.2914 460.655C26.3916 460.771 26.4127 460.993 26.4074 461.141C26.4074 461.268 26.3125 461.41 26.3125 461.527C26.3019 461.569 26.2756 461.606 26.2439 461.637C26.1754 461.69 26.2018 461.706 26.3178 461.685C26.3019 461.558 26.5234 461.944 26.4443 461.674C26.4232 461.601 26.207 461.458 26.1438 461.405C25.8749 461.167 25.5955 460.945 25.295 460.76C24.462 460.248 23.5816 460.935 23.4972 461.796C23.4498 462.277 23.4023 462.758 23.3549 463.238L24.8679 462.081C24.3829 461.954 24.0455 461.252 23.7503 460.877C23.2811 460.295 22.7433 459.868 22.0263 459.635C21.4991 459.466 20.9666 459.757 20.6767 460.185C19.4219 462.044 19.9333 464.844 20.45 466.873C21.1195 469.494 22.4428 471.803 24.4725 473.589C25.4321 474.434 26.4548 475.353 27.562 475.993C28.7218 476.658 30.1084 477.424 31.458 477.535C32.7918 477.646 34.0255 477.134 35.2908 476.811C36.0552 476.616 36.8355 476.59 37.6157 476.494C38.5858 476.373 39.5927 476.257 40.5101 475.908C41.3431 475.591 42.3289 474.804 41.8966 473.779C41.6699 473.235 41.3325 472.965 40.7421 472.902C40.4679 472.87 40.1885 472.838 39.9143 472.812C39.2659 472.738 38.7229 473.414 38.7176 474.011C38.7123 474.719 39.2764 475.137 39.9143 475.211C40.1885 475.242 40.4679 475.269 40.7421 475.3L39.5875 474.423C39.714 474.761 39.7878 474.503 39.8089 473.647C39.9302 473.557 39.9302 473.546 39.8089 473.626C39.7298 473.62 39.6297 473.694 39.4662 473.742C39.0339 473.869 38.5911 473.953 38.1429 474.027C37.5314 474.127 36.9145 474.175 36.2924 474.238C34.8848 474.376 33.5984 475.005 32.2119 475.152C30.9677 475.29 29.5548 474.439 28.532 473.795C26.323 472.4 24.3407 470.44 23.3391 468.009C22.8909 466.921 22.5904 465.764 22.4323 464.601C22.2899 463.587 22.137 462.298 22.7433 461.405C22.2952 461.59 21.8418 461.77 21.3937 461.954C21.8892 462.118 22.2425 462.837 22.5483 463.223C22.9964 463.777 23.5341 464.21 24.2353 464.395C25.0472 464.607 25.6746 464.01 25.7484 463.238C25.7958 462.758 25.8433 462.277 25.8907 461.796C25.2897 462.139 24.694 462.488 24.093 462.832C24.6676 463.186 25.0577 463.761 25.722 463.978C26.5761 464.253 27.4354 463.878 28.0259 463.238C29.1172 462.06 29.0329 459.957 27.8677 458.864C26.787 457.855 25.0208 457.987 23.6607 457.696C21.8523 457.305 20.0809 456.919 18.2146 457.025C16.9704 457.099 15.6999 457.532 15.3836 458.895C15.0356 460.406 15.9266 462.33 16.4801 463.703C17.7296 466.81 19.5221 469.753 22.3216 471.676C25.1052 473.594 29.1172 475.152 32.5019 474.127C33.3928 473.858 33.6353 472.796 33.0291 472.125C32.1961 471.2 31.089 471.237 30.0873 470.667C29.5917 470.382 29.1963 469.917 28.7376 469.573C28.1682 469.151 27.5251 468.849 26.9399 468.443C25.7642 467.634 24.7361 466.625 23.7134 465.637C22.6537 464.612 21.5835 463.603 20.5923 462.509C19.7014 461.527 18.9316 460.459 18.1988 459.355C17.8192 458.779 16.8334 457.511 17.524 456.851C18.1303 456.27 19.3745 456.507 20.1231 456.534C21.4569 456.587 22.6062 456.513 23.8294 457.125C25.1474 457.775 26.4812 458.383 27.7992 459.033C28.8325 459.54 30.0556 460.074 30.5354 461.199C30.8781 460.597 31.226 460 31.5687 459.397C30.7305 459.413 29.9502 458.716 29.1225 458.552C28.2157 458.372 27.2404 458.309 26.3388 458.52C24.5411 458.938 23.5816 460.327 23.4392 462.102C23.2811 463.994 23.8873 465.801 23.861 467.671C23.8294 469.927 24.5938 472.125 24.9207 474.339C25.0156 474.983 25.8222 475.327 26.3916 475.174C27.0769 474.994 27.3194 474.339 27.2245 473.7V473.689Z" fill="#4D5359"/>
</g>
<defs>
<clipPath id="clip0_693_18032">
<rect width="175" height="508" fill="white"/>
</clipPath>
</defs>
</svg>
